<svg width="143" height="42" viewBox="0 0 143 42" fill="none" xmlns="http://www.w3.org/2000/svg">
<path d="M19.6499 42C30.5499 42 39.1999 33.6 39.1999 21C39.1999 8.45 30.5499 0 19.6499 0C8.7499 0 0.149902 8.45 0.149902 21C0.149902 33.6 8.7499 42 19.6499 42ZM19.6499 40.95C11.0999 40.95 8.6999 32.55 8.6999 21C8.6999 9.5 11.0999 1.05 19.6499 1.05C28.1499 1.05 30.6499 9.5 30.6499 21C30.6499 32.55 28.1499 40.95 19.6499 40.95Z" fill="black"/>
<path d="M53.7847 1L50.9347 20.65L51.5347 21.2C55.8347 17.45 58.7847 16.45 61.7347 16.45C66.8347 16.45 70.1347 20.4 70.1347 27.1C70.1347 34.8 66.1347 40.1 60.0347 40.1C54.3347 40.1 49.7847 37.25 49.0347 29.1H48.0847C48.8847 37.45 53.6347 42 63.1347 42C70.9347 42 79.2347 37.75 79.2347 27.55C79.2347 18.4 71.3847 14.85 64.5847 14.85C59.6847 14.85 55.7847 16.4 52.1347 19.5L54.0847 5.75H60.7347C68.4847 5.75 71.4847 6.1 77.8347 9.15L75.4847 1H53.7847Z" fill="black"/>
<path d="M96.3999 34H97.2599C97.0999 32.48 97.0399 31.58 97.0399 29.72V19.02L103.74 34.4H104.36L110.58 18.96V29.72C110.58 31.58 110.52 32.48 110.38 34H114.16C114 32.48 113.96 31.58 113.96 29.72V22.28C113.96 20.42 114 19.52 114.16 18H110.54L105.62 29.88L100.34 18H96.3999C96.5599 19.52 96.6199 20.42 96.6199 22.28V29.72C96.6199 31.58 96.5599 32.48 96.3999 34Z" fill="black"/>
<path d="M128.622 34C128.322 32.28 128.322 31.32 128.322 29.84V27.08C128.302 24.72 126.562 23.94 124.162 23.94C121.842 23.94 119.742 24.8 118.362 25.72C118.622 27.16 120.142 27.38 120.962 26.32C121.542 25.58 122.022 24.38 123.762 24.38C124.842 24.38 125.402 25.02 125.402 26.28C125.402 27.56 124.522 27.96 122.782 28.28C120.862 28.62 117.982 29.24 117.982 31.72C117.982 33.68 119.802 34.4 121.462 34.4C123.642 34.4 124.882 33.4 125.422 31.96C125.442 32.66 125.482 33.22 125.622 34H128.622ZM122.902 33.42C121.882 33.42 121.182 32.74 121.182 31.24C121.182 29.88 121.902 29.02 123.382 28.58C124.322 28.3 125.022 28.12 125.402 27.64V30.1C125.402 31.98 124.442 33.42 122.902 33.42Z" fill="black"/>
<path d="M141.477 24.34C141.377 24.94 141.317 25.26 141.057 26L138.457 33.52L135.557 26C135.317 25.4 135.177 25.06 135.057 24.34H131.477C131.897 25.04 132.097 25.42 132.337 26.04L135.397 34H138.297L138.257 34.1C137.457 36.4 136.297 37.22 135.357 37.22C134.557 37.22 134.217 36.78 133.797 35.94C133.217 34.62 131.457 35.14 131.697 36.52C132.497 37.3 133.757 37.66 134.877 37.66C136.757 37.66 137.817 36.66 138.737 34L141.497 26.04C141.757 25.28 141.897 24.94 142.217 24.34H141.477Z" fill="black"/>
</svg>
