<svg width="318" height="158" viewBox="0 0 318 158" fill="none" xmlns="http://www.w3.org/2000/svg">
<path d="M9.80001 9.67603H5.60101V9.24704C6.23368 9.24704 6.68001 9.1907 6.94001 9.07804C7.18268 8.97404 7.30401 8.79203 7.30401 8.53203V2.03204C7.30401 1.8327 7.25201 1.69837 7.14801 1.62904C7.05268 1.55104 6.87935 1.51204 6.62801 1.51204H5.56201V1.09604C5.83935 1.07004 6.09501 1.03104 6.32901 0.979035C6.57168 0.918368 6.79268 0.849035 6.99201 0.771035C7.29535 0.658369 7.67668 0.463369 8.13601 0.186035V8.53203C8.13601 8.6967 8.17934 8.83104 8.26601 8.93504C8.36134 9.03037 8.53468 9.10404 8.78601 9.15604C8.90735 9.18204 9.05034 9.2037 9.21501 9.22104C9.38835 9.23837 9.58334 9.24704 9.80001 9.24704V9.67603Z" fill="#555555"/>
<path d="M7.19369 42.178C6.91636 42.3254 6.66936 42.4814 6.45269 42.646C6.24469 42.8107 6.06269 42.9927 5.90669 43.192C5.66402 43.4867 5.54269 43.9157 5.54269 44.479C5.54269 45.051 5.72469 45.519 6.08869 45.883C6.46136 46.2557 6.93369 46.442 7.50569 46.442C8.11236 46.442 8.61936 46.26 9.02669 45.896C9.44269 45.5234 9.65069 45.0554 9.65069 44.492C9.65069 44.1887 9.57703 43.92 9.42969 43.686C9.29103 43.4434 9.09169 43.2224 8.83169 43.023C8.75369 42.9624 8.64969 42.893 8.51969 42.815C8.38969 42.737 8.25102 42.659 8.10369 42.581C7.95636 42.4944 7.80036 42.4164 7.63569 42.347C7.47969 42.2777 7.33236 42.2214 7.19369 42.178ZM7.58369 41.346C8.10369 41.0774 8.49802 40.7827 8.76669 40.462C9.02669 40.1414 9.15669 39.8034 9.15669 39.448C9.15669 38.9107 9.00502 38.4817 8.70169 38.161C8.39836 37.823 8.00402 37.654 7.51869 37.654C6.99869 37.654 6.56102 37.8187 6.20569 38.148C5.85036 38.486 5.67269 38.9194 5.67269 39.448C5.67269 39.8727 5.85036 40.2497 6.20569 40.579C6.38769 40.787 6.84702 41.0427 7.58369 41.346ZM10.3787 44.453C10.3787 45.1724 10.0884 45.766 9.50769 46.234C8.94436 46.702 8.26836 46.936 7.47969 46.936C6.62169 46.936 5.92836 46.702 5.39969 46.234C4.90569 45.792 4.65869 45.207 4.65869 44.479C4.65869 43.8117 4.89702 43.2267 5.37369 42.724C5.65102 42.438 6.05836 42.1564 6.59569 41.879C6.13636 41.6624 5.78102 41.4024 5.52969 41.099C5.17436 40.6744 4.99669 40.1327 4.99669 39.474C4.99669 38.8154 5.23502 38.2737 5.71169 37.849C6.18836 37.407 6.79069 37.186 7.51869 37.186C8.38536 37.186 9.03969 37.472 9.48169 38.044C9.75902 38.3994 9.89769 38.863 9.89769 39.435C9.89769 39.9117 9.69402 40.3797 9.28669 40.839C9.06136 41.099 8.69303 41.3677 8.18169 41.645C8.78836 41.9224 9.25203 42.217 9.57269 42.529C10.11 43.0404 10.3787 43.6817 10.3787 44.453Z" fill="#555555"/>
<path d="M5.8088 83.676H1.6098V83.247C2.24247 83.247 2.6888 83.1907 2.9488 83.078C3.19147 82.974 3.3128 82.792 3.3128 82.532V76.032C3.3128 75.8327 3.2608 75.6984 3.1568 75.629C3.06147 75.551 2.88813 75.512 2.6368 75.512H1.5708V75.096C1.84813 75.07 2.1038 75.031 2.3378 74.979C2.58047 74.9184 2.80147 74.849 3.0008 74.771C3.30413 74.6584 3.68547 74.4634 4.1448 74.186V82.532C4.1448 82.6967 4.18813 82.831 4.2748 82.935C4.37013 83.0304 4.54347 83.104 4.7948 83.156C4.91613 83.182 5.05913 83.2037 5.2238 83.221C5.39713 83.2384 5.59213 83.247 5.8088 83.247V83.676Z" fill="#555555"/>
<path d="M13.0906 80.751C13.0906 81.5224 12.8653 82.2114 12.4146 82.818C12.198 83.13 11.8903 83.3814 11.4916 83.572C11.1016 83.7627 10.6986 83.858 10.2826 83.858C9.38996 83.858 8.70096 83.6284 8.21563 83.169C7.97296 82.961 7.79096 82.7357 7.66963 82.493C7.5483 82.2417 7.48763 81.9514 7.48763 81.622C7.48763 81.2234 7.68263 81.024 8.07263 81.024C8.46263 81.024 8.65763 81.232 8.65763 81.648C8.65763 81.6914 8.6533 81.7477 8.64463 81.817C8.64463 81.8864 8.63596 81.9514 8.61863 82.012C8.6013 82.0554 8.5883 82.09 8.57963 82.116C8.57963 82.142 8.57963 82.168 8.57963 82.194C8.57963 82.454 8.65763 82.675 8.81363 82.857C9.06496 83.1864 9.5113 83.351 10.1526 83.351C10.6553 83.351 11.0843 83.169 11.4396 82.805C11.6996 82.5277 11.886 82.2244 11.9986 81.895C12.12 81.557 12.1806 81.167 12.1806 80.725C12.1806 80.3784 12.146 80.062 12.0766 79.776C12.0073 79.4814 11.886 79.2257 11.7126 79.009C11.5133 78.7577 11.2836 78.5627 11.0236 78.424C10.7723 78.2767 10.482 78.203 10.1526 78.203C9.81463 78.203 9.4593 78.307 9.08663 78.515C8.69663 78.7404 8.3933 79.022 8.17663 79.36C8.1073 79.334 8.03796 79.308 7.96863 79.282C7.8993 79.256 7.82563 79.23 7.74763 79.204L8.21563 74.368H12.7136C12.6703 74.5154 12.6313 74.6627 12.5966 74.81C12.562 74.9574 12.523 75.1047 12.4796 75.252H8.69663C8.63596 75.772 8.57963 76.2964 8.52763 76.825C8.47563 77.3537 8.4193 77.8824 8.35863 78.411C8.9393 77.9257 9.58496 77.683 10.2956 77.683C11.171 77.683 11.873 77.9994 12.4016 78.632C12.861 79.1694 13.0906 79.8757 13.0906 80.751Z" fill="#555555"/>
<path d="M6.34848 118.362C6.24448 118.752 6.14048 119.142 6.03648 119.532C5.94115 119.922 5.84148 120.312 5.73748 120.702H0.68048C0.68048 120.659 0.676147 120.624 0.66748 120.598C0.66748 120.572 0.66748 120.542 0.66748 120.507C0.66748 120.022 0.96648 119.398 1.56448 118.635C1.74648 118.41 1.91981 118.202 2.08448 118.011C2.25781 117.812 2.43115 117.621 2.60448 117.439C2.78648 117.257 2.97281 117.075 3.16348 116.893C3.35415 116.711 3.56648 116.516 3.80048 116.308C3.99115 116.135 4.16881 115.94 4.33348 115.723C4.49815 115.506 4.64115 115.281 4.76248 115.047C4.88381 114.804 4.97915 114.562 5.04848 114.319C5.12648 114.068 5.16548 113.829 5.16548 113.604C5.16548 113.353 5.13515 113.123 5.07448 112.915C5.01381 112.698 4.90981 112.512 4.76248 112.356C4.58915 112.165 4.39415 112.022 4.17748 111.927C3.96081 111.823 3.70081 111.771 3.39748 111.771C2.94681 111.771 2.53515 111.905 2.16248 112.174C1.97181 112.313 1.82015 112.464 1.70748 112.629C1.60348 112.794 1.55148 112.971 1.55148 113.162C1.55148 113.318 1.61215 113.47 1.73348 113.617C1.79415 113.686 1.83748 113.769 1.86348 113.864C1.89815 113.951 1.91548 114.072 1.91548 114.228C1.91548 114.367 1.85915 114.484 1.74648 114.579C1.64248 114.674 1.50815 114.722 1.34348 114.722C1.09215 114.722 0.923147 114.631 0.83648 114.449C0.749814 114.267 0.70648 114.011 0.70648 113.682C0.70648 113.205 0.862481 112.768 1.17448 112.369C1.33048 112.17 1.50381 111.992 1.69448 111.836C1.88515 111.68 2.09748 111.563 2.33148 111.485C2.69548 111.355 3.08115 111.29 3.48848 111.29C4.25115 111.29 4.86215 111.498 5.32148 111.914C5.80681 112.347 6.04948 112.945 6.04948 113.708C6.04948 113.994 6.00181 114.28 5.90648 114.566C5.81981 114.852 5.67681 115.134 5.47748 115.411C5.26948 115.714 5.02681 116.018 4.74948 116.321C4.47215 116.624 4.16881 116.928 3.83948 117.231C3.67481 117.378 3.48415 117.543 3.26748 117.725C3.05081 117.907 2.80381 118.128 2.52648 118.388C2.09315 118.795 1.73781 119.285 1.46048 119.857H4.20348C4.63681 119.857 4.97915 119.753 5.23048 119.545C5.47315 119.363 5.73315 118.938 6.01048 118.271L6.34848 118.362Z" fill="#555555"/>
<path d="M13.3309 118.362C13.2269 118.752 13.1229 119.142 13.0189 119.532C12.9236 119.922 12.8239 120.312 12.7199 120.702H7.6629C7.6629 120.659 7.65857 120.624 7.6499 120.598C7.6499 120.572 7.6499 120.542 7.6499 120.507C7.6499 120.022 7.9489 119.398 8.5469 118.635C8.7289 118.41 8.90224 118.202 9.0669 118.011C9.24024 117.812 9.41357 117.621 9.5869 117.439C9.7689 117.257 9.95524 117.075 10.1459 116.893C10.3366 116.711 10.5489 116.516 10.7829 116.308C10.9736 116.135 11.1512 115.94 11.3159 115.723C11.4806 115.506 11.6236 115.281 11.7449 115.047C11.8662 114.804 11.9616 114.562 12.0309 114.319C12.1089 114.068 12.1479 113.829 12.1479 113.604C12.1479 113.353 12.1176 113.123 12.0569 112.915C11.9962 112.698 11.8922 112.512 11.7449 112.356C11.5716 112.165 11.3766 112.022 11.1599 111.927C10.9432 111.823 10.6832 111.771 10.3799 111.771C9.92924 111.771 9.51757 111.905 9.1449 112.174C8.95424 112.313 8.80257 112.464 8.6899 112.629C8.5859 112.794 8.5339 112.971 8.5339 113.162C8.5339 113.318 8.59457 113.47 8.7159 113.617C8.77657 113.686 8.8199 113.769 8.8459 113.864C8.88057 113.951 8.8979 114.072 8.8979 114.228C8.8979 114.367 8.84157 114.484 8.7289 114.579C8.6249 114.674 8.49057 114.722 8.3259 114.722C8.07457 114.722 7.90557 114.631 7.8189 114.449C7.73224 114.267 7.6889 114.011 7.6889 113.682C7.6889 113.205 7.8449 112.768 8.1569 112.369C8.3129 112.17 8.48624 111.992 8.6769 111.836C8.86757 111.68 9.0799 111.563 9.3139 111.485C9.6779 111.355 10.0636 111.29 10.4709 111.29C11.2336 111.29 11.8446 111.498 12.3039 111.914C12.7892 112.347 13.0319 112.945 13.0319 113.708C13.0319 113.994 12.9842 114.28 12.8889 114.566C12.8022 114.852 12.6592 115.134 12.4599 115.411C12.2519 115.714 12.0092 116.018 11.7319 116.321C11.4546 116.624 11.1512 116.928 10.8219 117.231C10.6572 117.378 10.4666 117.543 10.2499 117.725C10.0332 117.907 9.78624 118.128 9.5089 118.388C9.07557 118.795 8.72024 119.285 8.4429 119.857H11.1859C11.6192 119.857 11.9616 119.753 12.2129 119.545C12.4556 119.363 12.7156 118.938 12.9929 118.271L13.3309 118.362Z" fill="#555555"/>
<path d="M6.34848 155.362C6.24448 155.752 6.14048 156.142 6.03648 156.532C5.94115 156.922 5.84148 157.312 5.73748 157.702H0.68048C0.68048 157.659 0.676147 157.624 0.66748 157.598C0.66748 157.572 0.66748 157.542 0.66748 157.507C0.66748 157.022 0.96648 156.398 1.56448 155.635C1.74648 155.41 1.91981 155.202 2.08448 155.011C2.25781 154.812 2.43115 154.621 2.60448 154.439C2.78648 154.257 2.97281 154.075 3.16348 153.893C3.35415 153.711 3.56648 153.516 3.80048 153.308C3.99115 153.135 4.16881 152.94 4.33348 152.723C4.49815 152.506 4.64115 152.281 4.76248 152.047C4.88381 151.804 4.97915 151.562 5.04848 151.319C5.12648 151.068 5.16548 150.829 5.16548 150.604C5.16548 150.353 5.13515 150.123 5.07448 149.915C5.01381 149.698 4.90981 149.512 4.76248 149.356C4.58915 149.165 4.39415 149.022 4.17748 148.927C3.96081 148.823 3.70081 148.771 3.39748 148.771C2.94681 148.771 2.53515 148.905 2.16248 149.174C1.97181 149.313 1.82015 149.464 1.70748 149.629C1.60348 149.794 1.55148 149.971 1.55148 150.162C1.55148 150.318 1.61215 150.47 1.73348 150.617C1.79415 150.686 1.83748 150.769 1.86348 150.864C1.89815 150.951 1.91548 151.072 1.91548 151.228C1.91548 151.367 1.85915 151.484 1.74648 151.579C1.64248 151.674 1.50815 151.722 1.34348 151.722C1.09215 151.722 0.923147 151.631 0.83648 151.449C0.749814 151.267 0.70648 151.011 0.70648 150.682C0.70648 150.205 0.862481 149.768 1.17448 149.369C1.33048 149.17 1.50381 148.992 1.69448 148.836C1.88515 148.68 2.09748 148.563 2.33148 148.485C2.69548 148.355 3.08115 148.29 3.48848 148.29C4.25115 148.29 4.86215 148.498 5.32148 148.914C5.80681 149.347 6.04948 149.945 6.04948 150.708C6.04948 150.994 6.00181 151.28 5.90648 151.566C5.81981 151.852 5.67681 152.134 5.47748 152.411C5.26948 152.714 5.02681 153.018 4.74948 153.321C4.47215 153.624 4.16881 153.928 3.83948 154.231C3.67481 154.378 3.48415 154.543 3.26748 154.725C3.05081 154.907 2.80381 155.128 2.52648 155.388C2.09315 155.795 1.73781 156.285 1.46048 156.857H4.20348C4.63681 156.857 4.97915 156.753 5.23048 156.545C5.47315 156.363 5.73315 155.938 6.01048 155.271L6.34848 155.362Z" fill="#555555"/>
<path d="M8.5729 155.856C8.9629 155.856 9.1579 156.077 9.1579 156.519C9.1579 156.805 9.2359 157.004 9.3919 157.117C9.59124 157.308 9.87724 157.403 10.2499 157.403C10.5012 157.403 10.7656 157.312 11.0429 157.13C11.3809 156.931 11.6452 156.614 11.8359 156.181C11.9312 155.956 12.0179 155.696 12.0959 155.401C12.1826 155.106 12.2606 154.764 12.3299 154.374C12.3646 154.14 12.4036 153.728 12.4469 153.139C12.3516 153.304 12.2259 153.455 12.0699 153.594C11.9226 153.724 11.7579 153.841 11.5759 153.945C11.1166 154.205 10.6269 154.335 10.1069 154.335C9.4569 154.335 8.90657 154.084 8.4559 153.581C7.97924 153.052 7.7409 152.311 7.7409 151.358C7.7409 150.509 7.9749 149.789 8.4429 149.2C8.97157 148.541 9.66924 148.212 10.5359 148.212C11.3332 148.212 11.9616 148.498 12.4209 149.07C12.5942 149.278 12.7372 149.499 12.8499 149.733C12.9712 149.958 13.0709 150.214 13.1489 150.5C13.2096 150.769 13.2572 151.076 13.2919 151.423C13.3266 151.761 13.3482 152.151 13.3569 152.593V152.736C13.3656 152.996 13.3526 153.26 13.3179 153.529C13.2832 153.789 13.2356 154.058 13.1749 154.335C13.0882 154.777 12.9886 155.167 12.8759 155.505C12.7632 155.843 12.6376 156.138 12.4989 156.389C11.9182 157.386 11.0776 157.884 9.9769 157.884C9.6129 157.884 9.29224 157.832 9.0149 157.728C8.73757 157.624 8.51224 157.494 8.3389 157.338C8.09624 157.095 7.9749 156.818 7.9749 156.506C7.9749 156.073 8.17424 155.856 8.5729 155.856ZM12.4209 152.294V152.021C12.4209 151.787 12.4122 151.566 12.3949 151.358C12.3776 151.141 12.3516 150.933 12.3169 150.734C12.2389 150.275 12.1046 149.893 11.9139 149.59C11.7579 149.313 11.5716 149.096 11.3549 148.94C11.1382 148.784 10.8652 148.706 10.5359 148.706C10.2326 148.706 9.97257 148.767 9.7559 148.888C9.53924 149.009 9.34857 149.187 9.1839 149.421C8.83724 149.906 8.6639 150.565 8.6639 151.397C8.6639 152.116 8.8069 152.688 9.0929 153.113C9.38757 153.555 9.80357 153.776 10.3409 153.776C10.7656 153.776 11.1816 153.633 11.5889 153.347C12.0049 153.052 12.2822 152.701 12.4209 152.294Z" fill="#555555"/>
<path d="M60.8397 7.36204C60.7357 7.75204 60.6317 8.14204 60.5277 8.53204C60.4324 8.92204 60.3327 9.31204 60.2287 9.70204H55.1717C55.1717 9.65871 55.1674 9.62404 55.1587 9.59804C55.1587 9.57204 55.1587 9.54171 55.1587 9.50704C55.1587 9.02171 55.4577 8.39771 56.0557 7.63504C56.2377 7.40971 56.411 7.20171 56.5757 7.01104C56.749 6.81171 56.9224 6.62104 57.0957 6.43904C57.2777 6.25704 57.464 6.07504 57.6547 5.89304C57.8454 5.71104 58.0577 5.51604 58.2917 5.30804C58.4824 5.13471 58.66 4.93971 58.8247 4.72304C58.9894 4.50637 59.1324 4.28104 59.2537 4.04704C59.375 3.80437 59.4704 3.56171 59.5397 3.31904C59.6177 3.06771 59.6567 2.82937 59.6567 2.60404C59.6567 2.35271 59.6264 2.12304 59.5657 1.91504C59.505 1.69837 59.401 1.51204 59.2537 1.35604C59.0804 1.16537 58.8854 1.02237 58.6687 0.927039C58.452 0.823039 58.192 0.771039 57.8887 0.771039C57.438 0.771039 57.0264 0.905372 56.6537 1.17404C56.463 1.31271 56.3114 1.46437 56.1987 1.62904C56.0947 1.79371 56.0427 1.97137 56.0427 2.16204C56.0427 2.31804 56.1034 2.46971 56.2247 2.61704C56.2854 2.68637 56.3287 2.76871 56.3547 2.86404C56.3894 2.95071 56.4067 3.07204 56.4067 3.22804C56.4067 3.36671 56.3504 3.48371 56.2377 3.57904C56.1337 3.67437 55.9994 3.72204 55.8347 3.72204C55.5834 3.72204 55.4144 3.63104 55.3277 3.44904C55.241 3.26704 55.1977 3.01137 55.1977 2.68204C55.1977 2.20537 55.3537 1.76771 55.6657 1.36904C55.8217 1.16971 55.995 0.992039 56.1857 0.836039C56.3764 0.680039 56.5887 0.563039 56.8227 0.485039C57.1867 0.355039 57.5724 0.290039 57.9797 0.290039C58.7424 0.290039 59.3534 0.498039 59.8127 0.914039C60.298 1.34737 60.5407 1.94537 60.5407 2.70804C60.5407 2.99404 60.493 3.28004 60.3977 3.56604C60.311 3.85204 60.168 4.13371 59.9687 4.41104C59.7607 4.71437 59.518 5.01771 59.2407 5.32104C58.9634 5.62437 58.66 5.92771 58.3307 6.23104C58.166 6.37837 57.9754 6.54304 57.7587 6.72504C57.542 6.90704 57.295 7.12804 57.0177 7.38804C56.5844 7.79537 56.229 8.28504 55.9517 8.85704H58.6947C59.128 8.85704 59.4704 8.75304 59.7217 8.54504C59.9644 8.36304 60.2244 7.93837 60.5017 7.27104L60.8397 7.36204Z" fill="#555555"/>
<path d="M56.0815 44.856C56.4715 44.856 56.6665 45.077 56.6665 45.519C56.6665 45.805 56.7445 46.0044 56.9005 46.117C57.0998 46.3077 57.3858 46.403 57.7585 46.403C58.0098 46.403 58.2742 46.312 58.5515 46.13C58.8895 45.9307 59.1538 45.6144 59.3445 45.181C59.4398 44.9557 59.5265 44.6957 59.6045 44.401C59.6912 44.1064 59.7692 43.764 59.8385 43.374C59.8732 43.14 59.9122 42.7284 59.9555 42.139C59.8602 42.3037 59.7345 42.4554 59.5785 42.594C59.4312 42.724 59.2665 42.841 59.0845 42.945C58.6252 43.205 58.1355 43.335 57.6155 43.335C56.9655 43.335 56.4152 43.0837 55.9645 42.581C55.4878 42.0524 55.2495 41.3114 55.2495 40.358C55.2495 39.5087 55.4835 38.7894 55.9515 38.2C56.4802 37.5414 57.1778 37.212 58.0445 37.212C58.8418 37.212 59.4702 37.498 59.9295 38.07C60.1028 38.278 60.2458 38.499 60.3585 38.733C60.4798 38.9584 60.5795 39.214 60.6575 39.5C60.7182 39.7687 60.7658 40.0764 60.8005 40.423C60.8352 40.761 60.8568 41.151 60.8655 41.593V41.736C60.8742 41.996 60.8612 42.2604 60.8265 42.529C60.7918 42.789 60.7442 43.0577 60.6835 43.335C60.5968 43.777 60.4972 44.167 60.3845 44.505C60.2718 44.843 60.1462 45.1377 60.0075 45.389C59.4268 46.3857 58.5862 46.884 57.4855 46.884C57.1215 46.884 56.8008 46.832 56.5235 46.728C56.2462 46.624 56.0208 46.494 55.8475 46.338C55.6048 46.0954 55.4835 45.818 55.4835 45.506C55.4835 45.0727 55.6828 44.856 56.0815 44.856ZM59.9295 41.294V41.021C59.9295 40.787 59.9208 40.566 59.9035 40.358C59.8862 40.1414 59.8602 39.9334 59.8255 39.734C59.7475 39.2747 59.6132 38.8934 59.4225 38.59C59.2665 38.3127 59.0802 38.096 58.8635 37.94C58.6468 37.784 58.3738 37.706 58.0445 37.706C57.7412 37.706 57.4812 37.7667 57.2645 37.888C57.0478 38.0094 56.8572 38.187 56.6925 38.421C56.3458 38.9064 56.1725 39.565 56.1725 40.397C56.1725 41.1164 56.3155 41.6884 56.6015 42.113C56.8962 42.555 57.3122 42.776 57.8495 42.776C58.2742 42.776 58.6902 42.633 59.0975 42.347C59.5135 42.0524 59.7908 41.7014 59.9295 41.294Z" fill="#555555"/>
<path d="M56.3088 83.676H52.1098V83.247C52.7425 83.247 53.1888 83.1907 53.4488 83.078C53.6915 82.974 53.8128 82.792 53.8128 82.532V76.032C53.8128 75.8327 53.7608 75.6984 53.6568 75.629C53.5615 75.551 53.3881 75.512 53.1368 75.512H52.0708V75.096C52.3481 75.07 52.6038 75.031 52.8378 74.979C53.0805 74.9184 53.3015 74.849 53.5008 74.771C53.8041 74.6584 54.1855 74.4634 54.6448 74.186V82.532C54.6448 82.6967 54.6881 82.831 54.7748 82.935C54.8701 83.0304 55.0435 83.104 55.2948 83.156C55.4161 83.182 55.5591 83.2037 55.7238 83.221C55.8971 83.2384 56.0921 83.247 56.3088 83.247V83.676Z" fill="#555555"/>
<path d="M63.5646 80.829C63.5646 81.7824 63.2743 82.5494 62.6936 83.13C62.2083 83.65 61.58 83.91 60.8086 83.91C60.332 83.91 59.8943 83.8017 59.4956 83.585C59.1056 83.377 58.8023 83.065 58.5856 82.649C58.343 82.181 58.174 81.687 58.0786 81.167C57.9833 80.6384 57.9356 80.0967 57.9356 79.542C57.9356 78.8574 58.0136 78.177 58.1696 77.501C58.3256 76.799 58.5466 76.201 58.8326 75.707C59.448 74.7017 60.2756 74.199 61.3156 74.199C61.879 74.199 62.3643 74.342 62.7716 74.628C63.1703 74.8967 63.3696 75.213 63.3696 75.577C63.3696 76.0537 63.179 76.292 62.7976 76.292C62.4076 76.292 62.2126 76.11 62.2126 75.746C62.2126 75.7114 62.2126 75.6724 62.2126 75.629C62.2126 75.5857 62.217 75.5294 62.2256 75.46C62.2343 75.3647 62.2343 75.2997 62.2256 75.265C62.217 75.2217 62.204 75.1827 62.1866 75.148C62.022 74.8534 61.6883 74.706 61.1856 74.706C60.5356 74.706 59.981 75.1307 59.5216 75.98C59.4003 76.1967 59.2963 76.448 59.2096 76.734C59.1316 77.02 59.058 77.345 58.9886 77.709C58.902 78.1077 58.8586 78.5237 58.8586 78.957C59.0666 78.6884 59.3353 78.45 59.6646 78.242C60.1326 77.956 60.6353 77.813 61.1726 77.813C61.9093 77.813 62.4856 78.06 62.9016 78.554C63.3436 79.074 63.5646 79.8324 63.5646 80.829ZM62.6806 80.712C62.6806 79.8974 62.5246 79.2994 62.2126 78.918C61.866 78.5194 61.4413 78.32 60.9386 78.32C60.7133 78.32 60.4793 78.3764 60.2366 78.489C60.0026 78.6017 59.7946 78.7317 59.6126 78.879C59.2486 79.191 58.9973 79.5507 58.8586 79.958V80.075C58.8586 81.0717 59.0016 81.856 59.2876 82.428C59.4436 82.74 59.643 82.987 59.8856 83.169C60.1283 83.3597 60.4316 83.455 60.7956 83.455C61.437 83.455 61.905 83.2167 62.1996 82.74C62.5203 82.2634 62.6806 81.5874 62.6806 80.712Z" fill="#555555"/>
<path d="M56.8485 118.362C56.7445 118.752 56.6405 119.142 56.5365 119.532C56.4411 119.922 56.3415 120.312 56.2375 120.702H51.1805C51.1805 120.659 51.1761 120.624 51.1675 120.598C51.1675 120.572 51.1675 120.542 51.1675 120.507C51.1675 120.022 51.4665 119.398 52.0645 118.635C52.2465 118.41 52.4198 118.202 52.5845 118.011C52.7578 117.812 52.9311 117.621 53.1045 117.439C53.2865 117.257 53.4728 117.075 53.6635 116.893C53.8541 116.711 54.0665 116.516 54.3005 116.308C54.4911 116.135 54.6688 115.94 54.8335 115.723C54.9981 115.506 55.1411 115.281 55.2625 115.047C55.3838 114.804 55.4791 114.562 55.5485 114.319C55.6265 114.068 55.6655 113.829 55.6655 113.604C55.6655 113.353 55.6351 113.123 55.5745 112.915C55.5138 112.698 55.4098 112.512 55.2625 112.356C55.0891 112.165 54.8941 112.022 54.6775 111.927C54.4608 111.823 54.2008 111.771 53.8975 111.771C53.4468 111.771 53.0351 111.905 52.6625 112.174C52.4718 112.313 52.3201 112.464 52.2075 112.629C52.1035 112.794 52.0515 112.971 52.0515 113.162C52.0515 113.318 52.1121 113.47 52.2335 113.617C52.2941 113.686 52.3375 113.769 52.3635 113.864C52.3981 113.951 52.4155 114.072 52.4155 114.228C52.4155 114.367 52.3591 114.484 52.2465 114.579C52.1425 114.674 52.0081 114.722 51.8435 114.722C51.5921 114.722 51.4231 114.631 51.3365 114.449C51.2498 114.267 51.2065 114.011 51.2065 113.682C51.2065 113.205 51.3625 112.768 51.6745 112.369C51.8305 112.17 52.0038 111.992 52.1945 111.836C52.3851 111.68 52.5975 111.563 52.8315 111.485C53.1955 111.355 53.5811 111.29 53.9885 111.29C54.7511 111.29 55.3621 111.498 55.8215 111.914C56.3068 112.347 56.5495 112.945 56.5495 113.708C56.5495 113.994 56.5018 114.28 56.4065 114.566C56.3198 114.852 56.1768 115.134 55.9775 115.411C55.7695 115.714 55.5268 116.018 55.2495 116.321C54.9721 116.624 54.6688 116.928 54.3395 117.231C54.1748 117.378 53.9841 117.543 53.7675 117.725C53.5508 117.907 53.3038 118.128 53.0265 118.388C52.5931 118.795 52.2378 119.285 51.9605 119.857H54.7035C55.1368 119.857 55.4791 119.753 55.7305 119.545C55.9731 119.363 56.2331 118.938 56.5105 118.271L56.8485 118.362Z" fill="#555555"/>
<path d="M63.8179 118.076C63.8179 118.847 63.5752 119.489 63.0899 120C62.5179 120.598 61.7596 120.897 60.8149 120.897C60.3989 120.897 60.0306 120.841 59.7099 120.728C59.3979 120.615 59.1162 120.459 58.8649 120.26C58.6396 120.069 58.4662 119.848 58.3449 119.597C58.2236 119.337 58.1629 119.064 58.1629 118.778C58.1629 118.518 58.2539 118.314 58.4359 118.167C58.5226 118.089 58.6439 118.05 58.7999 118.05C59.1812 118.05 59.3719 118.258 59.3719 118.674C59.3719 118.735 59.3589 118.813 59.3329 118.908C59.3156 118.995 59.3069 119.064 59.3069 119.116C59.3069 119.246 59.3199 119.389 59.3459 119.545C59.3719 119.692 59.4196 119.805 59.4889 119.883C59.8356 120.23 60.2776 120.403 60.8149 120.403C61.0749 120.403 61.3522 120.338 61.6469 120.208C61.9416 120.078 62.1756 119.913 62.3489 119.714C62.7216 119.289 62.9079 118.73 62.9079 118.037C62.9079 117.5 62.6912 117.027 62.2579 116.62C62.0152 116.395 61.7596 116.234 61.4909 116.139C61.2222 116.035 60.8929 115.983 60.5029 115.983C60.4682 115.983 60.4292 115.987 60.3859 115.996C60.3512 115.996 60.3122 116 60.2689 116.009C60.2256 116.018 60.1909 116.026 60.1649 116.035C60.1389 116.035 60.1172 116.035 60.0999 116.035C59.9872 116.035 59.9092 115.974 59.8659 115.853C59.8486 115.801 59.8356 115.758 59.8269 115.723C59.8269 115.68 59.8269 115.636 59.8269 115.593C59.8269 115.463 59.8876 115.389 60.0089 115.372C60.0522 115.363 60.0912 115.363 60.1259 115.372C60.1606 115.372 60.2039 115.376 60.2559 115.385C60.3079 115.394 60.3512 115.402 60.3859 115.411C60.4292 115.411 60.4682 115.411 60.5029 115.411C60.6676 115.411 60.8366 115.389 61.0099 115.346C61.1919 115.294 61.3652 115.233 61.5299 115.164C61.7726 115.051 61.9546 114.934 62.0759 114.813C62.4746 114.475 62.6739 114.033 62.6739 113.487C62.6739 112.95 62.5352 112.529 62.2579 112.226C62.1106 112.07 61.9286 111.94 61.7119 111.836C61.5039 111.723 61.2829 111.663 61.0489 111.654H60.8279C60.7932 111.654 60.7586 111.654 60.7239 111.654C60.6892 111.654 60.6546 111.658 60.6199 111.667C60.2299 111.702 59.9266 111.827 59.7099 112.044C59.5799 112.174 59.5149 112.317 59.5149 112.473C59.5149 112.542 59.5279 112.616 59.5539 112.694C59.5799 112.763 59.5972 112.837 59.6059 112.915C59.6232 112.993 59.6319 113.058 59.6319 113.11C59.6319 113.318 59.5842 113.483 59.4889 113.604C59.4022 113.717 59.2636 113.773 59.0729 113.773L59.0599 113.76C58.6786 113.734 58.4879 113.5 58.4879 113.058C58.4879 112.564 58.7089 112.139 59.1509 111.784C59.5929 111.437 60.1086 111.242 60.6979 111.199C60.7412 111.19 60.7976 111.186 60.8669 111.186H61.0489C61.8029 111.195 62.4139 111.407 62.8819 111.823C63.3326 112.239 63.5579 112.794 63.5579 113.487C63.5579 114.059 63.3629 114.553 62.9729 114.969C62.6869 115.281 62.3229 115.524 61.8809 115.697C62.4442 115.87 62.8819 116.139 63.1939 116.503C63.6099 116.971 63.8179 117.495 63.8179 118.076Z" fill="#555555"/>
<path d="M56.8357 155.076C56.8357 155.847 56.593 156.489 56.1077 157C55.5357 157.598 54.7773 157.897 53.8327 157.897C53.4167 157.897 53.0483 157.841 52.7277 157.728C52.4157 157.615 52.134 157.459 51.8827 157.26C51.6573 157.069 51.484 156.848 51.3627 156.597C51.2413 156.337 51.1807 156.064 51.1807 155.778C51.1807 155.518 51.2717 155.314 51.4537 155.167C51.5403 155.089 51.6617 155.05 51.8177 155.05C52.199 155.05 52.3897 155.258 52.3897 155.674C52.3897 155.735 52.3767 155.813 52.3507 155.908C52.3333 155.995 52.3247 156.064 52.3247 156.116C52.3247 156.246 52.3377 156.389 52.3637 156.545C52.3897 156.692 52.4373 156.805 52.5067 156.883C52.8533 157.23 53.2953 157.403 53.8327 157.403C54.0927 157.403 54.37 157.338 54.6647 157.208C54.9593 157.078 55.1933 156.913 55.3667 156.714C55.7393 156.289 55.9257 155.73 55.9257 155.037C55.9257 154.5 55.709 154.027 55.2757 153.62C55.033 153.395 54.7773 153.234 54.5087 153.139C54.24 153.035 53.9107 152.983 53.5207 152.983C53.486 152.983 53.447 152.987 53.4037 152.996C53.369 152.996 53.33 153 53.2867 153.009C53.2433 153.018 53.2087 153.026 53.1827 153.035C53.1567 153.035 53.135 153.035 53.1177 153.035C53.005 153.035 52.927 152.974 52.8837 152.853C52.8663 152.801 52.8533 152.758 52.8447 152.723C52.8447 152.68 52.8447 152.636 52.8447 152.593C52.8447 152.463 52.9053 152.389 53.0267 152.372C53.07 152.363 53.109 152.363 53.1437 152.372C53.1783 152.372 53.2217 152.376 53.2737 152.385C53.3257 152.394 53.369 152.402 53.4037 152.411C53.447 152.411 53.486 152.411 53.5207 152.411C53.6853 152.411 53.8543 152.389 54.0277 152.346C54.2097 152.294 54.383 152.233 54.5477 152.164C54.7903 152.051 54.9723 151.934 55.0937 151.813C55.4923 151.475 55.6917 151.033 55.6917 150.487C55.6917 149.95 55.553 149.529 55.2757 149.226C55.1283 149.07 54.9463 148.94 54.7297 148.836C54.5217 148.723 54.3007 148.663 54.0667 148.654H53.8457C53.811 148.654 53.7763 148.654 53.7417 148.654C53.707 148.654 53.6723 148.658 53.6377 148.667C53.2477 148.702 52.9443 148.827 52.7277 149.044C52.5977 149.174 52.5327 149.317 52.5327 149.473C52.5327 149.542 52.5457 149.616 52.5717 149.694C52.5977 149.763 52.615 149.837 52.6237 149.915C52.641 149.993 52.6497 150.058 52.6497 150.11C52.6497 150.318 52.602 150.483 52.5067 150.604C52.42 150.717 52.2813 150.773 52.0907 150.773L52.0777 150.76C51.6963 150.734 51.5057 150.5 51.5057 150.058C51.5057 149.564 51.7267 149.139 52.1687 148.784C52.6107 148.437 53.1263 148.242 53.7157 148.199C53.759 148.19 53.8153 148.186 53.8847 148.186H54.0667C54.8207 148.195 55.4317 148.407 55.8997 148.823C56.3503 149.239 56.5757 149.794 56.5757 150.487C56.5757 151.059 56.3807 151.553 55.9907 151.969C55.7047 152.281 55.3407 152.524 54.8987 152.697C55.462 152.87 55.8997 153.139 56.2117 153.503C56.6277 153.971 56.8357 154.495 56.8357 155.076Z" fill="#555555"/>
<path d="M64.0131 153.035C64.0131 154.422 63.7574 155.553 63.2461 156.428C62.7001 157.373 61.9548 157.845 61.0101 157.845C60.0654 157.845 59.3201 157.373 58.7741 156.428C58.2628 155.553 58.0071 154.422 58.0071 153.035C58.0071 151.648 58.2628 150.517 58.7741 149.642C59.3201 148.706 60.0654 148.238 61.0101 148.238C61.9548 148.238 62.7001 148.706 63.2461 149.642C63.7574 150.517 64.0131 151.648 64.0131 153.035ZM63.1161 153.035C63.1161 151.848 62.9558 150.868 62.6351 150.097C62.2624 149.178 61.7208 148.719 61.0101 148.719C60.2994 148.719 59.7621 149.178 59.3981 150.097C59.0688 150.912 58.9041 151.891 58.9041 153.035C58.9041 154.179 59.0688 155.158 59.3981 155.973C59.7621 156.892 60.2994 157.351 61.0101 157.351C61.7208 157.351 62.2624 156.892 62.6351 155.973C62.9558 155.202 63.1161 154.222 63.1161 153.035Z" fill="#555555"/>
<path d="M111.327 7.07604C111.327 7.84737 111.084 8.4887 110.599 9.00004C110.027 9.59804 109.269 9.89704 108.324 9.89704C107.908 9.89704 107.54 9.8407 107.219 9.72803C106.907 9.61537 106.625 9.45937 106.374 9.26004C106.149 9.06937 105.975 8.84837 105.854 8.59704C105.733 8.33704 105.672 8.06404 105.672 7.77804C105.672 7.51804 105.763 7.31437 105.945 7.16704C106.032 7.08904 106.153 7.05004 106.309 7.05004C106.69 7.05004 106.881 7.25804 106.881 7.67404C106.881 7.7347 106.868 7.8127 106.842 7.90804C106.825 7.9947 106.816 8.06404 106.816 8.11604C106.816 8.24604 106.829 8.38904 106.855 8.54504C106.881 8.69237 106.929 8.80504 106.998 8.88304C107.345 9.2297 107.787 9.40304 108.324 9.40304C108.584 9.40304 108.861 9.33804 109.156 9.20804C109.451 9.07804 109.685 8.91337 109.858 8.71404C110.231 8.28937 110.417 7.73037 110.417 7.03703C110.417 6.4997 110.2 6.02737 109.767 5.62004C109.524 5.3947 109.269 5.23437 109 5.13904C108.731 5.03504 108.402 4.98304 108.012 4.98304C107.977 4.98304 107.938 4.98737 107.895 4.99604C107.86 4.99604 107.821 5.00037 107.778 5.00904C107.735 5.0177 107.7 5.02637 107.674 5.03504C107.648 5.03504 107.626 5.03504 107.609 5.03504C107.496 5.03504 107.418 4.97437 107.375 4.85303C107.358 4.80103 107.345 4.7577 107.336 4.72303C107.336 4.6797 107.336 4.63637 107.336 4.59304C107.336 4.46304 107.397 4.38937 107.518 4.37204C107.561 4.36337 107.6 4.36337 107.635 4.37204C107.67 4.37204 107.713 4.37637 107.765 4.38504C107.817 4.3937 107.86 4.40237 107.895 4.41104C107.938 4.41104 107.977 4.41104 108.012 4.41104C108.177 4.41104 108.346 4.38937 108.519 4.34604C108.701 4.29403 108.874 4.23337 109.039 4.16404C109.282 4.05137 109.464 3.93437 109.585 3.81304C109.984 3.47504 110.183 3.03304 110.183 2.48704C110.183 1.9497 110.044 1.52937 109.767 1.22603C109.62 1.07003 109.438 0.940035 109.221 0.836035C109.013 0.723368 108.792 0.662702 108.558 0.654035H108.337C108.302 0.654035 108.268 0.654035 108.233 0.654035C108.198 0.654035 108.164 0.658369 108.129 0.667035C107.739 0.701702 107.436 0.827368 107.219 1.04403C107.089 1.17404 107.024 1.31704 107.024 1.47303C107.024 1.54237 107.037 1.61603 107.063 1.69403C107.089 1.76337 107.106 1.83704 107.115 1.91504C107.132 1.99304 107.141 2.05804 107.141 2.11004C107.141 2.31804 107.093 2.4827 106.998 2.60404C106.911 2.7167 106.773 2.77304 106.582 2.77304L106.569 2.76004C106.188 2.73404 105.997 2.50004 105.997 2.05804C105.997 1.56404 106.218 1.13937 106.66 0.784035C107.102 0.437368 107.618 0.242368 108.207 0.199035C108.25 0.190368 108.307 0.186035 108.376 0.186035H108.558C109.312 0.194702 109.923 0.407035 110.391 0.823035C110.842 1.23904 111.067 1.7937 111.067 2.48704C111.067 3.05904 110.872 3.55304 110.482 3.96904C110.196 4.28104 109.832 4.5237 109.39 4.69703C109.953 4.87037 110.391 5.13903 110.703 5.50303C111.119 5.97103 111.327 6.49537 111.327 7.07604Z" fill="#555555"/>
<path d="M106.809 46.676H102.61V46.247C103.242 46.247 103.689 46.1907 103.949 46.078C104.191 45.974 104.313 45.792 104.313 45.532V39.032C104.313 38.8327 104.261 38.6984 104.157 38.629C104.061 38.551 103.888 38.512 103.637 38.512H102.571V38.096C102.848 38.07 103.104 38.031 103.338 37.979C103.58 37.9184 103.801 37.849 104.001 37.771C104.304 37.6584 104.685 37.4634 105.145 37.186V45.532C105.145 45.6967 105.188 45.831 105.275 45.935C105.37 46.0304 105.543 46.104 105.795 46.156C105.916 46.182 106.059 46.2037 106.224 46.221C106.397 46.2384 106.592 46.247 106.809 46.247V46.676Z" fill="#555555"/>
<path d="M114.234 42.035C114.234 43.4217 113.978 44.5527 113.467 45.428C112.921 46.3727 112.175 46.845 111.231 46.845C110.286 46.845 109.541 46.3727 108.995 45.428C108.483 44.5527 108.228 43.4217 108.228 42.035C108.228 40.6484 108.483 39.5174 108.995 38.642C109.541 37.706 110.286 37.238 111.231 37.238C112.175 37.238 112.921 37.706 113.467 38.642C113.978 39.5174 114.234 40.6484 114.234 42.035ZM113.337 42.035C113.337 40.8477 113.176 39.8684 112.856 39.097C112.483 38.1784 111.941 37.719 111.231 37.719C110.52 37.719 109.983 38.1784 109.619 39.097C109.289 39.9117 109.125 40.891 109.125 42.035C109.125 43.179 109.289 44.1584 109.619 44.973C109.983 45.8917 110.52 46.351 111.231 46.351C111.941 46.351 112.483 45.8917 112.856 44.973C113.176 44.2017 113.337 43.2224 113.337 42.035Z" fill="#555555"/>
<path d="M106.809 83.676H102.61V83.247C103.242 83.247 103.689 83.1907 103.949 83.078C104.191 82.974 104.313 82.792 104.313 82.532V76.032C104.313 75.8327 104.261 75.6984 104.157 75.629C104.061 75.551 103.888 75.512 103.637 75.512H102.571V75.096C102.848 75.07 103.104 75.031 103.338 74.979C103.58 74.9184 103.801 74.849 104.001 74.771C104.304 74.6584 104.685 74.4634 105.145 74.186V82.532C105.145 82.6967 105.188 82.831 105.275 82.935C105.37 83.0304 105.543 83.104 105.795 83.156C105.916 83.182 106.059 83.2037 106.224 83.221C106.397 83.2384 106.592 83.247 106.809 83.247V83.676Z" fill="#555555"/>
<path d="M110.984 79.763C111.105 79.451 111.322 78.9874 111.634 78.372C111.954 77.748 112.375 76.9767 112.895 76.058C112.973 75.928 113.046 75.798 113.116 75.668C113.194 75.5294 113.272 75.3907 113.35 75.252H110.854C110.698 75.252 110.555 75.2564 110.425 75.265C110.295 75.265 110.169 75.278 110.048 75.304C109.935 75.33 109.818 75.3777 109.697 75.447C109.575 75.5164 109.445 75.616 109.307 75.746C109.09 75.9627 108.886 76.3917 108.696 77.033C108.652 77.0157 108.605 77.0027 108.553 76.994C108.501 76.9767 108.449 76.9594 108.397 76.942C108.492 76.526 108.587 76.11 108.683 75.694C108.778 75.2694 108.873 74.8447 108.969 74.42H114.143V74.966C114.108 75.0267 114.078 75.0874 114.052 75.148C114.026 75.2 113.995 75.2564 113.961 75.317C113.813 75.5597 113.675 75.7937 113.545 76.019C113.415 76.2444 113.289 76.4697 113.168 76.695C112.691 77.475 112.327 78.2074 112.076 78.892C111.954 79.1954 111.846 79.5204 111.751 79.867C111.655 80.205 111.573 80.5604 111.504 80.933C111.434 81.2624 111.378 81.57 111.335 81.856C111.3 82.1334 111.283 82.3977 111.283 82.649V82.922C111.274 83.2427 111.231 83.481 111.153 83.637C111.075 83.793 110.923 83.871 110.698 83.871C110.507 83.871 110.373 83.793 110.295 83.637C110.217 83.4984 110.178 83.3034 110.178 83.052V82.948C110.195 82.5234 110.269 82.0467 110.399 81.518C110.537 80.9894 110.732 80.4044 110.984 79.763Z" fill="#555555"/>
<path d="M107.348 118.362C107.244 118.752 107.14 119.142 107.036 119.532C106.941 119.922 106.841 120.312 106.737 120.702H101.68C101.68 120.659 101.676 120.624 101.667 120.598C101.667 120.572 101.667 120.542 101.667 120.507C101.667 120.022 101.966 119.398 102.564 118.635C102.746 118.41 102.92 118.202 103.084 118.011C103.258 117.812 103.431 117.621 103.604 117.439C103.786 117.257 103.973 117.075 104.163 116.893C104.354 116.711 104.566 116.516 104.8 116.308C104.991 116.135 105.169 115.94 105.333 115.723C105.498 115.506 105.641 115.281 105.762 115.047C105.884 114.804 105.979 114.562 106.048 114.319C106.126 114.068 106.165 113.829 106.165 113.604C106.165 113.353 106.135 113.123 106.074 112.915C106.014 112.698 105.91 112.512 105.762 112.356C105.589 112.165 105.394 112.022 105.177 111.927C104.961 111.823 104.701 111.771 104.397 111.771C103.947 111.771 103.535 111.905 103.162 112.174C102.972 112.313 102.82 112.464 102.707 112.629C102.603 112.794 102.551 112.971 102.551 113.162C102.551 113.318 102.612 113.47 102.733 113.617C102.794 113.686 102.837 113.769 102.863 113.864C102.898 113.951 102.915 114.072 102.915 114.228C102.915 114.367 102.859 114.484 102.746 114.579C102.642 114.674 102.508 114.722 102.343 114.722C102.092 114.722 101.923 114.631 101.836 114.449C101.75 114.267 101.706 114.011 101.706 113.682C101.706 113.205 101.862 112.768 102.174 112.369C102.33 112.17 102.504 111.992 102.694 111.836C102.885 111.68 103.097 111.563 103.331 111.485C103.695 111.355 104.081 111.29 104.488 111.29C105.251 111.29 105.862 111.498 106.321 111.914C106.807 112.347 107.049 112.945 107.049 113.708C107.049 113.994 107.002 114.28 106.906 114.566C106.82 114.852 106.677 115.134 106.477 115.411C106.269 115.714 106.027 116.018 105.749 116.321C105.472 116.624 105.169 116.928 104.839 117.231C104.675 117.378 104.484 117.543 104.267 117.725C104.051 117.907 103.804 118.128 103.526 118.388C103.093 118.795 102.738 119.285 102.46 119.857H105.203C105.637 119.857 105.979 119.753 106.23 119.545C106.473 119.363 106.733 118.938 107.01 118.271L107.348 118.362Z" fill="#555555"/>
<path d="M114.695 118.349H113.031V119.896C113.031 120.095 113.113 120.225 113.278 120.286C113.443 120.355 113.755 120.39 114.214 120.39V120.819H110.964V120.403C111.458 120.403 111.796 120.364 111.978 120.286C112.125 120.217 112.199 120.087 112.199 119.896V118.375H108.52V117.868C109.196 116.724 109.868 115.593 110.535 114.475C111.211 113.348 111.887 112.209 112.563 111.056H113.031V117.842H114.695V118.349ZM112.199 117.842V112.811C111.679 113.652 111.168 114.492 110.665 115.333C110.171 116.165 109.664 117.001 109.144 117.842H112.199Z" fill="#555555"/>
<path d="M107.615 155.076C107.615 155.847 107.372 156.489 106.887 157C106.315 157.598 105.557 157.897 104.612 157.897C104.196 157.897 103.828 157.841 103.507 157.728C103.195 157.615 102.913 157.459 102.662 157.26C102.437 157.069 102.263 156.848 102.142 156.597C102.021 156.337 101.96 156.064 101.96 155.778C101.96 155.518 102.051 155.314 102.233 155.167C102.32 155.089 102.441 155.05 102.597 155.05C102.978 155.05 103.169 155.258 103.169 155.674C103.169 155.735 103.156 155.813 103.13 155.908C103.113 155.995 103.104 156.064 103.104 156.116C103.104 156.246 103.117 156.389 103.143 156.545C103.169 156.692 103.217 156.805 103.286 156.883C103.633 157.23 104.075 157.403 104.612 157.403C104.872 157.403 105.149 157.338 105.444 157.208C105.739 157.078 105.973 156.913 106.146 156.714C106.519 156.289 106.705 155.73 106.705 155.037C106.705 154.5 106.488 154.027 106.055 153.62C105.812 153.395 105.557 153.234 105.288 153.139C105.019 153.035 104.69 152.983 104.3 152.983C104.265 152.983 104.226 152.987 104.183 152.996C104.148 152.996 104.109 153 104.066 153.009C104.023 153.018 103.988 153.026 103.962 153.035C103.936 153.035 103.914 153.035 103.897 153.035C103.784 153.035 103.706 152.974 103.663 152.853C103.646 152.801 103.633 152.758 103.624 152.723C103.624 152.68 103.624 152.636 103.624 152.593C103.624 152.463 103.685 152.389 103.806 152.372C103.849 152.363 103.888 152.363 103.923 152.372C103.958 152.372 104.001 152.376 104.053 152.385C104.105 152.394 104.148 152.402 104.183 152.411C104.226 152.411 104.265 152.411 104.3 152.411C104.465 152.411 104.634 152.389 104.807 152.346C104.989 152.294 105.162 152.233 105.327 152.164C105.57 152.051 105.752 151.934 105.873 151.813C106.272 151.475 106.471 151.033 106.471 150.487C106.471 149.95 106.332 149.529 106.055 149.226C105.908 149.07 105.726 148.94 105.509 148.836C105.301 148.723 105.08 148.663 104.846 148.654H104.625C104.59 148.654 104.556 148.654 104.521 148.654C104.486 148.654 104.452 148.658 104.417 148.667C104.027 148.702 103.724 148.827 103.507 149.044C103.377 149.174 103.312 149.317 103.312 149.473C103.312 149.542 103.325 149.616 103.351 149.694C103.377 149.763 103.394 149.837 103.403 149.915C103.42 149.993 103.429 150.058 103.429 150.11C103.429 150.318 103.381 150.483 103.286 150.604C103.199 150.717 103.061 150.773 102.87 150.773L102.857 150.76C102.476 150.734 102.285 150.5 102.285 150.058C102.285 149.564 102.506 149.139 102.948 148.784C103.39 148.437 103.906 148.242 104.495 148.199C104.538 148.19 104.595 148.186 104.664 148.186H104.846C105.6 148.195 106.211 148.407 106.679 148.823C107.13 149.239 107.355 149.794 107.355 150.487C107.355 151.059 107.16 151.553 106.77 151.969C106.484 152.281 106.12 152.524 105.678 152.697C106.241 152.87 106.679 153.139 106.991 153.503C107.407 153.971 107.615 154.495 107.615 155.076Z" fill="#555555"/>
<path d="M113.791 157.676H109.592V157.247C110.225 157.247 110.671 157.191 110.931 157.078C111.174 156.974 111.295 156.792 111.295 156.532V150.032C111.295 149.833 111.243 149.698 111.139 149.629C111.044 149.551 110.871 149.512 110.619 149.512H109.553V149.096C109.831 149.07 110.086 149.031 110.32 148.979C110.563 148.918 110.784 148.849 110.983 148.771C111.287 148.658 111.668 148.463 112.127 148.186V156.532C112.127 156.697 112.171 156.831 112.257 156.935C112.353 157.03 112.526 157.104 112.777 157.156C112.899 157.182 113.042 157.204 113.206 157.221C113.38 157.238 113.575 157.247 113.791 157.247V157.676Z" fill="#555555"/>
<path d="M162.204 7.34903H160.54V8.89603C160.54 9.09536 160.622 9.22536 160.787 9.28603C160.951 9.35536 161.263 9.39003 161.723 9.39003V9.81903H158.473V9.40303C158.967 9.40303 159.305 9.36403 159.487 9.28603C159.634 9.2167 159.708 9.0867 159.708 8.89603V7.37503H156.029V6.86803C156.705 5.72403 157.376 4.59303 158.044 3.47503C158.72 2.34836 159.396 1.2087 160.072 0.0560303H160.54V6.84203H162.204V7.34903ZM159.708 6.84203V1.81103C159.188 2.6517 158.676 3.49236 158.174 4.33303C157.68 5.16503 157.173 6.00136 156.653 6.84203H159.708Z" fill="#555555"/>
<path d="M158.088 46.676H153.889V46.247C154.522 46.247 154.968 46.1907 155.228 46.078C155.471 45.974 155.592 45.792 155.592 45.532V39.032C155.592 38.8327 155.54 38.6984 155.436 38.629C155.341 38.551 155.167 38.512 154.916 38.512H153.85V38.096C154.127 38.07 154.383 38.031 154.617 37.979C154.86 37.9184 155.081 37.849 155.28 37.771C155.583 37.6584 155.965 37.4634 156.424 37.186V45.532C156.424 45.6967 156.467 45.831 156.554 45.935C156.649 46.0304 156.823 46.104 157.074 46.156C157.195 46.182 157.338 46.2037 157.503 46.221C157.676 46.2384 157.871 46.247 158.088 46.247V46.676Z" fill="#555555"/>
<path d="M164.512 46.676H160.313V46.247C160.946 46.247 161.392 46.1907 161.652 46.078C161.895 45.974 162.016 45.792 162.016 45.532V39.032C162.016 38.8327 161.964 38.6984 161.86 38.629C161.765 38.551 161.591 38.512 161.34 38.512H160.274V38.096C160.551 38.07 160.807 38.031 161.041 37.979C161.284 37.9184 161.505 37.849 161.704 37.771C162.007 37.6584 162.389 37.4634 162.848 37.186V45.532C162.848 45.6967 162.891 45.831 162.978 45.935C163.073 46.0304 163.247 46.104 163.498 46.156C163.619 46.182 163.762 46.2037 163.927 46.221C164.1 46.2384 164.295 46.247 164.512 46.247V46.676Z" fill="#555555"/>
<path d="M157.309 83.676H153.11V83.247C153.742 83.247 154.189 83.1907 154.449 83.078C154.691 82.974 154.813 82.792 154.813 82.532V76.032C154.813 75.8327 154.761 75.6984 154.657 75.629C154.561 75.551 154.388 75.512 154.137 75.512H153.071V75.096C153.348 75.07 153.604 75.031 153.838 74.979C154.08 74.9184 154.301 74.849 154.501 74.771C154.804 74.6584 155.185 74.4634 155.645 74.186V82.532C155.645 82.6967 155.688 82.831 155.775 82.935C155.87 83.0304 156.043 83.104 156.295 83.156C156.416 83.182 156.559 83.2037 156.724 83.221C156.897 83.2384 157.092 83.247 157.309 83.247V83.676Z" fill="#555555"/>
<path d="M161.406 79.178C161.128 79.3254 160.881 79.4814 160.665 79.646C160.457 79.8107 160.275 79.9927 160.119 80.192C159.876 80.4867 159.755 80.9157 159.755 81.479C159.755 82.051 159.937 82.519 160.301 82.883C160.673 83.2557 161.146 83.442 161.718 83.442C162.324 83.442 162.831 83.26 163.239 82.896C163.655 82.5234 163.863 82.0554 163.863 81.492C163.863 81.1887 163.789 80.92 163.642 80.686C163.503 80.4434 163.304 80.2224 163.044 80.023C162.966 79.9624 162.862 79.893 162.732 79.815C162.602 79.737 162.463 79.659 162.316 79.581C162.168 79.4944 162.012 79.4164 161.848 79.347C161.692 79.2777 161.544 79.2214 161.406 79.178ZM161.796 78.346C162.316 78.0774 162.71 77.7827 162.979 77.462C163.239 77.1414 163.369 76.8034 163.369 76.448C163.369 75.9107 163.217 75.4817 162.914 75.161C162.61 74.823 162.216 74.654 161.731 74.654C161.211 74.654 160.773 74.8187 160.418 75.148C160.062 75.486 159.885 75.9194 159.885 76.448C159.885 76.8727 160.062 77.2497 160.418 77.579C160.6 77.787 161.059 78.0427 161.796 78.346ZM164.591 81.453C164.591 82.1724 164.3 82.766 163.72 83.234C163.156 83.702 162.48 83.936 161.692 83.936C160.834 83.936 160.14 83.702 159.612 83.234C159.118 82.792 158.871 82.207 158.871 81.479C158.871 80.8117 159.109 80.2267 159.586 79.724C159.863 79.438 160.27 79.1564 160.808 78.879C160.348 78.6624 159.993 78.4024 159.742 78.099C159.386 77.6744 159.209 77.1327 159.209 76.474C159.209 75.8154 159.447 75.2737 159.924 74.849C160.4 74.407 161.003 74.186 161.731 74.186C162.597 74.186 163.252 74.472 163.694 75.044C163.971 75.3994 164.11 75.863 164.11 76.435C164.11 76.9117 163.906 77.3797 163.499 77.839C163.273 78.099 162.905 78.3677 162.394 78.645C163 78.9224 163.464 79.217 163.785 79.529C164.322 80.0404 164.591 80.6817 164.591 81.453Z" fill="#555555"/>
<path d="M157.848 118.362C157.744 118.752 157.64 119.142 157.536 119.532C157.441 119.922 157.341 120.312 157.237 120.702H152.18C152.18 120.659 152.176 120.624 152.167 120.598C152.167 120.572 152.167 120.542 152.167 120.507C152.167 120.022 152.466 119.398 153.064 118.635C153.246 118.41 153.42 118.202 153.584 118.011C153.758 117.812 153.931 117.621 154.104 117.439C154.286 117.257 154.473 117.075 154.663 116.893C154.854 116.711 155.066 116.516 155.3 116.308C155.491 116.135 155.669 115.94 155.833 115.723C155.998 115.506 156.141 115.281 156.262 115.047C156.384 114.804 156.479 114.562 156.548 114.319C156.626 114.068 156.665 113.829 156.665 113.604C156.665 113.353 156.635 113.123 156.574 112.915C156.514 112.698 156.41 112.512 156.262 112.356C156.089 112.165 155.894 112.022 155.677 111.927C155.461 111.823 155.201 111.771 154.897 111.771C154.447 111.771 154.035 111.905 153.662 112.174C153.472 112.313 153.32 112.464 153.207 112.629C153.103 112.794 153.051 112.971 153.051 113.162C153.051 113.318 153.112 113.47 153.233 113.617C153.294 113.686 153.337 113.769 153.363 113.864C153.398 113.951 153.415 114.072 153.415 114.228C153.415 114.367 153.359 114.484 153.246 114.579C153.142 114.674 153.008 114.722 152.843 114.722C152.592 114.722 152.423 114.631 152.336 114.449C152.25 114.267 152.206 114.011 152.206 113.682C152.206 113.205 152.362 112.768 152.674 112.369C152.83 112.17 153.004 111.992 153.194 111.836C153.385 111.68 153.597 111.563 153.831 111.485C154.195 111.355 154.581 111.29 154.988 111.29C155.751 111.29 156.362 111.498 156.821 111.914C157.307 112.347 157.549 112.945 157.549 113.708C157.549 113.994 157.502 114.28 157.406 114.566C157.32 114.852 157.177 115.134 156.977 115.411C156.769 115.714 156.527 116.018 156.249 116.321C155.972 116.624 155.669 116.928 155.339 117.231C155.175 117.378 154.984 117.543 154.767 117.725C154.551 117.907 154.304 118.128 154.026 118.388C153.593 118.795 153.238 119.285 152.96 119.857H155.703C156.137 119.857 156.479 119.753 156.73 119.545C156.973 119.363 157.233 118.938 157.51 118.271L157.848 118.362Z" fill="#555555"/>
<path d="M164.87 117.751C164.87 118.522 164.645 119.211 164.194 119.818C163.977 120.13 163.67 120.381 163.271 120.572C162.881 120.763 162.478 120.858 162.062 120.858C161.169 120.858 160.48 120.628 159.995 120.169C159.752 119.961 159.57 119.736 159.449 119.493C159.328 119.242 159.267 118.951 159.267 118.622C159.267 118.223 159.462 118.024 159.852 118.024C160.242 118.024 160.437 118.232 160.437 118.648C160.437 118.691 160.433 118.748 160.424 118.817C160.424 118.886 160.415 118.951 160.398 119.012C160.381 119.055 160.368 119.09 160.359 119.116C160.359 119.142 160.359 119.168 160.359 119.194C160.359 119.454 160.437 119.675 160.593 119.857C160.844 120.186 161.291 120.351 161.932 120.351C162.435 120.351 162.864 120.169 163.219 119.805C163.479 119.528 163.665 119.224 163.778 118.895C163.899 118.557 163.96 118.167 163.96 117.725C163.96 117.378 163.925 117.062 163.856 116.776C163.787 116.481 163.665 116.226 163.492 116.009C163.293 115.758 163.063 115.563 162.803 115.424C162.552 115.277 162.261 115.203 161.932 115.203C161.594 115.203 161.239 115.307 160.866 115.515C160.476 115.74 160.173 116.022 159.956 116.36C159.887 116.334 159.817 116.308 159.748 116.282C159.679 116.256 159.605 116.23 159.527 116.204L159.995 111.368H164.493C164.45 111.515 164.411 111.663 164.376 111.81C164.341 111.957 164.302 112.105 164.259 112.252H160.476C160.415 112.772 160.359 113.296 160.307 113.825C160.255 114.354 160.199 114.882 160.138 115.411C160.719 114.926 161.364 114.683 162.075 114.683C162.95 114.683 163.652 114.999 164.181 115.632C164.64 116.169 164.87 116.876 164.87 117.751Z" fill="#555555"/>
<path d="M213.379 6.75104C213.379 7.52238 213.154 8.21138 212.703 8.81804C212.486 9.13004 212.179 9.38138 211.78 9.57204C211.39 9.76271 210.987 9.85804 210.571 9.85804C209.678 9.85804 208.989 9.62838 208.504 9.16904C208.261 8.96104 208.079 8.73571 207.958 8.49304C207.837 8.24171 207.776 7.95138 207.776 7.62204C207.776 7.22338 207.971 7.02404 208.361 7.02404C208.751 7.02404 208.946 7.23204 208.946 7.64804C208.946 7.69138 208.942 7.74771 208.933 7.81704C208.933 7.88638 208.924 7.95138 208.907 8.01204C208.89 8.05538 208.877 8.09004 208.868 8.11604C208.868 8.14204 208.868 8.16804 208.868 8.19404C208.868 8.45404 208.946 8.67504 209.102 8.85704C209.353 9.18638 209.8 9.35104 210.441 9.35104C210.944 9.35104 211.373 9.16904 211.728 8.80504C211.988 8.52771 212.174 8.22438 212.287 7.89504C212.408 7.55704 212.469 7.16704 212.469 6.72504C212.469 6.37838 212.434 6.06204 212.365 5.77604C212.296 5.48138 212.174 5.22571 212.001 5.00904C211.802 4.75771 211.572 4.56271 211.312 4.42404C211.061 4.27671 210.77 4.20304 210.441 4.20304C210.103 4.20304 209.748 4.30704 209.375 4.51504C208.985 4.74038 208.682 5.02204 208.465 5.36004C208.396 5.33404 208.326 5.30804 208.257 5.28204C208.188 5.25604 208.114 5.23004 208.036 5.20404L208.504 0.368042H213.002C212.959 0.515375 212.92 0.662709 212.885 0.810042C212.85 0.957375 212.811 1.10471 212.768 1.25204H208.985C208.924 1.77204 208.868 2.29638 208.816 2.82504C208.764 3.35371 208.708 3.88238 208.647 4.41104C209.228 3.92571 209.873 3.68304 210.584 3.68304C211.459 3.68304 212.161 3.99938 212.69 4.63204C213.149 5.16938 213.379 5.87571 213.379 6.75104Z" fill="#555555"/>
<path d="M208.809 46.676H204.61V46.247C205.242 46.247 205.689 46.1907 205.949 46.078C206.191 45.974 206.313 45.792 206.313 45.532V39.032C206.313 38.8327 206.261 38.6984 206.157 38.629C206.061 38.551 205.888 38.512 205.637 38.512H204.571V38.096C204.848 38.07 205.104 38.031 205.338 37.979C205.58 37.9184 205.801 37.849 206.001 37.771C206.304 37.6584 206.685 37.4634 207.145 37.186V45.532C207.145 45.6967 207.188 45.831 207.275 45.935C207.37 46.0304 207.543 46.104 207.795 46.156C207.916 46.182 208.059 46.2037 208.224 46.221C208.397 46.2384 208.592 46.247 208.809 46.247V46.676Z" fill="#555555"/>
<path d="M216.052 44.362C215.948 44.752 215.844 45.142 215.74 45.532C215.644 45.922 215.545 46.312 215.441 46.702H210.384C210.384 46.6587 210.379 46.624 210.371 46.598C210.371 46.572 210.371 46.5417 210.371 46.507C210.371 46.0217 210.67 45.3977 211.268 44.635C211.45 44.4097 211.623 44.2017 211.788 44.011C211.961 43.8117 212.134 43.621 212.308 43.439C212.49 43.257 212.676 43.075 212.867 42.893C213.057 42.711 213.27 42.516 213.504 42.308C213.694 42.1347 213.872 41.9397 214.037 41.723C214.201 41.5064 214.344 41.281 214.466 41.047C214.587 40.8044 214.682 40.5617 214.752 40.319C214.83 40.0677 214.869 39.8294 214.869 39.604C214.869 39.3527 214.838 39.123 214.778 38.915C214.717 38.6984 214.613 38.512 214.466 38.356C214.292 38.1654 214.097 38.0224 213.881 37.927C213.664 37.823 213.404 37.771 213.101 37.771C212.65 37.771 212.238 37.9054 211.866 38.174C211.675 38.3127 211.523 38.4644 211.411 38.629C211.307 38.7937 211.255 38.9714 211.255 39.162C211.255 39.318 211.315 39.4697 211.437 39.617C211.497 39.6864 211.541 39.7687 211.567 39.864C211.601 39.9507 211.619 40.072 211.619 40.228C211.619 40.3667 211.562 40.4837 211.45 40.579C211.346 40.6744 211.211 40.722 211.047 40.722C210.795 40.722 210.626 40.631 210.54 40.449C210.453 40.267 210.41 40.0114 210.41 39.682C210.41 39.2054 210.566 38.7677 210.878 38.369C211.034 38.1697 211.207 37.992 211.398 37.836C211.588 37.68 211.801 37.563 212.035 37.485C212.399 37.355 212.784 37.29 213.192 37.29C213.954 37.29 214.565 37.498 215.025 37.914C215.51 38.3474 215.753 38.9454 215.753 39.708C215.753 39.994 215.705 40.28 215.61 40.566C215.523 40.852 215.38 41.1337 215.181 41.411C214.973 41.7144 214.73 42.0177 214.453 42.321C214.175 42.6244 213.872 42.9277 213.543 43.231C213.378 43.3784 213.187 43.543 212.971 43.725C212.754 43.907 212.507 44.128 212.23 44.388C211.796 44.7954 211.441 45.285 211.164 45.857H213.907C214.34 45.857 214.682 45.753 214.934 45.545C215.176 45.363 215.436 44.9384 215.714 44.271L216.052 44.362Z" fill="#555555"/>
<path d="M208.809 83.676H204.61V83.247C205.242 83.247 205.689 83.1907 205.949 83.078C206.191 82.974 206.313 82.792 206.313 82.532V76.032C206.313 75.8327 206.261 75.6984 206.157 75.629C206.061 75.551 205.888 75.512 205.637 75.512H204.571V75.096C204.848 75.07 205.104 75.031 205.338 74.979C205.58 74.9184 205.801 74.849 206.001 74.771C206.304 74.6584 206.685 74.4634 207.145 74.186V82.532C207.145 82.6967 207.188 82.831 207.275 82.935C207.37 83.0304 207.543 83.104 207.795 83.156C207.916 83.182 208.059 83.2037 208.224 83.221C208.397 83.2384 208.592 83.247 208.809 83.247V83.676Z" fill="#555555"/>
<path d="M211.294 81.856C211.684 81.856 211.879 82.077 211.879 82.519C211.879 82.805 211.957 83.0044 212.113 83.117C212.312 83.3077 212.598 83.403 212.971 83.403C213.222 83.403 213.486 83.312 213.764 83.13C214.102 82.9307 214.366 82.6144 214.557 82.181C214.652 81.9557 214.739 81.6957 214.817 81.401C214.903 81.1064 214.981 80.764 215.051 80.374C215.085 80.14 215.124 79.7284 215.168 79.139C215.072 79.3037 214.947 79.4554 214.791 79.594C214.643 79.724 214.479 79.841 214.297 79.945C213.837 80.205 213.348 80.335 212.828 80.335C212.178 80.335 211.627 80.0837 211.177 79.581C210.7 79.0524 210.462 78.3114 210.462 77.358C210.462 76.5087 210.696 75.7894 211.164 75.2C211.692 74.5414 212.39 74.212 213.257 74.212C214.054 74.212 214.682 74.498 215.142 75.07C215.315 75.278 215.458 75.499 215.571 75.733C215.692 75.9584 215.792 76.214 215.87 76.5C215.93 76.7687 215.978 77.0764 216.013 77.423C216.047 77.761 216.069 78.151 216.078 78.593V78.736C216.086 78.996 216.073 79.2604 216.039 79.529C216.004 79.789 215.956 80.0577 215.896 80.335C215.809 80.777 215.709 81.167 215.597 81.505C215.484 81.843 215.358 82.1377 215.22 82.389C214.639 83.3857 213.798 83.884 212.698 83.884C212.334 83.884 212.013 83.832 211.736 83.728C211.458 83.624 211.233 83.494 211.06 83.338C210.817 83.0954 210.696 82.818 210.696 82.506C210.696 82.0727 210.895 81.856 211.294 81.856ZM215.142 78.294V78.021C215.142 77.787 215.133 77.566 215.116 77.358C215.098 77.1414 215.072 76.9334 215.038 76.734C214.96 76.2747 214.825 75.8934 214.635 75.59C214.479 75.3127 214.292 75.096 214.076 74.94C213.859 74.784 213.586 74.706 213.257 74.706C212.953 74.706 212.693 74.7667 212.477 74.888C212.26 75.0094 212.069 75.187 211.905 75.421C211.558 75.9064 211.385 76.565 211.385 77.397C211.385 78.1164 211.528 78.6884 211.814 79.113C212.108 79.555 212.524 79.776 213.062 79.776C213.486 79.776 213.902 79.633 214.31 79.347C214.726 79.0524 215.003 78.7014 215.142 78.294Z" fill="#555555"/>
<path d="M209.348 118.362C209.244 118.752 209.14 119.142 209.036 119.532C208.941 119.922 208.841 120.312 208.737 120.702H203.68C203.68 120.659 203.676 120.624 203.667 120.598C203.667 120.572 203.667 120.542 203.667 120.507C203.667 120.022 203.966 119.398 204.564 118.635C204.746 118.41 204.92 118.202 205.084 118.011C205.258 117.812 205.431 117.621 205.604 117.439C205.786 117.257 205.973 117.075 206.163 116.893C206.354 116.711 206.566 116.516 206.8 116.308C206.991 116.135 207.169 115.94 207.333 115.723C207.498 115.506 207.641 115.281 207.762 115.047C207.884 114.804 207.979 114.562 208.048 114.319C208.126 114.068 208.165 113.829 208.165 113.604C208.165 113.353 208.135 113.123 208.074 112.915C208.014 112.698 207.91 112.512 207.762 112.356C207.589 112.165 207.394 112.022 207.177 111.927C206.961 111.823 206.701 111.771 206.397 111.771C205.947 111.771 205.535 111.905 205.162 112.174C204.972 112.313 204.82 112.464 204.707 112.629C204.603 112.794 204.551 112.971 204.551 113.162C204.551 113.318 204.612 113.47 204.733 113.617C204.794 113.686 204.837 113.769 204.863 113.864C204.898 113.951 204.915 114.072 204.915 114.228C204.915 114.367 204.859 114.484 204.746 114.579C204.642 114.674 204.508 114.722 204.343 114.722C204.092 114.722 203.923 114.631 203.836 114.449C203.75 114.267 203.706 114.011 203.706 113.682C203.706 113.205 203.862 112.768 204.174 112.369C204.33 112.17 204.504 111.992 204.694 111.836C204.885 111.68 205.097 111.563 205.331 111.485C205.695 111.355 206.081 111.29 206.488 111.29C207.251 111.29 207.862 111.498 208.321 111.914C208.807 112.347 209.049 112.945 209.049 113.708C209.049 113.994 209.002 114.28 208.906 114.566C208.82 114.852 208.677 115.134 208.477 115.411C208.269 115.714 208.027 116.018 207.749 116.321C207.472 116.624 207.169 116.928 206.839 117.231C206.675 117.378 206.484 117.543 206.267 117.725C206.051 117.907 205.804 118.128 205.526 118.388C205.093 118.795 204.738 119.285 204.46 119.857H207.203C207.637 119.857 207.979 119.753 208.23 119.545C208.473 119.363 208.733 118.938 209.01 118.271L209.348 118.362Z" fill="#555555"/>
<path d="M216.344 117.829C216.344 118.782 216.054 119.549 215.473 120.13C214.988 120.65 214.359 120.91 213.588 120.91C213.111 120.91 212.674 120.802 212.275 120.585C211.885 120.377 211.582 120.065 211.365 119.649C211.122 119.181 210.953 118.687 210.858 118.167C210.763 117.638 210.715 117.097 210.715 116.542C210.715 115.857 210.793 115.177 210.949 114.501C211.105 113.799 211.326 113.201 211.612 112.707C212.227 111.702 213.055 111.199 214.095 111.199C214.658 111.199 215.144 111.342 215.551 111.628C215.95 111.897 216.149 112.213 216.149 112.577C216.149 113.054 215.958 113.292 215.577 113.292C215.187 113.292 214.992 113.11 214.992 112.746C214.992 112.711 214.992 112.672 214.992 112.629C214.992 112.586 214.996 112.529 215.005 112.46C215.014 112.365 215.014 112.3 215.005 112.265C214.996 112.222 214.983 112.183 214.966 112.148C214.801 111.853 214.468 111.706 213.965 111.706C213.315 111.706 212.76 112.131 212.301 112.98C212.18 113.197 212.076 113.448 211.989 113.734C211.911 114.02 211.837 114.345 211.768 114.709C211.681 115.108 211.638 115.524 211.638 115.957C211.846 115.688 212.115 115.45 212.444 115.242C212.912 114.956 213.415 114.813 213.952 114.813C214.689 114.813 215.265 115.06 215.681 115.554C216.123 116.074 216.344 116.832 216.344 117.829ZM215.46 117.712C215.46 116.897 215.304 116.299 214.992 115.918C214.645 115.519 214.221 115.32 213.718 115.32C213.493 115.32 213.259 115.376 213.016 115.489C212.782 115.602 212.574 115.732 212.392 115.879C212.028 116.191 211.777 116.551 211.638 116.958V117.075C211.638 118.072 211.781 118.856 212.067 119.428C212.223 119.74 212.422 119.987 212.665 120.169C212.908 120.36 213.211 120.455 213.575 120.455C214.216 120.455 214.684 120.217 214.979 119.74C215.3 119.263 215.46 118.587 215.46 117.712Z" fill="#555555"/>
<path d="M263.853 6.82897C263.853 7.78231 263.562 8.54931 262.982 9.12998C262.496 9.64998 261.868 9.90998 261.097 9.90998C260.62 9.90998 260.182 9.80164 259.784 9.58498C259.394 9.37698 259.09 9.06498 258.874 8.64898C258.631 8.18098 258.462 7.68698 258.367 7.16698C258.271 6.63831 258.224 6.09664 258.224 5.54198C258.224 4.85731 258.302 4.17697 258.458 3.50098C258.614 2.79898 258.835 2.20097 259.121 1.70697C259.736 0.701641 260.564 0.198975 261.604 0.198975C262.167 0.198975 262.652 0.341975 263.06 0.627975C263.458 0.896641 263.658 1.21297 263.658 1.57697C263.658 2.05364 263.467 2.29198 263.086 2.29198C262.696 2.29198 262.501 2.10997 262.501 1.74598C262.501 1.71131 262.501 1.67231 262.501 1.62897C262.501 1.58564 262.505 1.52931 262.514 1.45997C262.522 1.36464 262.522 1.29964 262.514 1.26497C262.505 1.22164 262.492 1.18264 262.475 1.14797C262.31 0.853308 261.976 0.705975 261.474 0.705975C260.824 0.705975 260.269 1.13064 259.81 1.97997C259.688 2.19664 259.584 2.44797 259.498 2.73397C259.42 3.01997 259.346 3.34498 259.277 3.70898C259.19 4.10764 259.147 4.52364 259.147 4.95697C259.355 4.68831 259.623 4.44997 259.953 4.24197C260.421 3.95597 260.923 3.81297 261.461 3.81297C262.197 3.81297 262.774 4.05997 263.19 4.55398C263.632 5.07398 263.853 5.83231 263.853 6.82897ZM262.969 6.71198C262.969 5.89731 262.813 5.29931 262.501 4.91797C262.154 4.51931 261.729 4.31997 261.227 4.31997C261.001 4.31997 260.767 4.37631 260.525 4.48898C260.291 4.60164 260.083 4.73164 259.901 4.87898C259.537 5.19098 259.285 5.55064 259.147 5.95798V6.07498C259.147 7.07164 259.29 7.85597 259.576 8.42797C259.732 8.73997 259.931 8.98697 260.174 9.16897C260.416 9.35964 260.72 9.45498 261.084 9.45498C261.725 9.45498 262.193 9.21664 262.488 8.73997C262.808 8.26331 262.969 7.58731 262.969 6.71198Z" fill="#555555"/>
<path d="M259.309 46.676H255.11V46.247C255.742 46.247 256.189 46.1907 256.449 46.078C256.691 45.974 256.813 45.792 256.813 45.532V39.032C256.813 38.8327 256.761 38.6984 256.657 38.629C256.561 38.551 256.388 38.512 256.137 38.512H255.071V38.096C255.348 38.07 255.604 38.031 255.838 37.979C256.08 37.9184 256.301 37.849 256.501 37.771C256.804 37.6584 257.185 37.4634 257.645 37.186V45.532C257.645 45.6967 257.688 45.831 257.775 45.935C257.87 46.0304 258.043 46.104 258.295 46.156C258.416 46.182 258.559 46.2037 258.724 46.221C258.897 46.2384 259.092 46.247 259.309 46.247V46.676Z" fill="#555555"/>
<path d="M266.539 44.076C266.539 44.8474 266.296 45.4887 265.811 46C265.239 46.598 264.48 46.897 263.536 46.897C263.12 46.897 262.751 46.8407 262.431 46.728C262.119 46.6154 261.837 46.4594 261.586 46.26C261.36 46.0694 261.187 45.8484 261.066 45.597C260.944 45.337 260.884 45.064 260.884 44.778C260.884 44.518 260.975 44.3144 261.157 44.167C261.243 44.089 261.365 44.05 261.521 44.05C261.902 44.05 262.093 44.258 262.093 44.674C262.093 44.7347 262.08 44.8127 262.054 44.908C262.036 44.9947 262.028 45.064 262.028 45.116C262.028 45.246 262.041 45.389 262.067 45.545C262.093 45.6924 262.14 45.805 262.21 45.883C262.556 46.2297 262.998 46.403 263.536 46.403C263.796 46.403 264.073 46.338 264.368 46.208C264.662 46.078 264.896 45.9134 265.07 45.714C265.442 45.2894 265.629 44.7304 265.629 44.037C265.629 43.4997 265.412 43.0274 264.979 42.62C264.736 42.3947 264.48 42.2344 264.212 42.139C263.943 42.035 263.614 41.983 263.224 41.983C263.189 41.983 263.15 41.9874 263.107 41.996C263.072 41.996 263.033 42.0004 262.99 42.009C262.946 42.0177 262.912 42.0264 262.886 42.035C262.86 42.035 262.838 42.035 262.821 42.035C262.708 42.035 262.63 41.9744 262.587 41.853C262.569 41.801 262.556 41.7577 262.548 41.723C262.548 41.6797 262.548 41.6364 262.548 41.593C262.548 41.463 262.608 41.3894 262.73 41.372C262.773 41.3634 262.812 41.3634 262.847 41.372C262.881 41.372 262.925 41.3764 262.977 41.385C263.029 41.3937 263.072 41.4024 263.107 41.411C263.15 41.411 263.189 41.411 263.224 41.411C263.388 41.411 263.557 41.3894 263.731 41.346C263.913 41.294 264.086 41.2334 264.251 41.164C264.493 41.0514 264.675 40.9344 264.797 40.813C265.195 40.475 265.395 40.033 265.395 39.487C265.395 38.9497 265.256 38.5294 264.979 38.226C264.831 38.07 264.649 37.94 264.433 37.836C264.225 37.7234 264.004 37.6627 263.77 37.654H263.549C263.514 37.654 263.479 37.654 263.445 37.654C263.41 37.654 263.375 37.6584 263.341 37.667C262.951 37.7017 262.647 37.8274 262.431 38.044C262.301 38.174 262.236 38.317 262.236 38.473C262.236 38.5424 262.249 38.616 262.275 38.694C262.301 38.7634 262.318 38.837 262.327 38.915C262.344 38.993 262.353 39.058 262.353 39.11C262.353 39.318 262.305 39.4827 262.21 39.604C262.123 39.7167 261.984 39.773 261.794 39.773L261.781 39.76C261.399 39.734 261.209 39.5 261.209 39.058C261.209 38.564 261.43 38.1394 261.872 37.784C262.314 37.4374 262.829 37.2424 263.419 37.199C263.462 37.1904 263.518 37.186 263.588 37.186H263.77C264.524 37.1947 265.135 37.407 265.603 37.823C266.053 38.239 266.279 38.7937 266.279 39.487C266.279 40.059 266.084 40.553 265.694 40.969C265.408 41.281 265.044 41.5237 264.602 41.697C265.165 41.8704 265.603 42.139 265.915 42.503C266.331 42.971 266.539 43.4954 266.539 44.076Z" fill="#555555"/>
<path d="M259.848 81.362C259.744 81.752 259.64 82.142 259.536 82.532C259.441 82.922 259.341 83.312 259.237 83.702H254.18C254.18 83.6587 254.176 83.624 254.167 83.598C254.167 83.572 254.167 83.5417 254.167 83.507C254.167 83.0217 254.466 82.3977 255.064 81.635C255.246 81.4097 255.42 81.2017 255.584 81.011C255.758 80.8117 255.931 80.621 256.104 80.439C256.286 80.257 256.473 80.075 256.663 79.893C256.854 79.711 257.066 79.516 257.3 79.308C257.491 79.1347 257.669 78.9397 257.833 78.723C257.998 78.5064 258.141 78.281 258.262 78.047C258.384 77.8044 258.479 77.5617 258.548 77.319C258.626 77.0677 258.665 76.8294 258.665 76.604C258.665 76.3527 258.635 76.123 258.574 75.915C258.514 75.6984 258.41 75.512 258.262 75.356C258.089 75.1654 257.894 75.0224 257.677 74.927C257.461 74.823 257.201 74.771 256.897 74.771C256.447 74.771 256.035 74.9054 255.662 75.174C255.472 75.3127 255.32 75.4644 255.207 75.629C255.103 75.7937 255.051 75.9714 255.051 76.162C255.051 76.318 255.112 76.4697 255.233 76.617C255.294 76.6864 255.337 76.7687 255.363 76.864C255.398 76.9507 255.415 77.072 255.415 77.228C255.415 77.3667 255.359 77.4837 255.246 77.579C255.142 77.6744 255.008 77.722 254.843 77.722C254.592 77.722 254.423 77.631 254.336 77.449C254.25 77.267 254.206 77.0114 254.206 76.682C254.206 76.2054 254.362 75.7677 254.674 75.369C254.83 75.1697 255.004 74.992 255.194 74.836C255.385 74.68 255.597 74.563 255.831 74.485C256.195 74.355 256.581 74.29 256.988 74.29C257.751 74.29 258.362 74.498 258.821 74.914C259.307 75.3474 259.549 75.9454 259.549 76.708C259.549 76.994 259.502 77.28 259.406 77.566C259.32 77.852 259.177 78.1337 258.977 78.411C258.769 78.7144 258.527 79.0177 258.249 79.321C257.972 79.6244 257.669 79.9277 257.339 80.231C257.175 80.3784 256.984 80.543 256.767 80.725C256.551 80.907 256.304 81.128 256.026 81.388C255.593 81.7954 255.238 82.285 254.96 82.857H257.703C258.137 82.857 258.479 82.753 258.73 82.545C258.973 82.363 259.233 81.9384 259.51 81.271L259.848 81.362Z" fill="#555555"/>
<path d="M267.013 79.035C267.013 80.4217 266.757 81.5527 266.246 82.428C265.7 83.3727 264.955 83.845 264.01 83.845C263.065 83.845 262.32 83.3727 261.774 82.428C261.263 81.5527 261.007 80.4217 261.007 79.035C261.007 77.6484 261.263 76.5174 261.774 75.642C262.32 74.706 263.065 74.238 264.01 74.238C264.955 74.238 265.7 74.706 266.246 75.642C266.757 76.5174 267.013 77.6484 267.013 79.035ZM266.116 79.035C266.116 77.8477 265.956 76.8684 265.635 76.097C265.262 75.1784 264.721 74.719 264.01 74.719C263.299 74.719 262.762 75.1784 262.398 76.097C262.069 76.9117 261.904 77.891 261.904 79.035C261.904 80.179 262.069 81.1584 262.398 81.973C262.762 82.8917 263.299 83.351 264.01 83.351C264.721 83.351 265.262 82.8917 265.635 81.973C265.956 81.2017 266.116 80.2224 266.116 79.035Z" fill="#555555"/>
<path d="M259.848 118.362C259.744 118.752 259.64 119.142 259.536 119.532C259.441 119.922 259.341 120.312 259.237 120.702H254.18C254.18 120.659 254.176 120.624 254.167 120.598C254.167 120.572 254.167 120.542 254.167 120.507C254.167 120.022 254.466 119.398 255.064 118.635C255.246 118.41 255.42 118.202 255.584 118.011C255.758 117.812 255.931 117.621 256.104 117.439C256.286 117.257 256.473 117.075 256.663 116.893C256.854 116.711 257.066 116.516 257.3 116.308C257.491 116.135 257.669 115.94 257.833 115.723C257.998 115.506 258.141 115.281 258.262 115.047C258.384 114.804 258.479 114.562 258.548 114.319C258.626 114.068 258.665 113.829 258.665 113.604C258.665 113.353 258.635 113.123 258.574 112.915C258.514 112.698 258.41 112.512 258.262 112.356C258.089 112.165 257.894 112.022 257.677 111.927C257.461 111.823 257.201 111.771 256.897 111.771C256.447 111.771 256.035 111.905 255.662 112.174C255.472 112.313 255.32 112.464 255.207 112.629C255.103 112.794 255.051 112.971 255.051 113.162C255.051 113.318 255.112 113.47 255.233 113.617C255.294 113.686 255.337 113.769 255.363 113.864C255.398 113.951 255.415 114.072 255.415 114.228C255.415 114.367 255.359 114.484 255.246 114.579C255.142 114.674 255.008 114.722 254.843 114.722C254.592 114.722 254.423 114.631 254.336 114.449C254.25 114.267 254.206 114.011 254.206 113.682C254.206 113.205 254.362 112.768 254.674 112.369C254.83 112.17 255.004 111.992 255.194 111.836C255.385 111.68 255.597 111.563 255.831 111.485C256.195 111.355 256.581 111.29 256.988 111.29C257.751 111.29 258.362 111.498 258.821 111.914C259.307 112.347 259.549 112.945 259.549 113.708C259.549 113.994 259.502 114.28 259.406 114.566C259.32 114.852 259.177 115.134 258.977 115.411C258.769 115.714 258.527 116.018 258.249 116.321C257.972 116.624 257.669 116.928 257.339 117.231C257.175 117.378 256.984 117.543 256.767 117.725C256.551 117.907 256.304 118.128 256.026 118.388C255.593 118.795 255.238 119.285 254.96 119.857H257.703C258.137 119.857 258.479 119.753 258.73 119.545C258.973 119.363 259.233 118.938 259.51 118.271L259.848 118.362Z" fill="#555555"/>
<path d="M263.763 116.763C263.884 116.451 264.101 115.987 264.413 115.372C264.734 114.748 265.154 113.977 265.674 113.058C265.752 112.928 265.826 112.798 265.895 112.668C265.973 112.529 266.051 112.391 266.129 112.252H263.633C263.477 112.252 263.334 112.256 263.204 112.265C263.074 112.265 262.948 112.278 262.827 112.304C262.714 112.33 262.597 112.378 262.476 112.447C262.355 112.516 262.225 112.616 262.086 112.746C261.869 112.963 261.666 113.392 261.475 114.033C261.432 114.016 261.384 114.003 261.332 113.994C261.28 113.977 261.228 113.959 261.176 113.942C261.271 113.526 261.367 113.11 261.462 112.694C261.557 112.269 261.653 111.845 261.748 111.42H266.922V111.966C266.887 112.027 266.857 112.087 266.831 112.148C266.805 112.2 266.775 112.256 266.74 112.317C266.593 112.56 266.454 112.794 266.324 113.019C266.194 113.244 266.068 113.47 265.947 113.695C265.47 114.475 265.106 115.207 264.855 115.892C264.734 116.195 264.625 116.52 264.53 116.867C264.435 117.205 264.352 117.56 264.283 117.933C264.214 118.262 264.157 118.57 264.114 118.856C264.079 119.133 264.062 119.398 264.062 119.649V119.922C264.053 120.243 264.01 120.481 263.932 120.637C263.854 120.793 263.702 120.871 263.477 120.871C263.286 120.871 263.152 120.793 263.074 120.637C262.996 120.498 262.957 120.303 262.957 120.052V119.948C262.974 119.523 263.048 119.047 263.178 118.518C263.317 117.989 263.512 117.404 263.763 116.763Z" fill="#555555"/>
<path d="M311.272 5.76304C311.393 5.45104 311.61 4.98738 311.922 4.37204C312.242 3.74804 312.663 2.97671 313.183 2.05804C313.261 1.92804 313.334 1.79804 313.404 1.66804C313.482 1.52938 313.56 1.39071 313.638 1.25204H311.142C310.986 1.25204 310.843 1.25638 310.713 1.26504C310.583 1.26504 310.457 1.27804 310.336 1.30404C310.223 1.33004 310.106 1.37771 309.985 1.44704C309.863 1.51638 309.733 1.61604 309.595 1.74604C309.378 1.96271 309.174 2.39171 308.984 3.03304C308.94 3.01571 308.893 3.00271 308.841 2.99404C308.789 2.97671 308.737 2.95938 308.685 2.94204C308.78 2.52604 308.875 2.11004 308.971 1.69404C309.066 1.26938 309.161 0.844711 309.257 0.420044H314.431V0.966044C314.396 1.02671 314.366 1.08738 314.34 1.14804C314.314 1.20004 314.283 1.25638 314.249 1.31704C314.101 1.55971 313.963 1.79371 313.833 2.01904C313.703 2.24438 313.577 2.46971 313.456 2.69504C312.979 3.47504 312.615 4.20738 312.364 4.89204C312.242 5.19538 312.134 5.52038 312.039 5.86704C311.943 6.20504 311.861 6.56038 311.792 6.93304C311.722 7.26238 311.666 7.57004 311.623 7.85604C311.588 8.13338 311.571 8.39771 311.571 8.64904V8.92204C311.562 9.24271 311.519 9.48104 311.441 9.63704C311.363 9.79304 311.211 9.87104 310.986 9.87104C310.795 9.87104 310.661 9.79304 310.583 9.63704C310.505 9.49838 310.466 9.30338 310.466 9.05204V8.94804C310.483 8.52338 310.557 8.04671 310.687 7.51804C310.825 6.98938 311.02 6.40438 311.272 5.76304Z" fill="#555555"/>
<path d="M309.809 46.676H305.61V46.247C306.242 46.247 306.689 46.1907 306.949 46.078C307.191 45.974 307.313 45.792 307.313 45.532V39.032C307.313 38.8327 307.261 38.6984 307.157 38.629C307.061 38.551 306.888 38.512 306.637 38.512H305.571V38.096C305.848 38.07 306.104 38.031 306.338 37.979C306.58 37.9184 306.801 37.849 307.001 37.771C307.304 37.6584 307.685 37.4634 308.145 37.186V45.532C308.145 45.6967 308.188 45.831 308.275 45.935C308.37 46.0304 308.543 46.104 308.795 46.156C308.916 46.182 309.059 46.2037 309.224 46.221C309.397 46.2384 309.592 46.247 309.809 46.247V46.676Z" fill="#555555"/>
<path d="M317.416 44.349H315.752V45.896C315.752 46.0954 315.834 46.2254 315.999 46.286C316.163 46.3554 316.475 46.39 316.935 46.39V46.819H313.685V46.403C314.179 46.403 314.517 46.364 314.699 46.286C314.846 46.2167 314.92 46.0867 314.92 45.896V44.375H311.241V43.868C311.917 42.724 312.588 41.593 313.256 40.475C313.932 39.3484 314.608 38.2087 315.284 37.056H315.752V43.842H317.416V44.349ZM314.92 43.842V38.811C314.4 39.6517 313.888 40.4924 313.386 41.333C312.892 42.165 312.385 43.0014 311.865 43.842H314.92Z" fill="#555555"/>
<path d="M310.628 81.362C310.524 81.752 310.42 82.142 310.316 82.532C310.22 82.922 310.121 83.312 310.017 83.702H304.96C304.96 83.6587 304.955 83.624 304.947 83.598C304.947 83.572 304.947 83.5417 304.947 83.507C304.947 83.0217 305.246 82.3977 305.844 81.635C306.026 81.4097 306.199 81.2017 306.364 81.011C306.537 80.8117 306.71 80.621 306.884 80.439C307.066 80.257 307.252 80.075 307.443 79.893C307.633 79.711 307.846 79.516 308.08 79.308C308.27 79.1347 308.448 78.9397 308.613 78.723C308.777 78.5064 308.92 78.281 309.042 78.047C309.163 77.8044 309.258 77.5617 309.328 77.319C309.406 77.0677 309.445 76.8294 309.445 76.604C309.445 76.3527 309.414 76.123 309.354 75.915C309.293 75.6984 309.189 75.512 309.042 75.356C308.868 75.1654 308.673 75.0224 308.457 74.927C308.24 74.823 307.98 74.771 307.677 74.771C307.226 74.771 306.814 74.9054 306.442 75.174C306.251 75.3127 306.099 75.4644 305.987 75.629C305.883 75.7937 305.831 75.9714 305.831 76.162C305.831 76.318 305.891 76.4697 306.013 76.617C306.073 76.6864 306.117 76.7687 306.143 76.864C306.177 76.9507 306.195 77.072 306.195 77.228C306.195 77.3667 306.138 77.4837 306.026 77.579C305.922 77.6744 305.787 77.722 305.623 77.722C305.371 77.722 305.202 77.631 305.116 77.449C305.029 77.267 304.986 77.0114 304.986 76.682C304.986 76.2054 305.142 75.7677 305.454 75.369C305.61 75.1697 305.783 74.992 305.974 74.836C306.164 74.68 306.377 74.563 306.611 74.485C306.975 74.355 307.36 74.29 307.768 74.29C308.53 74.29 309.141 74.498 309.601 74.914C310.086 75.3474 310.329 75.9454 310.329 76.708C310.329 76.994 310.281 77.28 310.186 77.566C310.099 77.852 309.956 78.1337 309.757 78.411C309.549 78.7144 309.306 79.0177 309.029 79.321C308.751 79.6244 308.448 79.9277 308.119 80.231C307.954 80.3784 307.763 80.543 307.547 80.725C307.33 80.907 307.083 81.128 306.806 81.388C306.372 81.7954 306.017 82.285 305.74 82.857H308.483C308.916 82.857 309.258 82.753 309.51 82.545C309.752 82.363 310.012 81.9384 310.29 81.271L310.628 81.362Z" fill="#555555"/>
<path d="M316.791 83.676H312.592V83.247C313.225 83.247 313.671 83.1907 313.931 83.078C314.174 82.974 314.295 82.792 314.295 82.532V76.032C314.295 75.8327 314.243 75.6984 314.139 75.629C314.044 75.551 313.871 75.512 313.619 75.512H312.553V75.096C312.831 75.07 313.086 75.031 313.32 74.979C313.563 74.9184 313.784 74.849 313.983 74.771C314.287 74.6584 314.668 74.4634 315.127 74.186V82.532C315.127 82.6967 315.171 82.831 315.257 82.935C315.353 83.0304 315.526 83.104 315.777 83.156C315.899 83.182 316.042 83.2037 316.206 83.221C316.38 83.2384 316.575 83.247 316.791 83.247V83.676Z" fill="#555555"/>
<path d="M310.348 118.362C310.244 118.752 310.14 119.142 310.036 119.532C309.941 119.922 309.841 120.312 309.737 120.702H304.68C304.68 120.659 304.676 120.624 304.667 120.598C304.667 120.572 304.667 120.542 304.667 120.507C304.667 120.022 304.966 119.398 305.564 118.635C305.746 118.41 305.92 118.202 306.084 118.011C306.258 117.812 306.431 117.621 306.604 117.439C306.786 117.257 306.973 117.075 307.163 116.893C307.354 116.711 307.566 116.516 307.8 116.308C307.991 116.135 308.169 115.94 308.333 115.723C308.498 115.506 308.641 115.281 308.762 115.047C308.884 114.804 308.979 114.562 309.048 114.319C309.126 114.068 309.165 113.829 309.165 113.604C309.165 113.353 309.135 113.123 309.074 112.915C309.014 112.698 308.91 112.512 308.762 112.356C308.589 112.165 308.394 112.022 308.177 111.927C307.961 111.823 307.701 111.771 307.397 111.771C306.947 111.771 306.535 111.905 306.162 112.174C305.972 112.313 305.82 112.464 305.707 112.629C305.603 112.794 305.551 112.971 305.551 113.162C305.551 113.318 305.612 113.47 305.733 113.617C305.794 113.686 305.837 113.769 305.863 113.864C305.898 113.951 305.915 114.072 305.915 114.228C305.915 114.367 305.859 114.484 305.746 114.579C305.642 114.674 305.508 114.722 305.343 114.722C305.092 114.722 304.923 114.631 304.836 114.449C304.75 114.267 304.706 114.011 304.706 113.682C304.706 113.205 304.862 112.768 305.174 112.369C305.33 112.17 305.504 111.992 305.694 111.836C305.885 111.68 306.097 111.563 306.331 111.485C306.695 111.355 307.081 111.29 307.488 111.29C308.251 111.29 308.862 111.498 309.321 111.914C309.807 112.347 310.049 112.945 310.049 113.708C310.049 113.994 310.002 114.28 309.906 114.566C309.82 114.852 309.677 115.134 309.477 115.411C309.269 115.714 309.027 116.018 308.749 116.321C308.472 116.624 308.169 116.928 307.839 117.231C307.675 117.378 307.484 117.543 307.267 117.725C307.051 117.907 306.804 118.128 306.526 118.388C306.093 118.795 305.738 119.285 305.46 119.857H308.203C308.637 119.857 308.979 119.753 309.23 119.545C309.473 119.363 309.733 118.938 310.01 118.271L310.348 118.362Z" fill="black"/>
<path d="M314.185 116.178C313.908 116.325 313.661 116.481 313.444 116.646C313.236 116.811 313.054 116.993 312.898 117.192C312.655 117.487 312.534 117.916 312.534 118.479C312.534 119.051 312.716 119.519 313.08 119.883C313.453 120.256 313.925 120.442 314.497 120.442C315.104 120.442 315.611 120.26 316.018 119.896C316.434 119.523 316.642 119.055 316.642 118.492C316.642 118.189 316.568 117.92 316.421 117.686C316.282 117.443 316.083 117.222 315.823 117.023C315.745 116.962 315.641 116.893 315.511 116.815C315.381 116.737 315.242 116.659 315.095 116.581C314.948 116.494 314.792 116.416 314.627 116.347C314.471 116.278 314.324 116.221 314.185 116.178ZM314.575 115.346C315.095 115.077 315.489 114.783 315.758 114.462C316.018 114.141 316.148 113.803 316.148 113.448C316.148 112.911 315.996 112.482 315.693 112.161C315.39 111.823 314.995 111.654 314.51 111.654C313.99 111.654 313.552 111.819 313.197 112.148C312.842 112.486 312.664 112.919 312.664 113.448C312.664 113.873 312.842 114.25 313.197 114.579C313.379 114.787 313.838 115.043 314.575 115.346ZM317.37 118.453C317.37 119.172 317.08 119.766 316.499 120.234C315.936 120.702 315.26 120.936 314.471 120.936C313.613 120.936 312.92 120.702 312.391 120.234C311.897 119.792 311.65 119.207 311.65 118.479C311.65 117.812 311.888 117.227 312.365 116.724C312.642 116.438 313.05 116.156 313.587 115.879C313.128 115.662 312.772 115.402 312.521 115.099C312.166 114.674 311.988 114.133 311.988 113.474C311.988 112.815 312.226 112.274 312.703 111.849C313.18 111.407 313.782 111.186 314.51 111.186C315.377 111.186 316.031 111.472 316.473 112.044C316.75 112.399 316.889 112.863 316.889 113.435C316.889 113.912 316.685 114.38 316.278 114.839C316.053 115.099 315.684 115.368 315.173 115.645C315.78 115.922 316.243 116.217 316.564 116.529C317.101 117.04 317.37 117.682 317.37 118.453Z" fill="black"/>
</svg>
