<svg width="307" height="12" viewBox="0 0 307 12" fill="none" xmlns="http://www.w3.org/2000/svg">
<path d="M0.936 3.302C0.936 3.562 0.983667 3.796 1.079 4.004C1.17433 4.20333 1.30433 4.37667 1.469 4.524C1.64233 4.66267 1.84167 4.771 2.067 4.849C2.29233 4.927 2.53933 4.966 2.808 4.966C3.07667 4.966 3.32367 4.927 3.549 4.849C3.783 4.771 3.98233 4.66267 4.147 4.524C4.32033 4.37667 4.45467 4.20333 4.55 4.004C4.64533 3.796 4.693 3.562 4.693 3.302C4.693 3.042 4.64533 2.808 4.55 2.6C4.45467 2.392 4.32033 2.21433 4.147 2.067C3.98233 1.91967 3.783 1.807 3.549 1.729C3.32367 1.651 3.07667 1.612 2.808 1.612C2.53933 1.612 2.29233 1.651 2.067 1.729C1.84167 1.807 1.64233 1.91967 1.469 2.067C1.30433 2.21433 1.17433 2.392 1.079 2.6C0.983667 2.808 0.936 3.042 0.936 3.302ZM0 3.302C0 2.99 0.065 2.69533 0.195 2.418C0.325 2.132 0.511333 1.885 0.754 1.677C0.996667 1.469 1.29133 1.30433 1.638 1.183C1.98467 1.06167 2.37033 1.001 2.795 1.001C3.211 1.001 3.59233 1.06167 3.939 1.183C4.28567 1.30433 4.58033 1.469 4.823 1.677C5.06567 1.885 5.252 2.132 5.382 2.418C5.52067 2.69533 5.59 2.99 5.59 3.302C5.59 3.614 5.52067 3.913 5.382 4.199C5.252 4.485 5.06567 4.73633 4.823 4.953C4.58033 5.16967 4.28567 5.343 3.939 5.473C3.59233 5.603 3.211 5.668 2.795 5.668C2.37033 5.668 1.98467 5.603 1.638 5.473C1.29133 5.343 0.996667 5.16967 0.754 4.953C0.511333 4.73633 0.325 4.485 0.195 4.199C0.065 3.913 0 3.614 0 3.302ZM8.879 0.988V4.108C8.879 4.24667 8.87467 4.433 8.866 4.667C8.866 4.901 8.84867 5.13067 8.814 5.356C8.77933 5.58133 8.723 5.77633 8.645 5.941C8.57567 6.10567 8.47167 6.188 8.333 6.188C8.13367 6.188 8.034 5.81967 8.034 5.083V1.235C8.034 1.079 7.95167 0.936 7.787 0.806C7.631 0.676 7.39267 0.550333 7.072 0.429C7.00267 0.394333 6.942 0.364 6.89 0.338C6.84667 0.303333 6.825 0.264333 6.825 0.221C6.825 0.177666 6.85533 0.13 6.916 0.0779998C6.98533 0.026 7.085 0 7.215 0C7.27567 0 7.38833 0.00866667 7.553 0.0259998C7.71767 0.0433329 7.891 0.0693329 8.073 0.104C8.26367 0.13 8.44133 0.160333 8.606 0.195C8.77067 0.229667 8.879 0.26 8.931 0.286L8.879 0.988ZM8.567 8.671C8.73167 8.70567 8.84433 8.749 8.905 8.801C8.96567 8.853 8.996 8.918 8.996 8.996C8.996 9.19533 8.84 9.29933 8.528 9.308L4.407 9.399V10.738C4.407 10.9547 4.51967 11.063 4.745 11.063L7.345 11.05C7.58767 11.05 7.79133 11.0153 7.956 10.946C8.12933 10.8767 8.255 10.8073 8.333 10.738C8.55833 10.738 8.77067 10.7467 8.97 10.764C9.16933 10.79 9.34267 10.8203 9.49 10.855C9.71533 10.9243 9.828 11.0457 9.828 11.219C9.828 11.4357 9.672 11.544 9.36 11.544L4.55 11.557C3.874 11.557 3.536 11.2233 3.536 10.556V9.568C3.41467 9.36867 3.17633 9.22567 2.821 9.139C2.65633 9.10433 2.574 9.04367 2.574 8.957C2.574 8.89633 2.60433 8.84433 2.665 8.801C2.73433 8.75767 2.83833 8.736 2.977 8.736C3.289 8.736 3.54033 8.74467 3.731 8.762C3.93033 8.77933 4.13833 8.83567 4.355 8.931C4.90967 8.91367 5.473 8.90067 6.045 8.892C6.62567 8.87467 7.189 8.85733 7.735 8.84C7.787 8.84 7.83467 8.814 7.878 8.762V7.202C7.71333 7.202 7.50533 7.20633 7.254 7.215C7.01133 7.215 6.75567 7.21933 6.487 7.228C6.227 7.23667 5.97133 7.24967 5.72 7.267C5.46867 7.27567 5.26067 7.28867 5.096 7.306C4.89667 7.32333 4.71467 7.36233 4.55 7.423C4.38533 7.475 4.225 7.54433 4.069 7.631C3.94767 7.605 3.822 7.566 3.692 7.514C3.562 7.45333 3.43633 7.39267 3.315 7.332C3.20233 7.27133 3.09833 7.215 3.003 7.163C2.91633 7.10233 2.85133 7.05467 2.808 7.02C2.756 6.968 2.73 6.91167 2.73 6.851C2.73 6.72967 2.84267 6.69067 3.068 6.734C3.29333 6.76867 3.51 6.79033 3.718 6.799C3.926 6.799 4.12967 6.799 4.329 6.799C4.50233 6.799 4.70167 6.799 4.927 6.799C5.15233 6.799 5.39067 6.799 5.642 6.799C5.902 6.79033 6.162 6.786 6.422 6.786C6.682 6.77733 6.93333 6.76433 7.176 6.747C7.332 6.73833 7.48367 6.71233 7.631 6.669C7.787 6.62567 7.88667 6.58667 7.93 6.552C8.05133 6.54333 8.18133 6.54333 8.32 6.552C8.45867 6.56067 8.57567 6.57367 8.671 6.591C8.827 6.617 8.90933 6.66467 8.918 6.734C8.92667 6.80333 8.92233 6.87267 8.905 6.942C8.88767 7.06333 8.86167 7.17167 8.827 7.267C8.801 7.36233 8.77067 7.48367 8.736 7.631L8.567 8.671Z" fill="black"/>
<path d="M53.1544 11.362C53.6397 11.3793 54.1424 11.3793 54.6624 11.362C55.1824 11.3533 55.659 11.3273 56.0924 11.284C56.231 11.2667 56.3827 11.232 56.5474 11.18C56.7207 11.1367 56.855 11.0673 56.9504 10.972C57.0717 10.9547 57.2364 10.9503 57.4444 10.959C57.661 10.9763 57.83 10.9937 57.9514 11.011C58.0814 11.0283 58.207 11.0673 58.3284 11.128C58.4497 11.1887 58.5104 11.284 58.5104 11.414C58.5104 11.7 58.2894 11.8343 57.8474 11.817C57.622 11.8083 57.3144 11.804 56.9244 11.804C56.5344 11.8127 56.114 11.8213 55.6634 11.83C55.2214 11.8387 54.7707 11.8473 54.3114 11.856C53.852 11.8647 53.4447 11.869 53.0894 11.869C52.7254 11.895 52.4437 11.8213 52.2444 11.648C52.0537 11.4833 51.9584 11.219 51.9584 10.855V10.257C51.8977 10.1097 51.798 10.0057 51.6594 9.945C51.5207 9.87567 51.3777 9.81933 51.2304 9.776C51.031 9.724 50.9357 9.646 50.9444 9.542C50.9617 9.42933 51.07 9.36433 51.2694 9.347C51.3647 9.33833 51.486 9.33833 51.6334 9.347C51.7807 9.35567 51.9324 9.36433 52.0884 9.373C52.253 9.38167 52.4134 9.39467 52.5694 9.412C52.7254 9.42067 52.8597 9.425 52.9724 9.425C53.267 9.43367 53.592 9.438 53.9474 9.438C54.3027 9.42933 54.6494 9.42067 54.9874 9.412C55.3254 9.39467 55.6374 9.38167 55.9234 9.373C56.218 9.35567 56.452 9.33833 56.6254 9.321C56.634 9.23433 56.6427 9.13467 56.6514 9.022C56.66 8.90067 56.6644 8.77933 56.6644 8.658C56.673 8.53667 56.6774 8.41967 56.6774 8.307C56.686 8.19433 56.6904 8.09467 56.6904 8.008C56.4564 7.99933 56.192 7.99933 55.8974 8.008C55.6027 8.008 55.2994 8.01667 54.9874 8.034C54.684 8.04267 54.385 8.06 54.0904 8.086C53.8044 8.10333 53.5444 8.12067 53.3104 8.138C53.0677 8.15533 52.8467 8.19867 52.6474 8.268C52.448 8.32867 52.305 8.38067 52.2184 8.424C52.1317 8.398 52.0277 8.36333 51.9064 8.32C51.7937 8.268 51.681 8.216 51.5684 8.164C51.4557 8.10333 51.3517 8.04267 51.2564 7.982C51.161 7.92133 51.0917 7.86933 51.0484 7.826C50.9877 7.774 50.953 7.72633 50.9444 7.683C50.9357 7.631 50.9444 7.592 50.9704 7.566C50.9964 7.53133 51.031 7.50533 51.0744 7.488C51.1264 7.47067 51.1784 7.46633 51.2304 7.475C51.2997 7.49233 51.408 7.50967 51.5554 7.527C51.7114 7.53567 51.85 7.54433 51.9714 7.553C51.902 7.397 51.8674 7.16733 51.8674 6.864V5.928C51.668 5.94533 51.4774 5.96267 51.2954 5.98C51.1134 5.99733 50.9357 6.01467 50.7624 6.032C50.5804 6.04933 50.4027 6.09267 50.2294 6.162C50.056 6.22267 49.9347 6.28333 49.8654 6.344C49.64 6.292 49.3974 6.201 49.1374 6.071C48.886 5.941 48.665 5.80667 48.4744 5.668C48.4224 5.63333 48.3834 5.59 48.3574 5.538C48.3314 5.486 48.3227 5.43833 48.3314 5.395C48.34 5.35167 48.366 5.317 48.4094 5.291C48.4527 5.265 48.5177 5.25633 48.6044 5.265C48.8817 5.30833 49.1504 5.33433 49.4104 5.343C49.679 5.35167 49.952 5.35167 50.2294 5.343C50.654 5.33433 51.109 5.31267 51.5944 5.278C52.0884 5.23467 52.5824 5.187 53.0764 5.135C53.579 5.07433 54.0774 5.00933 54.5714 4.94C55.0654 4.862 55.5334 4.77967 55.9754 4.693C56.0534 4.667 56.1227 4.67567 56.1834 4.719C56.244 4.75367 56.283 4.80133 56.3004 4.862C56.3177 4.914 56.3047 4.97033 56.2614 5.031C56.218 5.09167 56.14 5.135 56.0274 5.161C55.49 5.28233 54.9397 5.39933 54.3764 5.512C53.8217 5.616 53.2714 5.71133 52.7254 5.798C52.7254 5.91933 52.721 6.06233 52.7124 6.227C52.7124 6.39167 52.7037 6.56067 52.6864 6.734C52.6777 6.89867 52.656 7.059 52.6214 7.215C52.5867 7.36233 52.539 7.48367 52.4784 7.579C52.799 7.58767 53.1457 7.592 53.5184 7.592C53.891 7.58333 54.2507 7.57467 54.5974 7.566C54.9527 7.54867 55.2734 7.53567 55.5594 7.527C55.854 7.50967 56.0794 7.49667 56.2354 7.488C56.4867 7.47067 56.7337 7.45767 56.9764 7.449C57.2277 7.43167 57.401 7.41433 57.4964 7.397C57.6437 7.37967 57.7434 7.397 57.7954 7.449C57.856 7.49233 57.8864 7.54433 57.8864 7.605C57.8864 7.66567 57.8647 7.73933 57.8214 7.826C57.7867 7.904 57.7564 7.99067 57.7304 8.086C57.6784 8.268 57.6177 8.476 57.5484 8.71C57.479 8.944 57.4184 9.13467 57.3664 9.282C57.4357 9.27333 57.5094 9.27333 57.5874 9.282C57.6654 9.282 57.7304 9.295 57.7824 9.321C57.843 9.33833 57.8907 9.373 57.9254 9.425C57.9687 9.46833 57.986 9.529 57.9774 9.607C57.9687 9.72833 57.908 9.80633 57.7954 9.841C57.6914 9.87567 57.557 9.88433 57.3924 9.867C56.413 9.867 55.555 9.87567 54.8184 9.893C54.0817 9.91033 53.4404 9.932 52.8944 9.958C52.8857 10.0013 52.8814 10.0533 52.8814 10.114C52.8814 10.1833 52.8814 10.2223 52.8814 10.231V11.011C52.8814 11.245 52.9724 11.362 53.1544 11.362ZM57.9384 0.416C57.921 0.52 57.8994 0.663 57.8734 0.845C57.856 1.027 57.8474 1.196 57.8474 1.352V4.94C57.8474 5.07 57.843 5.26067 57.8344 5.512C57.8344 5.75467 57.817 5.99733 57.7824 6.24C57.7564 6.48267 57.7087 6.695 57.6394 6.877C57.57 7.05033 57.4704 7.137 57.3404 7.137C57.141 7.137 57.0284 6.90733 57.0024 6.448C56.803 6.46533 56.5864 6.49133 56.3524 6.526C56.127 6.552 55.932 6.58233 55.7674 6.617C55.6114 6.65167 55.477 6.68633 55.3644 6.721C55.2604 6.747 55.165 6.78167 55.0784 6.825C54.8964 6.78167 54.7187 6.71233 54.5454 6.617C54.372 6.513 54.2377 6.41767 54.1424 6.331C54.021 6.227 53.9864 6.136 54.0384 6.058C54.099 5.98 54.1814 5.94967 54.2854 5.967C54.32 5.97567 54.3764 5.98433 54.4544 5.993C54.5324 5.993 54.6147 5.99733 54.7014 6.006C54.7967 6.006 54.8877 6.01033 54.9744 6.019C55.0697 6.019 55.152 6.019 55.2214 6.019C55.49 6.019 55.7804 6.01033 56.0924 5.993C56.4044 5.967 56.7077 5.93233 57.0024 5.889V1.053C56.8637 0.888334 56.6904 0.758334 56.4824 0.663C56.2744 0.559 56.101 0.485334 55.9624 0.442C55.763 0.372667 55.672 0.281667 55.6894 0.169C55.7067 0.0563334 55.815 0 56.0144 0C56.0924 0 56.218 0.00866687 56.3914 0.0260005C56.5734 0.0433336 56.764 0.0693334 56.9634 0.104C57.1627 0.138667 57.349 0.182 57.5224 0.234C57.7044 0.286 57.843 0.346667 57.9384 0.416ZM50.4894 2.626C50.4894 2.184 50.6324 1.82433 50.9184 1.547C51.2044 1.261 51.6074 1.118 52.1274 1.118C52.6474 1.118 53.0504 1.261 53.3364 1.547C53.631 1.82433 53.7784 2.184 53.7784 2.626C53.7784 3.068 53.631 3.42767 53.3364 3.705C53.0504 3.98233 52.6474 4.121 52.1274 4.121C51.6074 4.121 51.2044 3.98233 50.9184 3.705C50.6324 3.42767 50.4894 3.068 50.4894 2.626ZM49.5794 2.626C49.5794 2.912 49.64 3.185 49.7614 3.445C49.8827 3.69633 50.0517 3.91733 50.2684 4.108C50.4937 4.29867 50.758 4.45033 51.0614 4.563C51.3734 4.67567 51.72 4.732 52.1014 4.732C52.4827 4.732 52.8294 4.67567 53.1414 4.563C53.4534 4.45033 53.7177 4.29867 53.9344 4.108C54.1597 3.91733 54.333 3.69633 54.4544 3.445C54.5757 3.185 54.6364 2.912 54.6364 2.626C54.6364 2.34 54.5757 2.07133 54.4544 1.82C54.333 1.56 54.1597 1.33467 53.9344 1.144C53.7177 0.953334 53.4534 0.806 53.1414 0.702C52.8294 0.589333 52.4827 0.533 52.1014 0.533C51.72 0.533 51.3734 0.589333 51.0614 0.702C50.758 0.806 50.4937 0.953334 50.2684 1.144C50.0517 1.33467 49.8827 1.56 49.7614 1.82C49.64 2.07133 49.5794 2.34 49.5794 2.626Z" fill="black"/>
<path d="M98.7263 8.476C98.9776 8.46733 99.2506 8.45433 99.5453 8.437C99.8399 8.41967 100.152 8.39367 100.481 8.359V7.072C100.195 7.03733 99.9309 6.968 99.6883 6.864C99.4456 6.75133 99.2333 6.617 99.0513 6.461C98.8779 6.29633 98.7393 6.11 98.6353 5.902C98.5399 5.68533 98.4923 5.45567 98.4923 5.213C98.4923 4.94433 98.5529 4.693 98.6743 4.459C98.8043 4.225 98.9733 4.02567 99.1813 3.861C99.3979 3.68767 99.6536 3.55333 99.9483 3.458C100.243 3.354 100.559 3.302 100.897 3.302C101.235 3.302 101.547 3.354 101.833 3.458C102.128 3.55333 102.384 3.68767 102.6 3.861C102.826 4.02567 102.999 4.225 103.12 4.459C103.25 4.693 103.315 4.94433 103.315 5.213C103.315 5.45567 103.263 5.681 103.159 5.889C103.064 6.097 102.925 6.28333 102.743 6.448C102.57 6.61267 102.362 6.75133 102.119 6.864C101.877 6.968 101.612 7.03733 101.326 7.072V8.281C101.682 8.24633 102.037 8.20733 102.392 8.164C102.756 8.112 103.107 8.06433 103.445 8.021C103.783 7.969 104.104 7.92133 104.407 7.878C104.711 7.826 104.988 7.77833 105.239 7.735V1.235C105.239 1.079 105.157 0.936 104.992 0.806C104.836 0.676 104.598 0.550333 104.277 0.429C104.208 0.394333 104.147 0.364 104.095 0.338C104.052 0.303333 104.03 0.264333 104.03 0.221C104.03 0.177666 104.061 0.13 104.121 0.0779998C104.191 0.026 104.29 0 104.42 0C104.481 0 104.594 0.00866667 104.758 0.0259998C104.923 0.0433329 105.096 0.0693329 105.278 0.104C105.469 0.13 105.647 0.160333 105.811 0.195C105.976 0.229667 106.084 0.26 106.136 0.286L106.084 0.988V5.083C106.145 5.07433 106.201 5.07 106.253 5.07C106.305 5.07 106.344 5.07 106.37 5.07C106.561 5.05267 106.721 5.01367 106.851 4.953C106.99 4.89233 107.09 4.823 107.15 4.745C107.272 4.745 107.423 4.75367 107.605 4.771C107.796 4.77967 107.965 4.79267 108.112 4.81C108.364 4.85333 108.489 4.979 108.489 5.187C108.489 5.41233 108.338 5.525 108.034 5.525C107.731 5.53367 107.406 5.54233 107.059 5.551C106.721 5.551 106.396 5.55533 106.084 5.564V8.554C106.084 8.66667 106.084 8.81833 106.084 9.009C106.084 9.19967 106.08 9.40767 106.071 9.633C106.063 9.85833 106.045 10.0837 106.019 10.309C105.993 10.543 105.959 10.751 105.915 10.933C105.881 11.1237 105.829 11.2753 105.759 11.388C105.699 11.5093 105.621 11.57 105.525 11.57C105.335 11.57 105.239 11.0327 105.239 9.958V8.177C104.875 8.27233 104.446 8.36767 103.952 8.463C103.467 8.54967 102.956 8.63633 102.418 8.723C101.89 8.801 101.361 8.87467 100.832 8.944C100.312 9.01333 99.8399 9.074 99.4153 9.126C99.1986 9.152 99.0123 9.18233 98.8563 9.217C98.7003 9.25167 98.5399 9.321 98.3753 9.425C98.2626 9.39033 98.1456 9.347 98.0243 9.295C97.9029 9.23433 97.7859 9.17367 97.6733 9.113C97.5606 9.05233 97.4566 8.99167 97.3613 8.931C97.2659 8.87033 97.1879 8.814 97.1273 8.762C97.0493 8.70133 97.0103 8.632 97.0103 8.554C97.0103 8.41533 97.1273 8.36333 97.3613 8.398C97.7946 8.46733 98.2496 8.49333 98.7263 8.476ZM99.3373 5.174C99.3373 5.356 99.3763 5.52933 99.4543 5.694C99.5323 5.85 99.6406 5.98867 99.7793 6.11C99.9266 6.22267 100.091 6.31367 100.273 6.383C100.464 6.45233 100.672 6.487 100.897 6.487C101.114 6.487 101.313 6.45233 101.495 6.383C101.686 6.31367 101.851 6.22267 101.989 6.11C102.128 5.98867 102.236 5.85 102.314 5.694C102.401 5.52933 102.444 5.356 102.444 5.174C102.444 4.992 102.401 4.82733 102.314 4.68C102.236 4.524 102.128 4.38967 101.989 4.277C101.851 4.15567 101.686 4.06467 101.495 4.004C101.313 3.93467 101.114 3.9 100.897 3.9C100.672 3.9 100.464 3.93467 100.273 4.004C100.091 4.06467 99.9266 4.15567 99.7793 4.277C99.6406 4.38967 99.5323 4.524 99.4543 4.68C99.3763 4.82733 99.3373 4.992 99.3373 5.174ZM98.4533 3.172C98.2799 3.146 98.0763 3.081 97.8423 2.977C97.6169 2.873 97.4306 2.76033 97.2833 2.639C97.1793 2.55233 97.1359 2.46133 97.1533 2.366C97.1619 2.32267 97.1879 2.28367 97.2313 2.249C97.2746 2.21433 97.3526 2.20567 97.4653 2.223C97.6559 2.25767 97.8769 2.28367 98.1283 2.301C98.3796 2.31833 98.6179 2.327 98.8433 2.327C99.0946 2.327 99.3546 2.32267 99.6233 2.314C99.9006 2.30533 100.174 2.29667 100.442 2.288C100.711 2.27933 100.962 2.27067 101.196 2.262C101.439 2.24467 101.651 2.23167 101.833 2.223C102.076 2.197 102.288 2.171 102.47 2.145C102.652 2.11033 102.804 2.04533 102.925 1.95C103.047 1.95867 103.203 1.97167 103.393 1.989C103.584 2.00633 103.749 2.03233 103.887 2.067C104.147 2.13633 104.277 2.262 104.277 2.444C104.277 2.71267 104.147 2.847 103.887 2.847C103.827 2.847 103.701 2.83833 103.51 2.821C103.32 2.80367 103.142 2.78633 102.977 2.769C102.847 2.75167 102.661 2.74733 102.418 2.756C102.184 2.756 101.955 2.756 101.729 2.756C101.556 2.756 101.365 2.76033 101.157 2.769C100.958 2.77767 100.75 2.79067 100.533 2.808C100.325 2.81667 100.117 2.82967 99.9093 2.847C99.7013 2.85567 99.5063 2.86867 99.3243 2.886C99.1856 2.90333 99.0339 2.93367 98.8693 2.977C98.7133 3.01167 98.5746 3.07667 98.4533 3.172ZM102.301 1.105C102.301 1.209 102.241 1.3 102.119 1.378C101.998 1.44733 101.864 1.482 101.716 1.482C101.621 1.482 101.491 1.482 101.326 1.482C101.17 1.482 101.006 1.48633 100.832 1.495C100.659 1.495 100.49 1.49933 100.325 1.508C100.169 1.508 100.039 1.51233 99.9353 1.521C99.8659 1.495 99.7879 1.46033 99.7013 1.417C99.6146 1.365 99.5279 1.30867 99.4413 1.248C99.3633 1.18733 99.2853 1.12667 99.2073 1.066C99.1293 0.996667 99.0729 0.936 99.0383 0.884C98.9689 0.806 98.9559 0.736666 98.9993 0.676C99.0513 0.606666 99.1553 0.589333 99.3113 0.624C99.3806 0.641333 99.4846 0.658666 99.6233 0.676C99.7706 0.693333 99.8963 0.710667 100 0.728C100.191 0.754 100.455 0.771333 100.793 0.78C101.131 0.78 101.448 0.78 101.742 0.78C102.115 0.78 102.301 0.888333 102.301 1.105Z" fill="black"/>
<path d="M152.046 6.565C151.656 6.58233 151.271 6.59967 150.889 6.617C150.508 6.63433 150.122 6.65167 149.732 6.669C149.559 6.68633 149.381 6.721 149.199 6.773C149.026 6.81633 148.861 6.88567 148.705 6.981C148.584 6.97233 148.454 6.95067 148.315 6.916C148.177 6.87267 148.038 6.825 147.899 6.773C147.761 6.71233 147.626 6.65167 147.496 6.591C147.375 6.52167 147.267 6.45233 147.171 6.383C147.111 6.33967 147.063 6.292 147.028 6.24C147.002 6.17933 146.989 6.12733 146.989 6.084C146.989 5.954 147.128 5.91067 147.405 5.954C147.657 5.99733 147.925 6.032 148.211 6.058C148.497 6.07533 148.796 6.084 149.108 6.084C150.218 6.084 151.253 6.07533 152.215 6.058C153.186 6.032 154.109 5.99733 154.984 5.954C155.314 5.93667 155.578 5.90633 155.777 5.863C155.977 5.811 156.154 5.73733 156.31 5.642C156.484 5.65067 156.679 5.668 156.895 5.694C157.121 5.72 157.333 5.75467 157.532 5.798C157.862 5.86733 158.026 6.00167 158.026 6.201C158.026 6.46967 157.862 6.604 157.532 6.604C157.446 6.604 157.303 6.59967 157.103 6.591C156.913 6.57367 156.679 6.552 156.401 6.526C156.289 6.51733 156.098 6.513 155.829 6.513C155.561 6.50433 155.236 6.5 154.854 6.5C154.534 6.50867 154.213 6.51733 153.892 6.526C153.572 6.526 153.251 6.53033 152.93 6.539V9.009C152.93 9.165 152.926 9.38167 152.917 9.659C152.917 9.92767 152.896 10.192 152.852 10.452C152.818 10.712 152.761 10.9373 152.683 11.128C152.605 11.3187 152.493 11.414 152.345 11.414C152.146 11.414 152.046 10.9243 152.046 9.945V6.565ZM152.254 0.897C152.211 0.827667 152.133 0.745333 152.02 0.65C151.908 0.554666 151.76 0.468 151.578 0.39C151.431 0.320666 151.37 0.242666 151.396 0.155999C151.414 0.112666 151.457 0.0779997 151.526 0.052C151.604 0.0173333 151.691 0 151.786 0C151.916 0.00866656 152.059 0.0346665 152.215 0.0779998C152.38 0.112667 152.54 0.160333 152.696 0.220999C152.861 0.273 153.013 0.333666 153.151 0.402999C153.299 0.472333 153.411 0.537333 153.489 0.598C153.472 0.667333 153.45 0.732333 153.424 0.793C153.407 0.845 153.381 0.905666 153.346 0.975C153.19 1.287 152.982 1.586 152.722 1.872L154.1 2.509C154.265 2.587 154.43 2.65633 154.594 2.717C154.759 2.77767 154.906 2.81233 155.036 2.821C155.175 2.83833 155.318 2.86433 155.465 2.899C155.613 2.925 155.734 2.95967 155.829 3.003C155.959 3.07233 156.094 3.15033 156.232 3.237C156.371 3.32367 156.497 3.419 156.609 3.523C156.722 3.61833 156.813 3.718 156.882 3.822C156.952 3.926 156.986 4.02133 156.986 4.108C156.986 4.29 156.904 4.38967 156.739 4.407C156.618 4.407 156.466 4.355 156.284 4.251L152.332 2.262C152.029 2.548 151.695 2.81667 151.331 3.068C150.976 3.31933 150.612 3.549 150.239 3.757C149.867 3.965 149.498 4.15133 149.134 4.316C148.779 4.48067 148.45 4.62367 148.146 4.745C148.051 4.78833 147.964 4.80567 147.886 4.797C147.817 4.78833 147.769 4.76667 147.743 4.732C147.717 4.69733 147.713 4.654 147.73 4.602C147.756 4.55 147.817 4.50233 147.912 4.459C148.259 4.277 148.636 4.06467 149.043 3.822C149.451 3.57933 149.849 3.30633 150.239 3.003C150.638 2.69967 151.015 2.37033 151.37 2.015C151.726 1.65967 152.02 1.287 152.254 0.897Z" fill="black"/>
<path d="M198.19 6.3765C198.078 6.36783 197.952 6.34617 197.813 6.3115C197.683 6.26817 197.549 6.2205 197.41 6.1685C197.28 6.1165 197.15 6.06017 197.02 5.9995C196.899 5.93017 196.795 5.86083 196.708 5.7915C196.648 5.74817 196.6 5.7005 196.565 5.6485C196.539 5.5965 196.526 5.54883 196.526 5.5055C196.526 5.3755 196.661 5.33217 196.929 5.3755C197.181 5.41883 197.441 5.4535 197.709 5.4795C197.987 5.49683 198.277 5.5055 198.58 5.5055C199.109 5.5055 199.638 5.5055 200.166 5.5055C200.695 5.49683 201.215 5.48383 201.726 5.4665V3.7895C201.414 3.79817 201.107 3.80683 200.803 3.8155C200.509 3.82417 200.236 3.8285 199.984 3.8285C199.976 3.9065 199.928 4.00617 199.841 4.1275C199.755 4.24017 199.664 4.2965 199.568 4.2965C199.447 4.2965 199.352 4.2445 199.282 4.1405C199.213 4.02783 199.17 3.89783 199.152 3.7505L198.879 1.0725C198.819 0.951167 198.723 0.855834 198.593 0.7865C198.472 0.7085 198.346 0.647833 198.216 0.6045C198.13 0.5785 198.065 0.543833 198.021 0.5005C197.978 0.4485 197.956 0.3965 197.956 0.3445C197.956 0.2925 197.978 0.249166 198.021 0.2145C198.065 0.171166 198.134 0.1495 198.229 0.1495C198.325 0.1495 198.442 0.153833 198.58 0.1625C198.719 0.1625 198.866 0.171167 199.022 0.1885C199.178 0.197167 199.334 0.210167 199.49 0.2275C199.646 0.244833 199.798 0.262167 199.945 0.2795C200.197 0.288167 200.474 0.2925 200.777 0.2925C201.081 0.2925 201.384 0.288167 201.687 0.2795C201.999 0.270833 202.298 0.262166 202.584 0.2535C202.879 0.236167 203.143 0.218833 203.377 0.2015C203.542 0.184167 203.702 0.158167 203.858 0.1235C204.014 0.0888333 204.123 0.0498332 204.183 0.00649992C204.305 -0.00216664 204.456 -0.00216664 204.638 0.00649992C204.82 0.00649992 204.959 0.0151666 205.054 0.0324997C205.219 0.0498333 205.314 0.0888334 205.34 0.1495C205.375 0.210167 205.384 0.270833 205.366 0.3315C205.34 0.4615 205.306 0.587167 205.262 0.7085C205.228 0.829834 205.202 0.959833 205.184 1.0985C205.167 1.27183 205.15 1.43217 205.132 1.5795C205.115 1.71817 205.093 1.8655 205.067 2.0215C205.05 2.1775 205.028 2.34217 205.002 2.5155C204.976 2.68883 204.95 2.88817 204.924 3.1135C205.202 3.15683 205.34 3.2695 205.34 3.4515C205.34 3.65083 205.18 3.75917 204.859 3.7765C204.521 3.76783 204.153 3.7635 203.754 3.7635C203.364 3.7635 202.961 3.76783 202.545 3.7765V5.4535C202.918 5.43617 203.273 5.42317 203.611 5.4145C203.958 5.39717 204.292 5.37983 204.612 5.3625C204.933 5.34517 205.189 5.31917 205.379 5.2845C205.579 5.24117 205.752 5.17183 205.899 5.0765C206.073 5.08517 206.263 5.1025 206.471 5.1285C206.688 5.1545 206.892 5.18917 207.082 5.2325C207.403 5.29317 207.563 5.41883 207.563 5.6095C207.563 5.85217 207.403 5.9735 207.082 5.9735C207.004 5.9735 206.853 5.96917 206.627 5.9605C206.411 5.94317 206.198 5.92583 205.99 5.9085C205.86 5.89983 205.67 5.8955 205.418 5.8955C205.167 5.8955 204.859 5.8955 204.495 5.8955C204.088 5.90417 203.659 5.91283 203.208 5.9215C202.758 5.93017 202.303 5.94317 201.843 5.9605C201.393 5.97783 200.942 5.99517 200.491 6.0125C200.041 6.02983 199.607 6.04717 199.191 6.0645C199.018 6.08183 198.845 6.1165 198.671 6.1685C198.498 6.21183 198.338 6.28117 198.19 6.3765ZM203.962 3.2045C204.023 3.19583 204.062 3.18717 204.079 3.1785C204.097 3.16117 204.114 3.1395 204.131 3.1135L204.157 0.7475C203.871 0.7475 203.529 0.751833 203.13 0.7605C202.74 0.7605 202.342 0.764834 201.934 0.7735C201.527 0.7735 201.146 0.782167 200.79 0.7995C200.435 0.808166 200.153 0.816833 199.945 0.8255C199.937 0.920834 199.932 0.990167 199.932 1.0335C199.932 1.06817 199.932 1.0985 199.932 1.1245L199.997 3.3215C200.188 3.3215 200.448 3.3215 200.777 3.3215C201.115 3.31283 201.471 3.3085 201.843 3.3085C202.225 3.29983 202.602 3.28683 202.974 3.2695C203.356 3.25217 203.685 3.2305 203.962 3.2045ZM203.663 7.2995C203.819 7.29083 203.971 7.26483 204.118 7.2215C204.274 7.17817 204.374 7.13917 204.417 7.1045C204.539 7.09583 204.669 7.09583 204.807 7.1045C204.946 7.11317 205.063 7.12617 205.158 7.1435C205.314 7.1695 205.397 7.2215 205.405 7.2995C205.414 7.36883 205.41 7.43817 205.392 7.5075C205.366 7.65483 205.34 7.79783 205.314 7.9365C205.288 8.0665 205.271 8.20083 205.262 8.3395L205.184 9.7825C205.184 9.8605 205.176 9.9905 205.158 10.1725C205.141 10.3545 205.111 10.5365 205.067 10.7185C205.033 10.9005 204.981 11.0608 204.911 11.1995C204.851 11.3382 204.768 11.4075 204.664 11.4075C204.552 11.4075 204.469 11.2905 204.417 11.0565C204.374 10.8312 204.352 10.4238 204.352 9.8345V7.7935C204.118 7.7935 203.828 7.79783 203.481 7.8065C203.135 7.81517 202.779 7.82383 202.415 7.8325C202.06 7.84117 201.726 7.85417 201.414 7.8715C201.102 7.88017 200.864 7.89317 200.699 7.9105C200.344 7.94517 200.015 8.0535 199.711 8.2355C199.59 8.2095 199.464 8.1705 199.334 8.1185C199.204 8.05783 199.079 8.0015 198.957 7.9495C198.836 7.88883 198.728 7.82817 198.632 7.7675C198.537 7.70683 198.468 7.65483 198.424 7.6115C198.372 7.5595 198.346 7.5075 198.346 7.4555C198.346 7.3515 198.446 7.3125 198.645 7.3385C198.862 7.37317 199.07 7.39483 199.269 7.4035C199.477 7.4035 199.681 7.4035 199.88 7.4035C200.201 7.4035 200.535 7.4035 200.881 7.4035C201.237 7.39483 201.583 7.38617 201.921 7.3775C202.259 7.36017 202.58 7.34717 202.883 7.3385C203.187 7.32983 203.447 7.31683 203.663 7.2995Z" fill="black"/>
<path d="M254.708 7.4035C254.674 7.73283 254.635 8.12283 254.591 8.5735C254.548 9.02417 254.5 9.46617 254.448 9.8995C254.717 9.94283 254.851 10.0512 254.851 10.2245C254.851 10.4325 254.7 10.5365 254.396 10.5365C254.05 10.5365 253.673 10.5365 253.265 10.5365C252.867 10.5365 252.459 10.5408 252.043 10.5495C251.627 10.5582 251.22 10.5625 250.821 10.5625C250.423 10.5712 250.054 10.5798 249.716 10.5885C249.716 10.6665 249.673 10.7618 249.586 10.8745C249.5 10.9872 249.413 11.0435 249.326 11.0435C249.205 11.0435 249.11 10.9915 249.04 10.8875C248.98 10.7922 248.941 10.6708 248.923 10.5235L248.663 7.3775C248.603 7.26483 248.494 7.17383 248.338 7.1045C248.191 7.0265 248.057 6.96583 247.935 6.9225C247.857 6.8965 247.797 6.86183 247.753 6.8185C247.71 6.7665 247.688 6.71883 247.688 6.6755C247.688 6.6235 247.706 6.58017 247.74 6.5455C247.784 6.51083 247.853 6.4935 247.948 6.4935C248.035 6.4935 248.148 6.49783 248.286 6.5065C248.434 6.5065 248.585 6.51083 248.741 6.5195C248.906 6.52817 249.071 6.54117 249.235 6.5585C249.4 6.57583 249.552 6.59317 249.69 6.6105C249.933 6.61917 250.197 6.6235 250.483 6.6235C250.769 6.6235 251.06 6.61917 251.354 6.6105C251.649 6.60183 251.935 6.59317 252.212 6.5845C252.49 6.56717 252.741 6.54983 252.966 6.5325C253.122 6.51517 253.274 6.4935 253.421 6.4675C253.577 6.43283 253.681 6.39383 253.733 6.3505C253.855 6.34183 254.002 6.34183 254.175 6.3505C254.349 6.3505 254.483 6.35917 254.578 6.3765C254.734 6.39383 254.825 6.43283 254.851 6.4935C254.886 6.5455 254.895 6.60183 254.877 6.6625C254.851 6.78383 254.821 6.90517 254.786 7.0265C254.752 7.14783 254.726 7.2735 254.708 7.4035ZM253.629 0.2015C253.794 0.184167 253.941 0.158167 254.071 0.1235C254.201 0.088833 254.297 0.0498332 254.357 0.00649992C254.479 -0.00216664 254.591 -0.00216664 254.695 0.00649992C254.799 0.0151665 254.899 0.0281663 254.994 0.0455C255.159 0.0628331 255.254 0.101833 255.28 0.1625C255.315 0.223166 255.324 0.283833 255.306 0.3445C255.28 0.465834 255.233 0.600167 255.163 0.7475C255.103 0.886167 255.059 1.01617 255.033 1.1375C254.981 1.38017 254.925 1.64017 254.864 1.9175C254.812 2.19483 254.756 2.46783 254.695 2.7365C254.635 3.00517 254.574 3.26517 254.513 3.5165C254.461 3.75917 254.405 3.9715 254.344 4.1535C254.604 4.13617 254.817 4.11017 254.981 4.0755C255.146 4.04083 255.298 3.97583 255.436 3.8805C255.61 3.88917 255.8 3.9065 256.008 3.9325C256.225 3.9585 256.429 3.99317 256.619 4.0365C256.94 4.09717 257.1 4.22283 257.1 4.4135C257.1 4.65617 256.94 4.7775 256.619 4.7775C256.541 4.7775 256.39 4.77317 256.164 4.7645C255.948 4.74717 255.735 4.72983 255.527 4.7125C255.397 4.70383 255.207 4.6995 254.955 4.6995C254.704 4.6995 254.396 4.6995 254.032 4.6995C253.625 4.70817 253.196 4.71683 252.745 4.7255C252.295 4.73417 251.84 4.74717 251.38 4.7645C250.93 4.78183 250.479 4.79917 250.028 4.8165C249.578 4.83383 249.144 4.85117 248.728 4.8685C248.555 4.88583 248.382 4.9205 248.208 4.9725C248.035 5.01583 247.875 5.08517 247.727 5.1805C247.615 5.17183 247.489 5.15017 247.35 5.1155C247.22 5.07217 247.086 5.0245 246.947 4.9725C246.817 4.9205 246.687 4.86417 246.557 4.8035C246.436 4.73417 246.332 4.66483 246.245 4.5955C246.185 4.55217 246.137 4.5045 246.102 4.4525C246.076 4.4005 246.063 4.35283 246.063 4.3095C246.063 4.1795 246.198 4.13617 246.466 4.1795C246.718 4.22283 246.978 4.2575 247.246 4.2835C247.524 4.30083 247.814 4.3095 248.117 4.3095C249.114 4.3095 250.093 4.30083 251.055 4.2835C252.026 4.2575 252.923 4.22717 253.746 4.1925C253.816 3.5945 253.881 3.0095 253.941 2.4375C254.002 1.8655 254.045 1.30217 254.071 0.7475C253.811 0.730167 253.491 0.7215 253.109 0.7215C252.728 0.712833 252.338 0.717167 251.939 0.7345C251.549 0.743167 251.172 0.7605 250.808 0.7865C250.444 0.803834 250.145 0.8255 249.911 0.8515C249.738 0.868833 249.573 0.894834 249.417 0.9295C249.27 0.964167 249.127 1.02483 248.988 1.1115C248.884 1.0855 248.767 1.0465 248.637 0.9945C248.516 0.9425 248.399 0.8905 248.286 0.8385C248.182 0.777834 248.083 0.7215 247.987 0.6695C247.901 0.608833 247.84 0.561167 247.805 0.5265C247.753 0.4745 247.727 0.418167 247.727 0.3575C247.727 0.236167 247.827 0.197167 248.026 0.2405C248.226 0.275167 248.416 0.296833 248.598 0.3055C248.78 0.3055 248.958 0.3055 249.131 0.3055C249.478 0.3055 249.859 0.3055 250.275 0.3055C250.7 0.296833 251.116 0.288167 251.523 0.2795C251.939 0.270833 252.329 0.262166 252.693 0.2535C253.066 0.236167 253.378 0.218833 253.629 0.2015ZM253.525 9.9905C253.586 9.98183 253.625 9.96883 253.642 9.9515C253.66 9.94283 253.677 9.9255 253.694 9.8995L253.72 7.0655C253.443 7.0655 253.114 7.06983 252.732 7.0785C252.36 7.0785 251.978 7.08283 251.588 7.0915C251.198 7.0915 250.83 7.10017 250.483 7.1175C250.145 7.12617 249.881 7.13483 249.69 7.1435C249.682 7.23017 249.677 7.29517 249.677 7.3385C249.677 7.37317 249.677 7.4035 249.677 7.4295L249.729 10.1075C249.911 10.1075 250.163 10.1032 250.483 10.0945C250.804 10.0945 251.142 10.0902 251.497 10.0815C251.861 10.0815 252.221 10.0728 252.576 10.0555C252.94 10.0382 253.257 10.0165 253.525 9.9905Z" fill="black"/>
<path d="M298.837 2.535C299.357 2.52633 299.916 2.51767 300.514 2.509C301.112 2.49167 301.658 2.47867 302.152 2.47C302.36 2.46133 302.542 2.42667 302.698 2.366C302.863 2.29667 302.967 2.23167 303.01 2.171C303.192 2.171 303.37 2.17967 303.543 2.197C303.725 2.20567 303.903 2.22733 304.076 2.262C304.336 2.30533 304.466 2.42667 304.466 2.626C304.466 2.834 304.31 2.94233 303.998 2.951L298.837 3.016V4.316C298.837 4.58467 298.95 4.71033 299.175 4.693L302.477 4.615C302.676 4.59767 302.858 4.55867 303.023 4.498C303.188 4.43733 303.292 4.37667 303.335 4.316C303.508 4.316 303.695 4.32467 303.894 4.342C304.102 4.35067 304.293 4.37233 304.466 4.407C304.726 4.45033 304.856 4.56733 304.856 4.758C304.856 4.98333 304.7 5.096 304.388 5.096L301.554 5.135V7.28C302.247 7.27133 302.928 7.24533 303.595 7.202C303.924 7.18467 304.189 7.15433 304.388 7.111C304.587 7.059 304.765 6.98533 304.921 6.89C305.094 6.89867 305.289 6.916 305.506 6.942C305.731 6.968 305.944 7.00267 306.143 7.046C306.472 7.11533 306.637 7.24967 306.637 7.449C306.637 7.71767 306.472 7.852 306.143 7.852C306.056 7.852 305.913 7.84767 305.714 7.839C305.523 7.82167 305.289 7.8 305.012 7.774C304.899 7.76533 304.709 7.761 304.44 7.761C304.171 7.75233 303.846 7.748 303.465 7.748C302.616 7.76533 301.766 7.787 300.917 7.813C300.068 7.839 299.21 7.87367 298.343 7.917C298.17 7.93433 297.992 7.969 297.81 8.021C297.637 8.06433 297.472 8.13367 297.316 8.229C297.195 8.22033 297.065 8.19867 296.926 8.164C296.787 8.12067 296.649 8.073 296.51 8.021C296.371 7.96033 296.237 7.89967 296.107 7.839C295.986 7.76967 295.877 7.70033 295.782 7.631C295.721 7.58767 295.674 7.54 295.639 7.488C295.613 7.42733 295.6 7.37533 295.6 7.332C295.6 7.202 295.739 7.15867 296.016 7.202C296.267 7.24533 296.536 7.28 296.822 7.306C297.108 7.32333 297.407 7.332 297.719 7.332C298.248 7.332 298.759 7.332 299.253 7.332C299.747 7.32333 300.228 7.31467 300.696 7.306V5.148L298.941 5.174C298.282 5.19133 297.953 4.823 297.953 4.069V1.248C297.953 1.04 297.624 0.853667 296.965 0.689001C296.792 0.645667 296.705 0.580667 296.705 0.494001C296.705 0.424667 296.735 0.359667 296.796 0.299C296.857 0.238334 296.948 0.203667 297.069 0.195001C297.225 0.186334 297.39 0.186334 297.563 0.195001C297.736 0.203667 297.901 0.216667 298.057 0.234C298.213 0.251334 298.356 0.273001 298.486 0.299C298.616 0.325 298.716 0.351001 298.785 0.377001C299.062 0.368334 299.353 0.364001 299.656 0.364001C299.968 0.355334 300.28 0.346667 300.592 0.338C300.913 0.329334 301.225 0.325001 301.528 0.325001C301.831 0.316334 302.122 0.307667 302.399 0.299C302.581 0.299 302.746 0.273 302.893 0.221C303.04 0.169001 303.162 0.0953337 303.257 0C303.43 0 303.612 0.00866687 303.803 0.0260005C303.994 0.0346671 304.176 0.0563338 304.349 0.0910006C304.609 0.134334 304.739 0.255667 304.739 0.455C304.739 0.680334 304.583 0.793001 304.271 0.793001C303.404 0.801667 302.499 0.810334 301.554 0.819C300.609 0.827667 299.704 0.840667 298.837 0.858001V2.535Z" fill="black"/>
</svg>
