<svg width="327" height="68" viewBox="0 0 327 68" fill="none" xmlns="http://www.w3.org/2000/svg">
<path d="M30.3599 67.5999C47.0799 67.5999 60.2799 54.1599 60.2799 33.9999C60.2799 13.9199 47.0799 0.399902 30.3599 0.399902C13.4799 0.399902 0.359863 13.9199 0.359863 33.9999C0.359863 54.1599 13.4799 67.5999 30.3599 67.5999ZM30.3599 66.0799C16.6799 66.0799 11.4799 52.4799 11.4799 33.9999C11.4799 15.5999 16.6799 1.9199 30.3599 1.9199C43.9599 1.9199 49.1599 15.5999 49.1599 33.9999C49.1599 52.4799 43.9599 66.0799 30.3599 66.0799Z" fill="black"/>
<path d="M80.0624 1.99991L75.5824 33.4399L76.3824 34.1599C83.4224 28.4799 88.3024 26.8799 92.8624 26.8799C101.262 26.8799 107.022 33.1199 107.022 44.0799C107.022 56.7199 100.142 65.0399 90.2224 65.0399C80.5424 65.0399 73.4224 60.1599 72.2224 47.2799H70.9424C72.0624 60.4799 79.4224 67.5999 94.1424 67.5999C106.462 67.5999 118.862 60.3999 118.862 44.6399C118.862 30.5599 107.342 24.5599 96.6224 24.5599C89.4224 24.5599 83.2624 26.8799 77.3424 31.7599L80.6224 8.3999H90.6224C101.982 8.3999 107.022 8.7999 116.622 12.9599L113.262 1.99991H80.0624Z" fill="black"/>
<path d="M135.833 67.5999L141.193 62.3199L135.833 56.9599L130.553 62.3199L135.833 67.5999Z" fill="black"/>
<path d="M155.308 65.9999H200.668L204.428 54.8799C195.228 58.9599 189.708 59.3599 180.828 59.4399L158.348 59.5999C163.708 47.6799 171.388 43.4399 183.308 38.3199C192.348 33.7599 202.748 28.8799 202.748 17.5199C202.748 6.07991 191.228 0.399902 179.388 0.399902C167.708 0.399902 156.748 6.2399 156.748 15.6799C156.748 21.9199 160.348 26.7999 166.508 30.1599L173.388 23.8399C168.508 22.0799 164.988 18.7199 164.988 13.5199C164.988 7.19991 170.348 1.9199 178.508 1.9199C186.588 1.9199 191.628 7.5999 191.628 16.0799C191.628 24.8799 185.708 30.2399 177.068 36.5599C168.108 43.2799 158.988 49.2799 155.308 65.9999Z" fill="black"/>
<path d="M249.312 30.6399C258.032 28.4799 263.072 22.3999 263.072 15.7599C263.072 7.4399 255.792 0.399902 241.872 0.399902C227.792 0.399902 220.592 7.4399 220.592 15.7599C220.592 22.3999 225.632 28.4799 234.352 30.6399C224.112 32.4799 216.192 38.4799 216.192 48.9599C216.192 61.9199 228.192 67.5999 241.872 67.5999C255.392 67.5999 267.392 61.9199 267.392 48.9599C267.392 38.4799 259.472 32.4799 249.312 30.6399ZM230.352 15.7599C230.352 9.2799 233.392 1.9199 241.872 1.9199C250.192 1.9199 253.312 9.2799 253.312 15.7599C253.312 22.2399 250.192 29.9999 241.872 29.9999C233.392 29.9999 230.352 22.2399 230.352 15.7599ZM241.872 66.0799C232.832 66.0799 227.392 59.1199 227.392 48.9599C227.392 38.7999 232.832 31.5199 241.872 31.5199C250.752 31.5199 256.272 38.7999 256.272 48.9599C256.272 59.1199 250.752 66.0799 241.872 66.0799Z" fill="black"/>
<path d="M277.65 58.3999C277.65 62.8999 280.49 66.5999 284.31 67.9999V67.6599C281.41 65.8599 280.09 62.0199 280.09 58.3999C280.09 54.7999 281.63 51.3399 284.39 49.5399V49.1999C280.71 50.5999 277.65 53.9199 277.65 58.3999Z" fill="black"/>
<path d="M286.525 63.2799C287.025 65.3399 288.825 66.3999 291.225 66.3999C293.685 66.3999 295.225 65.2599 295.225 63.5399C295.225 61.6799 293.665 60.9999 291.625 60.0399C289.745 59.1599 288.865 58.6399 288.865 57.6999C288.865 56.8599 289.585 56.4399 290.645 56.4399C292.025 56.4399 292.525 57.0999 292.805 58.1199C293.105 59.1799 294.245 59.3199 294.805 58.4999C294.005 56.9599 292.565 56.0399 290.605 56.0399C288.965 56.0399 287.045 56.6599 287.045 58.3599C287.045 59.9199 288.525 60.6199 290.365 61.5399C292.605 62.6599 293.325 63.0999 293.325 64.1799C293.325 65.1999 292.705 66.0199 291.325 66.0199C289.545 66.0199 288.845 64.8799 288.765 63.7199C288.545 62.4399 287.065 62.2399 286.525 63.2799Z" fill="black"/>
<path d="M307.826 65.9999C307.526 64.3799 307.526 63.3999 307.526 61.9599V59.0799C307.506 56.8399 305.926 56.0399 303.686 56.0399C301.526 56.0399 299.526 56.8999 298.186 57.8199C298.406 59.0399 299.726 59.2399 300.446 58.2999C301.006 57.6199 301.546 56.4199 303.386 56.4199C304.546 56.4199 305.146 57.1399 305.146 58.4799C305.146 59.7399 304.146 60.0999 302.426 60.3999C300.426 60.7399 297.866 61.3799 297.866 63.7399C297.866 65.6599 299.586 66.3999 301.246 66.3999C303.446 66.3999 304.646 65.2799 305.146 63.7999C305.166 64.5199 305.206 65.1199 305.326 65.9999H307.826ZM302.366 65.5799C301.246 65.5799 300.466 64.8599 300.466 63.3799C300.466 61.9399 301.266 61.0999 302.886 60.6799C303.966 60.3999 304.746 60.2399 305.146 59.6599V61.9999C305.146 64.0399 304.066 65.5799 302.366 65.5799Z" fill="black"/>
<path d="M317.229 61.9199C316.809 64.8199 316.129 65.8599 315.229 65.8599C314.489 65.8599 314.129 65.2799 314.129 63.4399V56.8199H317.009V56.4399H312.229C314.169 55.6799 314.529 53.9199 314.529 52.2399H312.489C312.489 54.4599 312.589 56.4399 309.869 56.4399H309.589V56.8199H311.749V63.0999C311.749 65.4799 312.549 66.4999 314.389 66.4999C316.069 66.4999 317.069 65.4799 317.569 61.9199H317.229Z" fill="black"/>
<path d="M326.433 58.3999C326.433 53.9199 323.373 50.5999 319.693 49.1999V49.5399C322.453 51.3399 323.993 54.7999 323.993 58.3999C323.993 62.0199 322.673 65.8599 319.773 67.6599V67.9999C323.593 66.5999 326.433 62.8999 326.433 58.3999Z" fill="black"/>
</svg>
