<svg width="131" height="31" viewBox="0 0 131 31" fill="none" xmlns="http://www.w3.org/2000/svg">
<path d="M26.1798 13.54V12.91H13.0998L14.8398 15.31C17.2998 13.81 19.7598 13.54 21.4398 13.54H22.7898C22.4598 19.99 19.5198 24.04 14.5698 24.04C9.0498 24.04 6.2598 18.82 6.2598 12.37C6.2598 6.10002 8.80981 1.03003 13.4298 1.03003C16.8798 1.03003 18.6198 4.33003 19.3098 8.38002L24.0498 7.06002C21.9798 3.10003 18.5598 0.400024 13.4298 0.400024C6.46981 0.400024 0.799805 5.08002 0.799805 12.7C0.799805 20.32 5.7498 25.6 13.0098 25.6C18.6498 25.6 21.6198 22.36 22.7898 17.32V18.34C22.7898 20.59 22.6998 22.57 22.3998 25H24.1398C23.8398 22.57 23.7498 20.59 23.7498 18.34V13.54H26.1798Z" fill="black"/>
<path d="M46.8845 25C46.4345 22.42 46.4345 20.98 46.4345 18.76V14.62C46.4045 11.08 43.7945 9.91003 40.1945 9.91003C36.7145 9.91003 33.5645 11.2 31.4945 12.58C31.8845 14.74 34.1645 15.07 35.3945 13.48C36.2645 12.37 36.9845 10.57 39.5945 10.57C41.2145 10.57 42.0545 11.53 42.0545 13.42C42.0545 15.34 40.7345 15.94 38.1245 16.42C35.2445 16.93 30.9245 17.86 30.9245 21.58C30.9245 24.52 33.6545 25.6 36.1445 25.6C39.4145 25.6 41.2745 24.1 42.0845 21.94C42.1145 22.99 42.1745 23.83 42.3845 25H46.8845ZM38.3045 24.13C36.7745 24.13 35.7245 23.11 35.7245 20.86C35.7245 18.82 36.8045 17.53 39.0245 16.87C40.4345 16.45 41.4845 16.18 42.0545 15.46V19.15C42.0545 21.97 40.6145 24.13 38.3045 24.13Z" fill="black"/>
<path d="M52.6487 1.00003C52.9487 3.70002 52.9487 5.32002 52.9487 7.42002V18.58C52.9487 20.68 52.9487 22.3 52.6487 25H57.6587C57.3287 22.3 57.3287 20.68 57.3287 18.58V7.42002C57.3287 5.32002 57.3287 3.70002 57.6587 1.00003H52.6487Z" fill="black"/>
<path d="M64.0276 1.00003C64.3276 3.70002 64.3276 5.32002 64.3276 7.42002V18.58C64.3276 20.68 64.3276 22.3 64.0276 25H69.0376C68.7076 22.3 68.7076 20.68 68.7076 18.58V7.42002C68.7076 5.32002 68.7076 3.70002 69.0376 1.00003H64.0276Z" fill="black"/>
<path d="M91.2235 19.39C90.0535 22.9 87.7436 24.46 85.1036 24.46C81.3536 24.46 79.4636 21.25 79.4636 17.41C79.4636 16.99 79.4636 16.6 79.4936 16.21H91.0736C91.0136 12.85 88.2236 9.91003 83.3936 9.91003C78.9236 9.91003 74.6636 12.7 74.6636 17.77C74.6636 22.81 78.8335 25.6 83.6936 25.6C88.1035 25.6 90.6236 23.23 91.7635 19.39H91.2235ZM83.3335 10.57C85.5236 10.57 86.4536 12.55 86.4536 15.55H79.5536C79.9136 12.22 81.3235 10.57 83.3335 10.57Z" fill="black"/>
<path d="M110.091 10.51C105.891 9.73003 103.911 12.1 101.631 14.89C101.661 13.57 101.721 12.31 101.961 10.51H96.9514C97.2514 13.09 97.2514 14.53 97.2514 16.63V18.88C97.2514 20.98 97.2514 22.42 96.9514 25H101.961C101.631 22.42 101.631 20.98 101.631 18.88V16.63V15.82C104.511 12.64 105.621 12.55 107.271 13.06C109.341 13.72 110.451 12.46 110.091 10.51Z" fill="black"/>
<path d="M129.759 10.51C129.609 11.41 129.519 11.89 129.129 13L125.229 24.28L120.879 13C120.519 12.1 120.309 11.59 120.129 10.51H114.759C115.389 11.56 115.689 12.13 116.049 13.06L120.639 25H124.989L124.929 25.15C123.729 28.6 121.989 29.83 120.579 29.83C119.379 29.83 118.869 29.17 118.239 27.91C117.369 25.93 114.729 26.71 115.089 28.78C116.289 29.95 118.179 30.49 119.859 30.49C122.679 30.49 124.269 28.99 125.649 25L129.789 13.06C130.179 11.92 130.389 11.41 130.869 10.51H129.759Z" fill="black"/>
</svg>
