<svg width="347" height="482" viewBox="0 0 347 482" fill="none" xmlns="http://www.w3.org/2000/svg">
<g filter="url(#filter0_d_71_94)">
<path d="M345 106L3 106" stroke="white"/>
</g>
<g filter="url(#filter1_d_71_94)">
<path d="M345 199L3 199" stroke="white"/>
</g>
<g filter="url(#filter2_d_71_94)">
<path d="M344 292L2 292" stroke="white"/>
</g>
<g filter="url(#filter3_d_71_94)">
<path d="M344 384L2 384" stroke="white"/>
</g>
<g filter="url(#filter4_d_71_94)">
<path d="M344 477L2 477" stroke="white"/>
</g>
<path d="M43.98 150.82L45.04 151.52C45.4533 151.293 45.8933 151.107 46.36 150.96C46.84 150.8 47.38 150.72 47.98 150.72C48.5 150.72 48.9733 150.793 49.4 150.94C49.8267 151.087 50.1933 151.293 50.5 151.56C50.8067 151.813 51.04 152.12 51.2 152.48C51.3733 152.84 51.46 153.24 51.46 153.68C51.46 154.133 51.3733 154.553 51.2 154.94C51.04 155.313 50.8133 155.64 50.52 155.92C50.2267 156.2 49.8667 156.42 49.44 156.58C49.0267 156.727 48.5733 156.8 48.08 156.8C47.36 156.8 46.6667 156.633 46 156.3C45.3467 155.953 44.7133 155.48 44.1 154.88L43.06 156.02C43.7 156.66 44.44 157.193 45.28 157.62C46.1333 158.033 47.06 158.24 48.06 158.24C48.7933 158.24 49.4667 158.133 50.08 157.92C50.6933 157.693 51.22 157.38 51.66 156.98C52.1 156.567 52.44 156.08 52.68 155.52C52.9333 154.947 53.06 154.313 53.06 153.62C53.06 152.953 52.9333 152.353 52.68 151.82C52.44 151.287 52.1 150.84 51.66 150.48C51.22 150.107 50.7067 149.82 50.12 149.62C49.5333 149.42 48.9 149.32 48.22 149.32C47.6333 149.32 47.1267 149.38 46.7 149.5C46.2867 149.607 45.8733 149.753 45.46 149.94L45.76 145.46H52.44V144H44.38L43.98 150.82ZM67.2861 144H57.2261V158H58.8061V151.9H66.3861V150.46H58.8061V145.46H67.2861V144Z" fill="black"/>
<rect x="8" y="145" width="15" height="15" rx="7.5" fill="white"/>
<path d="M50.78 239.9L42.86 249.54L43.26 250.68H50.64V254H52.16V250.68H54.34V249.36H52.16V239.9H50.78ZM50.64 249.36H44.76L50.64 242.14V249.36ZM68.458 240H58.398V254H59.978V247.9H67.558V246.46H59.978V241.46H68.458V240Z" fill="black"/>
<rect x="8" y="241" width="15" height="15" rx="7.5" fill="white"/>
<path d="M48.14 331.22C48.5133 331.22 48.8733 331.287 49.22 331.42C49.5667 331.54 49.8667 331.72 50.12 331.96C50.3733 332.187 50.5733 332.467 50.72 332.8C50.88 333.12 50.96 333.487 50.96 333.9C50.96 334.247 50.9067 334.587 50.8 334.92C50.7067 335.24 50.54 335.573 50.3 335.92C50.0733 336.253 49.7733 336.613 49.4 337C49.0267 337.387 48.5733 337.82 48.04 338.3L42.96 342.78V344H52.74V342.56H45.32L49.06 339.24C49.6733 338.707 50.2 338.22 50.64 337.78C51.08 337.327 51.4467 336.893 51.74 336.48C52.0333 336.053 52.2467 335.627 52.38 335.2C52.5267 334.773 52.6 334.3 52.6 333.78C52.6 333.207 52.4933 332.68 52.28 332.2C52.0667 331.707 51.7667 331.287 51.38 330.94C50.9933 330.58 50.5333 330.3 50 330.1C49.48 329.9 48.9 329.8 48.26 329.8C47.6467 329.8 47.0933 329.867 46.6 330C46.12 330.133 45.68 330.327 45.28 330.58C44.8933 330.833 44.5333 331.147 44.2 331.52C43.8667 331.893 43.54 332.313 43.22 332.78L44.38 333.62C44.94 332.833 45.5067 332.24 46.08 331.84C46.6533 331.427 47.34 331.22 48.14 331.22ZM67.0127 330H56.9527V344H58.5327V337.9H66.1127V336.46H58.5327V331.46H67.0127V330Z" fill="black"/>
<rect x="8" y="331" width="15" height="15" rx="7.5" fill="white"/>
<path d="M42.56 423.08L42.94 424.36L45.58 423.54V436H47.14V421.9H45.98L42.56 423.08ZM62.208 422H52.148V436H53.728V429.9H61.308V428.46H53.728V423.46H62.208V422Z" fill="black"/>
<rect x="8" y="423" width="15" height="15" rx="7.5" fill="white"/>
<path d="M117.69 143.4H107.862V142.59H118.626V147.126H108.852V150.204H119.004V151.014H107.916V146.334H117.69V143.4ZM120.534 154.308V155.118H106.008V154.308H120.534ZM136.589 141.276V157.26H135.635V141.276H136.589ZM131.459 146.928C131.459 147.396 131.501 147.906 131.585 148.458C131.681 149.01 131.831 149.556 132.035 150.096C132.251 150.636 132.521 151.146 132.845 151.626C133.181 152.094 133.583 152.484 134.051 152.796L133.457 153.534C132.809 153.078 132.287 152.484 131.891 151.752C131.495 151.02 131.201 150.258 131.009 149.466C130.925 149.862 130.817 150.264 130.685 150.672C130.565 151.068 130.409 151.452 130.217 151.824C130.037 152.184 129.821 152.526 129.569 152.85C129.317 153.162 129.029 153.432 128.705 153.66C128.045 153.156 127.535 152.526 127.175 151.77C126.815 151.002 126.551 150.204 126.383 149.376C126.287 149.772 126.167 150.168 126.023 150.564C125.879 150.96 125.705 151.338 125.501 151.698C125.309 152.058 125.087 152.394 124.835 152.706C124.583 153.018 124.295 153.288 123.971 153.516L123.341 152.796C123.821 152.472 124.223 152.07 124.547 151.59C124.883 151.098 125.153 150.582 125.357 150.042C125.561 149.49 125.705 148.944 125.789 148.404C125.885 147.852 125.933 147.36 125.933 146.928V142.788H126.851V146.928C126.851 147.288 126.875 147.708 126.923 148.188C126.983 148.656 127.085 149.142 127.229 149.646C127.373 150.15 127.565 150.648 127.805 151.14C128.045 151.62 128.345 152.052 128.705 152.436C129.065 152.064 129.359 151.644 129.587 151.176C129.827 150.708 130.013 150.228 130.145 149.736C130.289 149.232 130.391 148.74 130.451 148.26C130.511 147.768 130.541 147.324 130.541 146.928V142.788H131.459V146.928ZM154.317 149.682H153.399V141.294H154.317V149.682ZM148.377 145.92C148.329 146.388 148.203 146.814 147.999 147.198C147.807 147.582 147.555 147.912 147.243 148.188C146.931 148.452 146.565 148.662 146.145 148.818C145.725 148.962 145.269 149.034 144.777 149.034C144.249 149.034 143.763 148.95 143.319 148.782C142.875 148.614 142.491 148.374 142.167 148.062C141.855 147.75 141.609 147.378 141.429 146.946C141.249 146.514 141.159 146.04 141.159 145.524C141.159 145.008 141.249 144.54 141.429 144.12C141.609 143.688 141.855 143.322 142.167 143.022C142.491 142.71 142.875 142.47 143.319 142.302C143.763 142.122 144.249 142.032 144.777 142.032C145.269 142.032 145.725 142.11 146.145 142.266C146.565 142.41 146.931 142.62 147.243 142.896C147.555 143.16 147.807 143.484 147.999 143.868C148.203 144.24 148.329 144.654 148.377 145.11H150.465V141.636H151.383V149.574H150.465V145.92H148.377ZM142.023 145.524C142.023 145.908 142.089 146.268 142.221 146.604C142.365 146.94 142.557 147.234 142.797 147.486C143.049 147.726 143.343 147.918 143.679 148.062C144.015 148.194 144.381 148.26 144.777 148.26C145.173 148.26 145.539 148.194 145.875 148.062C146.211 147.918 146.499 147.726 146.739 147.486C146.991 147.234 147.183 146.94 147.315 146.604C147.459 146.268 147.531 145.908 147.531 145.524C147.531 145.14 147.459 144.786 147.315 144.462C147.183 144.126 146.991 143.838 146.739 143.598C146.499 143.358 146.211 143.172 145.875 143.04C145.539 142.896 145.173 142.824 144.777 142.824C144.381 142.824 144.015 142.896 143.679 143.04C143.343 143.172 143.049 143.358 142.797 143.598C142.557 143.838 142.365 144.126 142.221 144.462C142.089 144.786 142.023 145.14 142.023 145.524ZM154.983 156.216V157.008H144.021V153.246H153.381V151.32H143.985V150.528H154.317V154.02H144.957V156.216H154.983ZM176.846 143.238H164.066V142.482H170.042V140.934H170.996V142.482H176.846V143.238ZM177.728 149.592V150.366H163.292V149.592H170.042V148.26C168.53 148.224 167.39 148.038 166.622 147.702C165.854 147.354 165.47 146.838 165.47 146.154C165.47 145.434 165.896 144.906 166.748 144.57C167.6 144.222 168.848 144.048 170.492 144.048C172.16 144.048 173.42 144.222 174.272 144.57C175.124 144.906 175.55 145.434 175.55 146.154C175.55 146.838 175.166 147.354 174.398 147.702C173.63 148.038 172.496 148.224 170.996 148.26V149.592H177.728ZM166.46 146.154C166.46 146.61 166.814 146.958 167.522 147.198C168.23 147.438 169.22 147.558 170.492 147.558C171.8 147.558 172.802 147.438 173.498 147.198C174.206 146.958 174.56 146.61 174.56 146.154C174.56 145.698 174.206 145.35 173.498 145.11C172.802 144.87 171.8 144.75 170.492 144.75C169.22 144.75 168.23 144.87 167.522 145.11C166.814 145.35 166.46 145.698 166.46 146.154ZM166.082 156.27H176.342V157.026H165.128V153.876H174.866V152.364H165.092V151.626H175.82V154.614H166.082V156.27ZM193.861 158.394C193.033 157.062 192.385 155.67 191.917 154.218C191.461 152.754 191.233 151.14 191.233 149.376C191.233 147.612 191.461 145.998 191.917 144.534C192.385 143.07 193.033 141.672 193.861 140.34L194.509 140.682C193.717 141.954 193.123 143.322 192.727 144.786C192.331 146.25 192.133 147.78 192.133 149.376C192.133 150.972 192.331 152.502 192.727 153.966C193.123 155.43 193.717 156.798 194.509 158.07L193.861 158.394ZM205.335 155.136V156H198.585V155.136H201.573V144.714C201.573 144.618 201.573 144.516 201.573 144.408C201.585 144.288 201.597 144.168 201.609 144.048L198.945 146.442L198.387 145.794L201.771 142.806H202.545V155.136H205.335ZM221.172 148.746H210.516V141.924H211.47V144.354H220.218V141.924H221.172V148.746ZM220.218 145.146H211.47V147.936H220.218V145.146ZM223.098 151.716H216.276V157.26H215.322V151.716H208.572V150.906H223.098V151.716ZM225.707 158.07C226.499 156.798 227.093 155.43 227.489 153.966C227.885 152.502 228.083 150.972 228.083 149.376C228.083 147.78 227.885 146.25 227.489 144.786C227.093 143.322 226.499 141.954 225.707 140.682L226.355 140.34C227.183 141.672 227.825 143.07 228.281 144.534C228.749 145.998 228.983 147.612 228.983 149.376C228.983 151.14 228.749 152.754 228.281 154.218C227.825 155.67 227.183 157.062 226.355 158.394L225.707 158.07Z" fill="black"/>
<path d="M113.712 244.548C113.352 245.052 112.878 245.448 112.29 245.736C111.714 246.024 111.066 246.168 110.346 246.168C109.758 246.168 109.218 246.072 108.726 245.88C108.234 245.688 107.808 245.424 107.448 245.088C107.088 244.74 106.806 244.326 106.602 243.846C106.398 243.354 106.296 242.82 106.296 242.244C106.296 241.668 106.398 241.14 106.602 240.66C106.806 240.18 107.088 239.772 107.448 239.436C107.808 239.088 108.234 238.818 108.726 238.626C109.218 238.434 109.758 238.338 110.346 238.338C111.066 238.338 111.708 238.476 112.272 238.752C112.848 239.028 113.322 239.418 113.694 239.922H118.086V237.276H119.04V249.156H118.086V244.548H113.712ZM107.214 242.244C107.214 242.688 107.292 243.102 107.448 243.486C107.604 243.858 107.82 244.182 108.096 244.458C108.384 244.734 108.72 244.95 109.104 245.106C109.488 245.262 109.902 245.34 110.346 245.34C110.802 245.34 111.216 245.262 111.588 245.106C111.972 244.95 112.302 244.734 112.578 244.458C112.866 244.182 113.088 243.858 113.244 243.486C113.4 243.102 113.478 242.688 113.478 242.244C113.478 241.812 113.4 241.41 113.244 241.038C113.088 240.666 112.866 240.342 112.578 240.066C112.302 239.79 111.972 239.574 111.588 239.418C111.216 239.262 110.802 239.184 110.346 239.184C109.902 239.184 109.488 239.262 109.104 239.418C108.72 239.574 108.384 239.79 108.096 240.066C107.82 240.342 107.604 240.666 107.448 241.038C107.292 241.41 107.214 241.812 107.214 242.244ZM114.126 240.732C114.21 240.96 114.276 241.2 114.324 241.452C114.372 241.704 114.396 241.968 114.396 242.244C114.396 242.736 114.312 243.234 114.144 243.738H118.086V240.732H114.126ZM119.526 252.054V252.864H109.05V247.914H110.004V252.054H119.526ZM133.691 240.138H123.953V239.346H128.345V237.24H129.299V239.346H133.691V240.138ZM136.301 237.276V253.242H135.347V237.276H136.301ZM129.317 249.012C130.145 248.976 130.973 248.928 131.801 248.868C132.629 248.808 133.439 248.724 134.231 248.616L134.303 249.336C133.403 249.48 132.485 249.594 131.549 249.678C130.625 249.762 129.707 249.828 128.795 249.876C127.883 249.912 127.001 249.936 126.149 249.948C125.297 249.96 124.493 249.966 123.737 249.966L123.575 249.138C124.295 249.138 125.051 249.132 125.843 249.12C126.647 249.108 127.481 249.084 128.345 249.048V247.068C127.325 246.996 126.521 246.708 125.933 246.204C125.357 245.688 125.069 245.01 125.069 244.17C125.069 243.714 125.159 243.306 125.339 242.946C125.519 242.586 125.771 242.28 126.095 242.028C126.419 241.776 126.809 241.584 127.265 241.452C127.733 241.308 128.249 241.236 128.813 241.236C129.377 241.236 129.887 241.308 130.343 241.452C130.811 241.584 131.207 241.776 131.531 242.028C131.867 242.28 132.125 242.586 132.305 242.946C132.485 243.306 132.575 243.714 132.575 244.17C132.575 244.998 132.287 245.67 131.711 246.186C131.135 246.69 130.337 246.984 129.317 247.068V249.012ZM125.969 244.17C125.969 244.818 126.227 245.34 126.743 245.736C127.259 246.132 127.949 246.33 128.813 246.33C129.677 246.33 130.367 246.132 130.883 245.736C131.411 245.34 131.675 244.818 131.675 244.17C131.675 243.522 131.411 243 130.883 242.604C130.367 242.208 129.677 242.01 128.813 242.01C127.949 242.01 127.259 242.208 126.743 242.604C126.227 243 125.969 243.522 125.969 244.17ZM155.757 241.56V242.388H153.255V246.996H152.301V237.276H153.255V241.56H155.757ZM149.583 246.042C148.671 245.718 147.861 245.232 147.153 244.584C146.457 243.924 145.947 243.162 145.623 242.298C145.287 243.282 144.747 244.134 144.003 244.854C143.259 245.574 142.419 246.114 141.483 246.474L140.979 245.718C141.543 245.514 142.071 245.238 142.563 244.89C143.067 244.542 143.505 244.14 143.877 243.684C144.261 243.228 144.561 242.724 144.777 242.172C145.005 241.62 145.119 241.038 145.119 240.426V239.328H141.321V238.536H149.835V239.328H146.055V240.408C146.055 240.96 146.157 241.488 146.361 241.992C146.577 242.496 146.865 242.964 147.225 243.396C147.585 243.816 148.005 244.188 148.485 244.512C148.977 244.836 149.499 245.094 150.051 245.286L149.583 246.042ZM148.215 247.518C149.847 247.518 151.113 247.764 152.013 248.256C152.925 248.748 153.381 249.45 153.381 250.362C153.381 251.274 152.925 251.976 152.013 252.468C151.113 252.96 149.847 253.206 148.215 253.206C146.583 253.206 145.317 252.96 144.417 252.468C143.517 251.976 143.067 251.274 143.067 250.362C143.067 249.45 143.517 248.748 144.417 248.256C145.317 247.764 146.583 247.518 148.215 247.518ZM148.215 252.432C149.499 252.432 150.525 252.246 151.293 251.874C152.061 251.502 152.445 250.998 152.445 250.362C152.445 249.726 152.061 249.222 151.293 248.85C150.525 248.478 149.499 248.292 148.215 248.292C147.579 248.292 146.997 248.34 146.469 248.436C145.953 248.532 145.509 248.67 145.137 248.85C144.777 249.03 144.495 249.246 144.291 249.498C144.099 249.75 144.003 250.038 144.003 250.362C144.003 250.686 144.099 250.974 144.291 251.226C144.495 251.478 144.777 251.694 145.137 251.874C145.509 252.054 145.953 252.192 146.469 252.288C146.997 252.384 147.579 252.432 148.215 252.432ZM166.622 254.394C165.794 253.062 165.146 251.67 164.678 250.218C164.222 248.754 163.994 247.14 163.994 245.376C163.994 243.612 164.222 241.998 164.678 240.534C165.146 239.07 165.794 237.672 166.622 236.34L167.27 236.682C166.478 237.954 165.884 239.322 165.488 240.786C165.092 242.25 164.894 243.78 164.894 245.376C164.894 246.972 165.092 248.502 165.488 249.966C165.884 251.43 166.478 252.798 167.27 254.07L166.622 254.394ZM182.866 237.258V246.942H181.912V237.258H182.866ZM178.924 245.862C177.988 245.49 177.148 244.95 176.404 244.242C175.66 243.522 175.114 242.652 174.766 241.632C174.418 242.7 173.872 243.624 173.128 244.404C172.396 245.184 171.562 245.778 170.626 246.186L170.122 245.412C170.686 245.196 171.214 244.896 171.706 244.512C172.21 244.116 172.654 243.666 173.038 243.162C173.422 242.646 173.722 242.088 173.938 241.488C174.166 240.876 174.28 240.246 174.28 239.598V238.014H175.216V239.598C175.216 240.222 175.33 240.822 175.558 241.398C175.786 241.974 176.092 242.502 176.476 242.982C176.872 243.45 177.322 243.87 177.826 244.242C178.33 244.602 178.858 244.89 179.41 245.106L178.924 245.862ZM172.318 247.806H182.866V253.242H181.912V248.616H172.318V247.806ZM202.142 241.65V242.478H199.64V246.96H198.686V237.276H199.64V241.65H202.142ZM196.85 244.836C196.262 244.944 195.692 245.034 195.14 245.106C194.588 245.178 194.012 245.238 193.412 245.286C192.824 245.334 192.194 245.37 191.522 245.394C190.862 245.406 190.13 245.412 189.326 245.412H188.138V238.59H195.14V239.4H189.092V244.602H189.326C190.118 244.602 190.844 244.596 191.504 244.584C192.164 244.56 192.782 244.53 193.358 244.494C193.946 244.446 194.51 244.386 195.05 244.314C195.602 244.242 196.16 244.152 196.724 244.044L196.85 244.836ZM194.6 247.32C196.208 247.32 197.468 247.578 198.38 248.094C199.304 248.598 199.766 249.318 199.766 250.254C199.766 251.19 199.304 251.916 198.38 252.432C197.468 252.948 196.208 253.206 194.6 253.206C193.808 253.206 193.094 253.14 192.458 253.008C191.822 252.876 191.282 252.684 190.838 252.432C190.394 252.18 190.052 251.874 189.812 251.514C189.572 251.142 189.452 250.722 189.452 250.254C189.452 249.318 189.908 248.598 190.82 248.094C191.744 247.578 193.004 247.32 194.6 247.32ZM194.6 252.414C195.248 252.414 195.83 252.36 196.346 252.252C196.862 252.156 197.306 252.018 197.678 251.838C198.05 251.646 198.332 251.418 198.524 251.154C198.728 250.878 198.83 250.578 198.83 250.254C198.83 249.93 198.728 249.636 198.524 249.372C198.332 249.108 198.05 248.886 197.678 248.706C197.306 248.514 196.862 248.37 196.346 248.274C195.83 248.166 195.248 248.112 194.6 248.112C193.964 248.112 193.382 248.166 192.854 248.274C192.338 248.37 191.894 248.514 191.522 248.706C191.162 248.886 190.88 249.108 190.676 249.372C190.472 249.636 190.37 249.93 190.37 250.254C190.37 250.578 190.472 250.878 190.676 251.154C190.88 251.418 191.162 251.646 191.522 251.838C191.894 252.018 192.338 252.156 192.854 252.252C193.382 252.36 193.964 252.414 194.6 252.414ZM204.427 254.07C205.219 252.798 205.813 251.43 206.209 249.966C206.605 248.502 206.803 246.972 206.803 245.376C206.803 243.78 206.605 242.25 206.209 240.786C205.813 239.322 205.219 237.954 204.427 236.682L205.075 236.34C205.903 237.672 206.545 239.07 207.001 240.534C207.469 241.998 207.703 243.612 207.703 245.376C207.703 247.14 207.469 248.754 207.001 250.218C206.545 251.67 205.903 253.062 205.075 254.394L204.427 254.07Z" fill="black"/>
<path d="M120.948 336.8H118.176V345.26H117.222V329.276H118.176V335.972H120.948V336.8ZM114.216 331.004C114.216 332.108 114.09 333.2 113.838 334.28C113.598 335.36 113.19 336.398 112.614 337.394C112.05 338.378 111.294 339.302 110.346 340.166C109.41 341.03 108.246 341.804 106.854 342.488L106.296 341.714C107.904 340.946 109.194 340.07 110.166 339.086C111.138 338.09 111.876 336.992 112.38 335.792L106.53 336.35L106.314 335.468L112.686 335C112.866 334.496 113.004 333.98 113.1 333.452C113.196 332.912 113.256 332.366 113.28 331.814H107.106V331.004H114.216ZM137.003 329.276V345.26H136.085V329.276H137.003ZM133.025 329.708H133.943V344.36H133.025V336.35H130.451V335.504H133.025V329.708ZM129.461 340.076C129.797 340.052 130.127 340.028 130.451 340.004C130.775 339.968 131.087 339.926 131.387 339.878L131.459 340.616C130.823 340.724 130.145 340.814 129.425 340.886C128.717 340.946 128.003 340.994 127.283 341.03C126.575 341.066 125.885 341.09 125.213 341.102C124.553 341.114 123.959 341.12 123.431 341.12L123.305 340.274C123.581 340.274 123.875 340.274 124.187 340.274C124.499 340.274 124.829 340.268 125.177 340.256V332.246H123.647V331.436H130.991V332.246H129.461V340.076ZM126.077 340.238C126.929 340.214 127.757 340.178 128.561 340.13V332.246H126.077V340.238Z" fill="black"/>
<path d="M113.712 426.548C113.352 427.052 112.878 427.448 112.29 427.736C111.714 428.024 111.066 428.168 110.346 428.168C109.758 428.168 109.218 428.072 108.726 427.88C108.234 427.688 107.808 427.424 107.448 427.088C107.088 426.74 106.806 426.326 106.602 425.846C106.398 425.354 106.296 424.82 106.296 424.244C106.296 423.668 106.398 423.14 106.602 422.66C106.806 422.18 107.088 421.772 107.448 421.436C107.808 421.088 108.234 420.818 108.726 420.626C109.218 420.434 109.758 420.338 110.346 420.338C111.066 420.338 111.708 420.476 112.272 420.752C112.848 421.028 113.322 421.418 113.694 421.922H118.086V419.276H119.04V431.156H118.086V426.548H113.712ZM107.214 424.244C107.214 424.688 107.292 425.102 107.448 425.486C107.604 425.858 107.82 426.182 108.096 426.458C108.384 426.734 108.72 426.95 109.104 427.106C109.488 427.262 109.902 427.34 110.346 427.34C110.802 427.34 111.216 427.262 111.588 427.106C111.972 426.95 112.302 426.734 112.578 426.458C112.866 426.182 113.088 425.858 113.244 425.486C113.4 425.102 113.478 424.688 113.478 424.244C113.478 423.812 113.4 423.41 113.244 423.038C113.088 422.666 112.866 422.342 112.578 422.066C112.302 421.79 111.972 421.574 111.588 421.418C111.216 421.262 110.802 421.184 110.346 421.184C109.902 421.184 109.488 421.262 109.104 421.418C108.72 421.574 108.384 421.79 108.096 422.066C107.82 422.342 107.604 422.666 107.448 423.038C107.292 423.41 107.214 423.812 107.214 424.244ZM114.126 422.732C114.21 422.96 114.276 423.2 114.324 423.452C114.372 423.704 114.396 423.968 114.396 424.244C114.396 424.736 114.312 425.234 114.144 425.738H118.086V422.732H114.126ZM119.526 434.054V434.864H109.05V429.914H110.004V434.054H119.526ZM133.691 422.138H123.953V421.346H128.345V419.24H129.299V421.346H133.691V422.138ZM136.301 419.276V435.242H135.347V419.276H136.301ZM129.317 431.012C130.145 430.976 130.973 430.928 131.801 430.868C132.629 430.808 133.439 430.724 134.231 430.616L134.303 431.336C133.403 431.48 132.485 431.594 131.549 431.678C130.625 431.762 129.707 431.828 128.795 431.876C127.883 431.912 127.001 431.936 126.149 431.948C125.297 431.96 124.493 431.966 123.737 431.966L123.575 431.138C124.295 431.138 125.051 431.132 125.843 431.12C126.647 431.108 127.481 431.084 128.345 431.048V429.068C127.325 428.996 126.521 428.708 125.933 428.204C125.357 427.688 125.069 427.01 125.069 426.17C125.069 425.714 125.159 425.306 125.339 424.946C125.519 424.586 125.771 424.28 126.095 424.028C126.419 423.776 126.809 423.584 127.265 423.452C127.733 423.308 128.249 423.236 128.813 423.236C129.377 423.236 129.887 423.308 130.343 423.452C130.811 423.584 131.207 423.776 131.531 424.028C131.867 424.28 132.125 424.586 132.305 424.946C132.485 425.306 132.575 425.714 132.575 426.17C132.575 426.998 132.287 427.67 131.711 428.186C131.135 428.69 130.337 428.984 129.317 429.068V431.012ZM125.969 426.17C125.969 426.818 126.227 427.34 126.743 427.736C127.259 428.132 127.949 428.33 128.813 428.33C129.677 428.33 130.367 428.132 130.883 427.736C131.411 427.34 131.675 426.818 131.675 426.17C131.675 425.522 131.411 425 130.883 424.604C130.367 424.208 129.677 424.01 128.813 424.01C127.949 424.01 127.259 424.208 126.743 424.604C126.227 425 125.969 425.522 125.969 426.17ZM155.757 423.56V424.388H153.255V428.996H152.301V419.276H153.255V423.56H155.757ZM149.583 428.042C148.671 427.718 147.861 427.232 147.153 426.584C146.457 425.924 145.947 425.162 145.623 424.298C145.287 425.282 144.747 426.134 144.003 426.854C143.259 427.574 142.419 428.114 141.483 428.474L140.979 427.718C141.543 427.514 142.071 427.238 142.563 426.89C143.067 426.542 143.505 426.14 143.877 425.684C144.261 425.228 144.561 424.724 144.777 424.172C145.005 423.62 145.119 423.038 145.119 422.426V421.328H141.321V420.536H149.835V421.328H146.055V422.408C146.055 422.96 146.157 423.488 146.361 423.992C146.577 424.496 146.865 424.964 147.225 425.396C147.585 425.816 148.005 426.188 148.485 426.512C148.977 426.836 149.499 427.094 150.051 427.286L149.583 428.042ZM148.215 429.518C149.847 429.518 151.113 429.764 152.013 430.256C152.925 430.748 153.381 431.45 153.381 432.362C153.381 433.274 152.925 433.976 152.013 434.468C151.113 434.96 149.847 435.206 148.215 435.206C146.583 435.206 145.317 434.96 144.417 434.468C143.517 433.976 143.067 433.274 143.067 432.362C143.067 431.45 143.517 430.748 144.417 430.256C145.317 429.764 146.583 429.518 148.215 429.518ZM148.215 434.432C149.499 434.432 150.525 434.246 151.293 433.874C152.061 433.502 152.445 432.998 152.445 432.362C152.445 431.726 152.061 431.222 151.293 430.85C150.525 430.478 149.499 430.292 148.215 430.292C147.579 430.292 146.997 430.34 146.469 430.436C145.953 430.532 145.509 430.67 145.137 430.85C144.777 431.03 144.495 431.246 144.291 431.498C144.099 431.75 144.003 432.038 144.003 432.362C144.003 432.686 144.099 432.974 144.291 433.226C144.495 433.478 144.777 433.694 145.137 433.874C145.509 434.054 145.953 434.192 146.469 434.288C146.997 434.384 147.579 434.432 148.215 434.432ZM166.622 436.394C165.794 435.062 165.146 433.67 164.678 432.218C164.222 430.754 163.994 429.14 163.994 427.376C163.994 425.612 164.222 423.998 164.678 422.534C165.146 421.07 165.794 419.672 166.622 418.34L167.27 418.682C166.478 419.954 165.884 421.322 165.488 422.786C165.092 424.25 164.894 425.78 164.894 427.376C164.894 428.972 165.092 430.502 165.488 431.966C165.884 433.43 166.478 434.798 167.27 436.07L166.622 436.394ZM182.866 419.258V428.942H181.912V419.258H182.866ZM178.924 427.862C177.988 427.49 177.148 426.95 176.404 426.242C175.66 425.522 175.114 424.652 174.766 423.632C174.418 424.7 173.872 425.624 173.128 426.404C172.396 427.184 171.562 427.778 170.626 428.186L170.122 427.412C170.686 427.196 171.214 426.896 171.706 426.512C172.21 426.116 172.654 425.666 173.038 425.162C173.422 424.646 173.722 424.088 173.938 423.488C174.166 422.876 174.28 422.246 174.28 421.598V420.014H175.216V421.598C175.216 422.222 175.33 422.822 175.558 423.398C175.786 423.974 176.092 424.502 176.476 424.982C176.872 425.45 177.322 425.87 177.826 426.242C178.33 426.602 178.858 426.89 179.41 427.106L178.924 427.862ZM172.318 429.806H182.866V435.242H181.912V430.616H172.318V429.806ZM202.142 423.65V424.478H199.64V428.96H198.686V419.276H199.64V423.65H202.142ZM196.85 426.836C196.262 426.944 195.692 427.034 195.14 427.106C194.588 427.178 194.012 427.238 193.412 427.286C192.824 427.334 192.194 427.37 191.522 427.394C190.862 427.406 190.13 427.412 189.326 427.412H188.138V420.59H195.14V421.4H189.092V426.602H189.326C190.118 426.602 190.844 426.596 191.504 426.584C192.164 426.56 192.782 426.53 193.358 426.494C193.946 426.446 194.51 426.386 195.05 426.314C195.602 426.242 196.16 426.152 196.724 426.044L196.85 426.836ZM194.6 429.32C196.208 429.32 197.468 429.578 198.38 430.094C199.304 430.598 199.766 431.318 199.766 432.254C199.766 433.19 199.304 433.916 198.38 434.432C197.468 434.948 196.208 435.206 194.6 435.206C193.808 435.206 193.094 435.14 192.458 435.008C191.822 434.876 191.282 434.684 190.838 434.432C190.394 434.18 190.052 433.874 189.812 433.514C189.572 433.142 189.452 432.722 189.452 432.254C189.452 431.318 189.908 430.598 190.82 430.094C191.744 429.578 193.004 429.32 194.6 429.32ZM194.6 434.414C195.248 434.414 195.83 434.36 196.346 434.252C196.862 434.156 197.306 434.018 197.678 433.838C198.05 433.646 198.332 433.418 198.524 433.154C198.728 432.878 198.83 432.578 198.83 432.254C198.83 431.93 198.728 431.636 198.524 431.372C198.332 431.108 198.05 430.886 197.678 430.706C197.306 430.514 196.862 430.37 196.346 430.274C195.83 430.166 195.248 430.112 194.6 430.112C193.964 430.112 193.382 430.166 192.854 430.274C192.338 430.37 191.894 430.514 191.522 430.706C191.162 430.886 190.88 431.108 190.676 431.372C190.472 431.636 190.37 431.93 190.37 432.254C190.37 432.578 190.472 432.878 190.676 433.154C190.88 433.418 191.162 433.646 191.522 433.838C191.894 434.018 192.338 434.156 192.854 434.252C193.382 434.36 193.964 434.414 194.6 434.414ZM214.753 419.024H215.617L209.677 436.358H208.831L214.753 419.024ZM230.831 433.082V434H222.353V433.442L227.015 428.708C227.387 428.336 227.729 427.976 228.041 427.628C228.365 427.268 228.641 426.908 228.869 426.548C229.097 426.188 229.271 425.822 229.391 425.45C229.523 425.066 229.589 424.664 229.589 424.244C229.589 423.764 229.511 423.356 229.355 423.02C229.199 422.672 228.989 422.39 228.725 422.174C228.473 421.946 228.173 421.778 227.825 421.67C227.477 421.562 227.111 421.508 226.727 421.508C225.899 421.508 225.221 421.742 224.693 422.21C224.165 422.678 223.817 423.272 223.649 423.992L223.595 424.406L222.659 424.262C222.827 423.098 223.277 422.204 224.009 421.58C224.753 420.956 225.671 420.644 226.763 420.644C227.267 420.644 227.753 420.722 228.221 420.878C228.689 421.022 229.097 421.244 229.445 421.544C229.793 421.844 230.069 422.216 230.273 422.66C230.489 423.104 230.597 423.626 230.597 424.226C230.597 424.718 230.513 425.186 230.345 425.63C230.189 426.062 229.979 426.482 229.715 426.89C229.451 427.286 229.145 427.676 228.797 428.06C228.449 428.444 228.089 428.834 227.717 429.23L223.829 433.208C224.129 433.124 224.513 433.082 224.981 433.082H230.831ZM246.615 426.746H235.959V419.924H236.913V422.354H245.661V419.924H246.615V426.746ZM245.661 423.146H236.913V425.936H245.661V423.146ZM248.541 429.716H241.719V435.26H240.765V429.716H234.015V428.906H248.541V429.716ZM251.15 436.07C251.942 434.798 252.536 433.43 252.932 431.966C253.328 430.502 253.526 428.972 253.526 427.376C253.526 425.78 253.328 424.25 252.932 422.786C252.536 421.322 251.942 419.954 251.15 418.682L251.798 418.34C252.626 419.672 253.268 421.07 253.724 422.534C254.192 423.998 254.426 425.612 254.426 427.376C254.426 429.14 254.192 430.754 253.724 432.218C253.268 433.67 252.626 435.062 251.798 436.394L251.15 436.07Z" fill="black"/>
<path d="M132.56 7.66C133.547 7.60667 134.4 7.5 135.12 7.34C135.84 7.16667 136.447 6.96 136.94 6.72C137.447 6.48 137.833 6.21333 138.1 5.92C138.38 5.62667 138.56 5.32667 138.64 5.02H133.44V2.96H138.84V1.34H141.48V2.96H146.9V5.02H141.7C141.78 5.32667 141.953 5.62667 142.22 5.92C142.5 6.21333 142.887 6.48 143.38 6.72C143.887 6.96 144.5 7.16667 145.22 7.34C145.953 7.5 146.807 7.60667 147.78 7.66L147 9.62C145.213 9.5 143.773 9.21333 142.68 8.76C141.587 8.30667 140.753 7.71333 140.18 6.98C139.58 7.71333 138.727 8.30667 137.62 8.76C136.513 9.21333 135.087 9.5 133.34 9.62L132.56 7.66ZM148.5 10.38V12.46H131.86V10.38H148.5ZM140.14 13.48C142.167 13.48 143.74 13.7467 144.86 14.28C145.98 14.8133 146.54 15.5867 146.54 16.6C146.54 17.6133 145.98 18.3867 144.86 18.92C143.74 19.4533 142.167 19.72 140.14 19.72C138.033 19.72 136.44 19.4533 135.36 18.92C134.293 18.3867 133.76 17.6133 133.76 16.6C133.76 15.5867 134.293 14.8133 135.36 14.28C136.44 13.7467 138.033 13.48 140.14 13.48ZM140.14 17.78C142.62 17.78 143.86 17.3867 143.86 16.6C143.86 16.1733 143.553 15.8733 142.94 15.7C142.327 15.5133 141.393 15.42 140.14 15.42C138.887 15.42 137.953 15.5133 137.34 15.7C136.727 15.8733 136.42 16.1733 136.42 16.6C136.42 17.3867 137.66 17.78 140.14 17.78ZM162.738 10.26H154.038V2.06H156.658V4.22H160.158V2.06H162.738V3.62H166.018V1.32H168.658V10.76H166.018V8.98H162.738V10.26ZM162.738 5.62V6.98H166.018V5.62H162.738ZM160.158 6.2H156.658V8.2H160.158V6.2ZM169.178 17.46V19.52H156.538V14.48H166.038V13.5H156.498V11.46H168.658V16.38H159.138V17.46H169.178ZM191.597 6.58V8.74H189.157V14.7H186.517V1.3H189.157V6.58H191.597ZM184.777 7.16C184.777 7.84 184.65 8.46667 184.397 9.04C184.144 9.6 183.79 10.0933 183.337 10.52C182.884 10.9333 182.357 11.26 181.757 11.5C181.157 11.7267 180.504 11.84 179.797 11.84C179.09 11.84 178.43 11.7267 177.817 11.5C177.217 11.26 176.69 10.9333 176.237 10.52C175.784 10.0933 175.43 9.6 175.177 9.04C174.924 8.46667 174.797 7.84 174.797 7.16C174.797 6.48 174.924 5.85333 175.177 5.28C175.43 4.70667 175.784 4.21333 176.237 3.8C176.69 3.38667 177.217 3.06667 177.817 2.84C178.43 2.6 179.09 2.48 179.797 2.48C180.504 2.48 181.157 2.6 181.757 2.84C182.357 3.06667 182.884 3.38667 183.337 3.8C183.79 4.21333 184.144 4.70667 184.397 5.28C184.65 5.85333 184.777 6.48 184.777 7.16ZM177.377 7.16C177.377 7.92 177.604 8.51333 178.057 8.94C178.524 9.35333 179.104 9.56 179.797 9.56C180.477 9.56 181.05 9.35333 181.517 8.94C181.984 8.51333 182.217 7.92 182.217 7.16C182.217 6.4 181.984 5.81333 181.517 5.4C181.05 4.97333 180.477 4.76 179.797 4.76C179.104 4.76 178.524 4.97333 178.057 5.4C177.604 5.81333 177.377 6.4 177.377 7.16ZM179.917 17.3H189.817V19.4H177.277V13.32H179.917V17.3ZM211.835 1.28V19.7H209.315V10.52H207.655V18.84H205.195V1.62H207.655V8.38H209.315V1.28H211.835ZM199.415 12.96C200.135 12.9333 200.889 12.8867 201.675 12.82C202.475 12.7533 203.315 12.64 204.195 12.48L204.415 14.7C203.202 14.9267 202.069 15.0733 201.015 15.14C199.962 15.2067 198.975 15.24 198.055 15.24H196.775V3.34H199.415V12.96Z" fill="black"/>
<path d="M61.451 36.668V33.366H62.14V41.868H61.451V37.253H58.838V36.668H61.451ZM59.098 39.97C58.448 39.7187 57.863 39.346 57.343 38.852C56.8317 38.358 56.4547 37.786 56.212 37.136C55.9693 37.8727 55.5793 38.5097 55.042 39.047C54.5047 39.5843 53.8937 39.9917 53.209 40.269L52.845 39.71C53.2437 39.5627 53.625 39.359 53.989 39.099C54.353 38.839 54.6737 38.54 54.951 38.202C55.2283 37.8553 55.4493 37.4827 55.614 37.084C55.7787 36.6767 55.861 36.2563 55.861 35.823V34.978H53.105V34.393H59.241V34.978H56.537V35.81C56.537 36.2 56.615 36.5813 56.771 36.954C56.927 37.3267 57.135 37.6733 57.395 37.994C57.6637 38.306 57.9757 38.5877 58.331 38.839C58.6863 39.0817 59.059 39.2723 59.449 39.411L59.098 39.97ZM62.491 44.039V44.624H54.925V41.088H55.614V44.039H62.491ZM75.087 33.353V44.91H74.411V33.353H75.087ZM72.097 33.665H72.76V44.273H72.097V38.618H70.056V38.033H72.097V33.665ZM68.574 36.941C68.574 37.4177 68.639 37.8943 68.769 38.371C68.899 38.839 69.081 39.281 69.315 39.697C69.549 40.113 69.8263 40.49 70.147 40.828C70.4677 41.166 70.8187 41.439 71.2 41.647L70.771 42.193C70.1903 41.8463 69.6747 41.3653 69.224 40.75C68.782 40.126 68.457 39.4197 68.249 38.631C68.0497 39.4457 67.7333 40.191 67.3 40.867C66.8667 41.5343 66.351 42.0543 65.753 42.427L65.311 41.907C65.6923 41.6817 66.039 41.3913 66.351 41.036C66.6717 40.672 66.9447 40.269 67.17 39.827C67.404 39.385 67.586 38.917 67.716 38.423C67.846 37.929 67.911 37.435 67.911 36.941V36.187H65.558V35.602H67.911V33.782H68.587V35.602H70.914V36.187H68.574V36.941ZM91.2278 33.366V44.897H90.5518V38.696H88.5628V44.273H87.8998V33.652H88.5628V38.111H90.5518V33.366H91.2278ZM82.6608 41.309C83.1288 41.309 83.5535 41.3047 83.9348 41.296C84.3248 41.2873 84.6888 41.27 85.0268 41.244C85.3648 41.218 85.6898 41.1833 86.0018 41.14C86.3138 41.088 86.6345 41.023 86.9638 40.945L87.0548 41.543C86.7168 41.621 86.3875 41.686 86.0668 41.738C85.7461 41.7813 85.4125 41.816 85.0658 41.842C84.7278 41.868 84.3638 41.8853 83.9738 41.894C83.5838 41.9027 83.1505 41.907 82.6738 41.907H81.9588V34.796H86.2618V35.394H82.6348V41.309H82.6608ZM104.76 37.253V37.851H102.94V42.089H102.251V33.366H102.94V37.253H104.76ZM99.3908 38.202C99.5641 37.4133 99.6638 36.7547 99.6898 36.226C99.7158 35.6887 99.7288 35.238 99.7288 34.874H94.7888V34.302H100.405V34.835C100.405 35.199 100.392 35.667 100.366 36.239C100.34 36.8023 100.244 37.4783 100.08 38.267L99.3908 38.202ZM101.445 39.619C100.838 39.7143 100.214 39.7923 99.5728 39.853C98.9315 39.9137 98.2945 39.9613 97.6618 39.996C97.0291 40.022 96.4138 40.0437 95.8158 40.061C95.2265 40.0697 94.6761 40.074 94.1648 40.074L94.0738 39.463C94.4725 39.463 94.8928 39.463 95.3348 39.463C95.7768 39.463 96.2361 39.4543 96.7128 39.437V36.798H97.4018V39.411C98.0778 39.385 98.7538 39.3503 99.4298 39.307C100.106 39.255 100.76 39.1813 101.393 39.086L101.445 39.619ZM96.5828 44.039H103.317V44.624H95.8938V41.27H96.5828V44.039ZM111.909 34.185C112.507 34.185 113.057 34.2587 113.56 34.406C114.062 34.5533 114.496 34.7657 114.86 35.043C115.232 35.3117 115.523 35.6367 115.731 36.018C115.939 36.3907 116.043 36.811 116.043 37.279C116.043 37.747 115.939 38.1717 115.731 38.553C115.523 38.9343 115.232 39.2593 114.86 39.528C114.496 39.7967 114.062 40.0047 113.56 40.152C113.057 40.2993 112.507 40.373 111.909 40.373C111.311 40.373 110.76 40.2993 110.258 40.152C109.755 40.0047 109.322 39.7967 108.958 39.528C108.594 39.2593 108.308 38.9343 108.1 38.553C107.892 38.1717 107.788 37.747 107.788 37.279C107.788 36.811 107.892 36.3907 108.1 36.018C108.308 35.6367 108.594 35.3117 108.958 35.043C109.322 34.7657 109.755 34.5533 110.258 34.406C110.76 34.2587 111.311 34.185 111.909 34.185ZM111.909 34.757C111.415 34.757 110.955 34.822 110.531 34.952C110.106 35.0733 109.738 35.2467 109.426 35.472C109.114 35.6887 108.867 35.953 108.685 36.265C108.511 36.577 108.425 36.915 108.425 37.279C108.425 37.6517 108.511 37.994 108.685 38.306C108.867 38.6093 109.114 38.8737 109.426 39.099C109.738 39.3243 110.106 39.502 110.531 39.632C110.955 39.7533 111.415 39.814 111.909 39.814C112.403 39.814 112.862 39.7533 113.287 39.632C113.72 39.502 114.093 39.3243 114.405 39.099C114.717 38.8737 114.959 38.6093 115.133 38.306C115.315 37.994 115.406 37.6517 115.406 37.279C115.406 36.915 115.315 36.577 115.133 36.265C114.959 35.953 114.717 35.6887 114.405 35.472C114.093 35.2467 113.72 35.0733 113.287 34.952C112.862 34.822 112.403 34.757 111.909 34.757ZM117.174 42.713V43.298H106.696V42.713H117.174ZM129.796 42.804V43.402H119.305V42.804H124.18V40.373H120.683V36.993H127.742V34.861H120.644V34.289H128.418V37.565H121.359V39.788H128.691V40.373H124.869V42.804H129.796ZM131.992 42.349H132.746L131.992 44.91H131.446L131.992 42.349ZM147.18 38.371H144.931V37.799H147.18V36.226H144.931V35.641H147.18V33.353H147.869V42.011H147.18V38.371ZM145.438 39.658C144.866 39.7447 144.277 39.814 143.67 39.866C143.072 39.918 142.478 39.957 141.889 39.983C141.3 40.009 140.728 40.0263 140.173 40.035C139.618 40.035 139.098 40.035 138.613 40.035L138.509 39.424C138.76 39.424 139.02 39.424 139.289 39.424C139.558 39.424 139.835 39.4197 140.121 39.411V34.939H138.847V34.354H144.918V34.939H143.618V39.294C143.921 39.2767 144.22 39.255 144.515 39.229C144.818 39.203 145.113 39.1683 145.399 39.125L145.438 39.658ZM140.797 39.398C141.161 39.3893 141.516 39.3807 141.863 39.372C142.218 39.3633 142.578 39.346 142.942 39.32V34.939H140.797V39.398ZM148.207 44.039V44.624H140.628V41.257H141.317V44.039H148.207ZM161.882 38.839H159.854V44.897H159.165V33.353H159.854V38.254H161.882V38.839ZM154.836 35.277H157.865V35.862H151.001V35.277H154.147V33.47H154.836V35.277ZM154.511 37.006C154.918 37.006 155.287 37.071 155.616 37.201C155.954 37.331 156.244 37.513 156.487 37.747C156.73 37.9723 156.916 38.2453 157.046 38.566C157.185 38.878 157.254 39.2247 157.254 39.606C157.254 39.9873 157.185 40.3383 157.046 40.659C156.916 40.971 156.73 41.244 156.487 41.478C156.244 41.7033 155.954 41.881 155.616 42.011C155.287 42.1323 154.918 42.193 154.511 42.193C154.112 42.193 153.744 42.1323 153.406 42.011C153.068 41.881 152.778 41.7033 152.535 41.478C152.292 41.244 152.102 40.971 151.963 40.659C151.833 40.3383 151.768 39.9873 151.768 39.606C151.768 39.2247 151.833 38.878 151.963 38.566C152.102 38.2453 152.292 37.9723 152.535 37.747C152.778 37.513 153.068 37.331 153.406 37.201C153.744 37.071 154.112 37.006 154.511 37.006ZM154.511 41.608C154.814 41.608 155.092 41.556 155.343 41.452C155.603 41.348 155.824 41.2093 156.006 41.036C156.197 40.854 156.344 40.6417 156.448 40.399C156.552 40.1563 156.604 39.892 156.604 39.606C156.604 39.32 156.552 39.0557 156.448 38.813C156.344 38.5703 156.197 38.358 156.006 38.176C155.824 37.994 155.603 37.8553 155.343 37.76C155.092 37.656 154.814 37.604 154.511 37.604C154.208 37.604 153.926 37.656 153.666 37.76C153.415 37.8553 153.194 37.994 153.003 38.176C152.821 38.358 152.678 38.5703 152.574 38.813C152.47 39.0557 152.418 39.32 152.418 39.606C152.418 39.892 152.47 40.1563 152.574 40.399C152.678 40.6417 152.821 40.854 153.003 41.036C153.194 41.2093 153.415 41.348 153.666 41.452C153.926 41.556 154.208 41.608 154.511 41.608ZM173.074 41.868H172.385V33.379H173.074V41.868ZM170.188 39.905C169.512 39.6277 168.91 39.216 168.381 38.67C167.852 38.1153 167.467 37.4697 167.224 36.733C166.99 37.5217 166.609 38.2107 166.08 38.8C165.56 39.3893 164.962 39.8357 164.286 40.139L163.896 39.58C164.303 39.4067 164.685 39.1727 165.04 38.878C165.404 38.5833 165.72 38.2453 165.989 37.864C166.266 37.4827 166.483 37.0667 166.639 36.616C166.795 36.1653 166.873 35.6973 166.873 35.212V34.016H167.549V35.212C167.549 35.68 167.631 36.1307 167.796 36.564C167.961 36.9887 168.177 37.383 168.446 37.747C168.723 38.111 169.044 38.4317 169.408 38.709C169.772 38.9863 170.153 39.203 170.552 39.359L170.188 39.905ZM173.464 44.039V44.624H165.82V41.101H166.509V44.039H173.464ZM188.214 34.51H181.09V33.925H188.877V34.692C188.877 35.134 188.864 35.6193 188.838 36.148C188.812 36.6767 188.725 37.292 188.578 37.994L187.915 37.903C188.062 37.201 188.149 36.5987 188.175 36.096C188.201 35.5847 188.214 35.1167 188.214 34.692V34.51ZM190.255 38.891V39.476H179.829V38.891H184.366V36.447H185.055V38.891H190.255ZM185.354 41.14C185.354 41.5733 185.475 41.9677 185.718 42.323C185.96 42.6783 186.272 42.9903 186.654 43.259C187.044 43.5277 187.473 43.753 187.941 43.935C188.417 44.1083 188.885 44.234 189.345 44.312L189.059 44.858C188.651 44.78 188.24 44.6673 187.824 44.52C187.416 44.3727 187.031 44.195 186.667 43.987C186.303 43.7703 185.973 43.519 185.679 43.233C185.393 42.947 185.167 42.6263 185.003 42.271C184.838 42.6263 184.608 42.947 184.314 43.233C184.028 43.519 183.703 43.7703 183.339 43.987C182.975 44.2037 182.585 44.3813 182.169 44.52C181.761 44.6673 181.35 44.78 180.934 44.858L180.648 44.312C181.107 44.234 181.571 44.1083 182.039 43.935C182.515 43.753 182.944 43.5277 183.326 43.259C183.716 42.9903 184.032 42.6783 184.275 42.323C184.526 41.9677 184.652 41.5733 184.652 41.14V40.529H185.354V41.14ZM202.188 33.353V44.91H201.525V33.353H202.188ZM199.263 33.639H199.926V44.286H199.263V38.579H197.482C197.464 39.1423 197.395 39.6493 197.274 40.1C197.152 40.5507 196.983 40.9363 196.767 41.257C196.559 41.569 196.307 41.8117 196.013 41.985C195.718 42.1497 195.393 42.232 195.038 42.232C194.674 42.232 194.34 42.141 194.037 41.959C193.742 41.777 193.486 41.517 193.27 41.179C193.062 40.8323 192.897 40.4207 192.776 39.944C192.663 39.4587 192.607 38.917 192.607 38.319C192.607 37.721 192.663 37.1837 192.776 36.707C192.897 36.2217 193.062 35.81 193.27 35.472C193.486 35.1253 193.742 34.861 194.037 34.679C194.34 34.497 194.674 34.406 195.038 34.406C195.393 34.406 195.714 34.4927 196 34.666C196.294 34.8307 196.546 35.069 196.754 35.381C196.962 35.693 197.126 36.07 197.248 36.512C197.378 36.954 197.456 37.448 197.482 37.994H199.263V33.639ZM195.038 41.608C195.306 41.608 195.549 41.53 195.766 41.374C195.991 41.2093 196.182 40.984 196.338 40.698C196.494 40.4033 196.615 40.0567 196.702 39.658C196.788 39.2507 196.832 38.8043 196.832 38.319C196.832 37.8337 196.788 37.3917 196.702 36.993C196.615 36.5943 196.494 36.2477 196.338 35.953C196.182 35.6583 195.991 35.433 195.766 35.277C195.549 35.1123 195.306 35.03 195.038 35.03C194.769 35.03 194.522 35.1123 194.297 35.277C194.08 35.433 193.894 35.6583 193.738 35.953C193.582 36.2477 193.46 36.5943 193.374 36.993C193.287 37.3917 193.244 37.8337 193.244 38.319C193.244 38.8043 193.287 39.2507 193.374 39.658C193.46 40.0567 193.582 40.4033 193.738 40.698C193.894 40.984 194.08 41.2093 194.297 41.374C194.522 41.53 194.769 41.608 195.038 41.608ZM217.977 33.366V44.91H217.288V38.293H214.155V41.907H209.059V34.562H214.155V37.708H217.288V33.366H217.977ZM213.466 35.134H209.735V41.348H213.466V35.134ZM230.248 37.214H222.578V33.769H230.248V37.214ZM229.572 34.328H223.241V36.642H229.572V34.328ZM226.738 38.982V40.347H230.235V42.726H223.189V44.169H230.612V44.741H222.513V42.193H229.559V40.906H222.487V40.347H226.049V38.982H221.174V38.41H231.613V38.982H226.738ZM243.182 33.366V44.923H242.493V38.553H240.062V37.968H242.493V33.366H243.182ZM235.083 41.504C235.621 41.504 236.119 41.4997 236.578 41.491C237.038 41.4737 237.475 41.452 237.891 41.426C238.316 41.3913 238.728 41.348 239.126 41.296C239.534 41.244 239.95 41.179 240.374 41.101L240.439 41.686C239.997 41.764 239.573 41.829 239.165 41.881C238.758 41.933 238.342 41.9763 237.917 42.011C237.501 42.037 237.059 42.0587 236.591 42.076C236.132 42.0847 235.629 42.089 235.083 42.089H234.238V37.773H238.671V35.082H234.212V34.484H239.347V38.358H234.914V41.504H235.083ZM247.081 38.332C247.515 38.2627 247.974 38.1327 248.459 37.942C248.945 37.7427 249.391 37.4957 249.798 37.201C250.214 36.9063 250.557 36.5727 250.825 36.2C251.103 35.8187 251.241 35.4157 251.241 34.991V34.731H247.406V34.146H255.804V34.731H251.982V34.991C251.982 35.4157 252.117 35.8187 252.385 36.2C252.663 36.5727 253.005 36.9063 253.412 37.201C253.828 37.4957 254.279 37.7427 254.764 37.942C255.258 38.1327 255.718 38.2627 256.142 38.332L255.869 38.904C255.471 38.826 255.055 38.7047 254.621 38.54C254.188 38.3667 253.776 38.1587 253.386 37.916C252.996 37.6733 252.645 37.396 252.333 37.084C252.021 36.772 251.783 36.4297 251.618 36.057C251.445 36.4297 251.202 36.772 250.89 37.084C250.578 37.396 250.227 37.6733 249.837 37.916C249.447 38.1587 249.036 38.3667 248.602 38.54C248.178 38.7047 247.762 38.826 247.354 38.904L247.081 38.332ZM256.831 40.633H251.943V44.884H251.254V40.633H246.392V40.061H256.844L256.831 40.633ZM268.764 33.366V44.91H268.101V33.366H268.764ZM265.735 33.652H266.398V44.299H265.735V38.241H263.564V37.656H265.735V33.652ZM262.251 36.85C262.251 37.3007 262.316 37.76 262.446 38.228C262.576 38.6873 262.758 39.125 262.992 39.541C263.226 39.957 263.499 40.3383 263.811 40.685C264.132 41.0317 264.479 41.3133 264.851 41.53L264.409 42.063C263.837 41.7163 263.335 41.231 262.901 40.607C262.468 39.983 262.147 39.2897 261.939 38.527C261.731 39.3677 261.402 40.1173 260.951 40.776C260.501 41.4347 259.976 41.946 259.378 42.31L258.923 41.79C259.305 41.5733 259.656 41.2873 259.976 40.932C260.306 40.5767 260.592 40.1823 260.834 39.749C261.077 39.307 261.263 38.839 261.393 38.345C261.532 37.851 261.601 37.357 261.601 36.863V34.497H262.251V36.85ZM282.088 42.765V43.35H271.61V42.765H274.34V39.45C273.82 39.1987 273.417 38.8737 273.131 38.475C272.845 38.0677 272.702 37.604 272.702 37.084C272.702 36.642 272.802 36.2433 273.001 35.888C273.209 35.5327 273.495 35.2293 273.859 34.978C274.223 34.7267 274.657 34.536 275.159 34.406C275.671 34.2673 276.225 34.198 276.823 34.198C277.43 34.198 277.985 34.2673 278.487 34.406C278.999 34.536 279.436 34.7267 279.8 34.978C280.164 35.2293 280.446 35.5327 280.645 35.888C280.853 36.2433 280.957 36.642 280.957 37.084C280.957 37.604 280.814 38.0633 280.528 38.462C280.242 38.8607 279.848 39.1857 279.345 39.437V42.765H282.088ZM273.352 37.084C273.352 37.422 273.439 37.734 273.612 38.02C273.786 38.306 274.028 38.553 274.34 38.761C274.652 38.9603 275.021 39.1163 275.445 39.229C275.87 39.3417 276.329 39.398 276.823 39.398C277.326 39.398 277.79 39.3417 278.214 39.229C278.639 39.1163 279.007 38.9603 279.319 38.761C279.631 38.553 279.874 38.306 280.047 38.02C280.221 37.734 280.307 37.422 280.307 37.084C280.307 36.7373 280.221 36.421 280.047 36.135C279.874 35.849 279.631 35.6063 279.319 35.407C279.007 35.199 278.639 35.0387 278.214 34.926C277.79 34.8133 277.326 34.757 276.823 34.757C276.329 34.757 275.87 34.8133 275.445 34.926C275.021 35.0387 274.652 35.199 274.34 35.407C274.028 35.6063 273.786 35.849 273.612 36.135C273.439 36.421 273.352 36.7373 273.352 37.084ZM275.029 42.765H278.656V39.71C278.388 39.788 278.097 39.8487 277.785 39.892C277.482 39.9353 277.161 39.957 276.823 39.957C276.494 39.957 276.178 39.9353 275.874 39.892C275.58 39.8487 275.298 39.788 275.029 39.71V42.765ZM287.985 36.707H288.739V37.539H287.985V36.707ZM287.985 42.427H288.739V43.259H287.985V42.427ZM290.833 45.495C291.405 44.5763 291.834 43.5883 292.12 42.531C292.406 41.4737 292.549 40.3687 292.549 39.216C292.549 38.0633 292.406 36.9583 292.12 35.901C291.834 34.8437 291.405 33.8557 290.833 32.937L291.301 32.69C291.899 33.652 292.363 34.6617 292.692 35.719C293.03 36.7763 293.199 37.942 293.199 39.216C293.199 40.49 293.03 41.6557 292.692 42.713C292.363 43.7617 291.899 44.767 291.301 45.729L290.833 45.495Z" fill="black"/>
<path d="M38.146 65.729C37.548 64.767 37.08 63.7617 36.742 62.713C36.4127 61.6557 36.248 60.49 36.248 59.216C36.248 57.942 36.4127 56.7763 36.742 55.719C37.08 54.6617 37.548 53.652 38.146 52.69L38.614 52.937C38.042 53.8557 37.613 54.8437 37.327 55.901C37.041 56.9583 36.898 58.0633 36.898 59.216C36.898 60.3687 37.041 61.4737 37.327 62.531C37.613 63.5883 38.042 64.5763 38.614 65.495L38.146 65.729ZM49.8776 53.353V60.347H49.1886V53.353H49.8776ZM47.0306 59.567C46.3546 59.2983 45.7479 58.9083 45.2106 58.397C44.6733 57.877 44.2789 57.2487 44.0276 56.512C43.7763 57.2833 43.3819 57.9507 42.8446 58.514C42.3159 59.0773 41.7136 59.5063 41.0376 59.801L40.6736 59.242C41.0809 59.086 41.4623 58.8693 41.8176 58.592C42.1816 58.306 42.5023 57.981 42.7796 57.617C43.0569 57.2443 43.2736 56.8413 43.4296 56.408C43.5943 55.966 43.6766 55.511 43.6766 55.043V53.899H44.3526V55.043C44.3526 55.4937 44.4349 55.927 44.5996 56.343C44.7643 56.759 44.9853 57.1403 45.2626 57.487C45.5486 57.825 45.8736 58.1283 46.2376 58.397C46.6016 58.657 46.9829 58.865 47.3816 59.021L47.0306 59.567ZM42.2596 60.971H49.8776V64.897H49.1886V61.556H42.2596V60.971ZM61.8106 56.668V53.366H62.4996V61.868H61.8106V57.253H59.1976V56.668H61.8106ZM59.4576 59.97C58.8076 59.7187 58.2226 59.346 57.7026 58.852C57.1912 58.358 56.8142 57.786 56.5716 57.136C56.3289 57.8727 55.9389 58.5097 55.4016 59.047C54.8642 59.5843 54.2532 59.9917 53.5686 60.269L53.2046 59.71C53.6032 59.5627 53.9846 59.359 54.3486 59.099C54.7126 58.839 55.0332 58.54 55.3106 58.202C55.5879 57.8553 55.8089 57.4827 55.9736 57.084C56.1382 56.6767 56.2206 56.2563 56.2206 55.823V54.978H53.4646V54.393H59.6006V54.978H56.8966V55.81C56.8966 56.2 56.9746 56.5813 57.1306 56.954C57.2866 57.3267 57.4946 57.6733 57.7546 57.994C58.0232 58.306 58.3352 58.5877 58.6906 58.839C59.0459 59.0817 59.4186 59.2723 59.8086 59.411L59.4576 59.97ZM62.8506 64.039V64.624H55.2846V61.088H55.9736V64.039H62.8506ZM75.0956 53.353V60.347H74.4066V53.353H75.0956ZM72.2486 59.567C71.5726 59.2983 70.9659 58.9083 70.4286 58.397C69.8912 57.877 69.4969 57.2487 69.2456 56.512C68.9942 57.2833 68.5999 57.9507 68.0626 58.514C67.5339 59.0773 66.9316 59.5063 66.2556 59.801L65.8916 59.242C66.2989 59.086 66.6802 58.8693 67.0356 58.592C67.3996 58.306 67.7202 57.981 67.9976 57.617C68.2749 57.2443 68.4916 56.8413 68.6476 56.408C68.8122 55.966 68.8946 55.511 68.8946 55.043V53.899H69.5706V55.043C69.5706 55.4937 69.6529 55.927 69.8176 56.343C69.9822 56.759 70.2032 57.1403 70.4806 57.487C70.7666 57.825 71.0916 58.1283 71.4556 58.397C71.8196 58.657 72.2009 58.865 72.5996 59.021L72.2486 59.567ZM67.4776 60.971H75.0956V64.897H74.4066V61.556H67.4776V60.971ZM89.1215 58.761H87.0935V64.91H86.4045V53.353H87.0935V58.176H89.1215V58.761ZM81.9455 56.733C81.9455 57.2357 82.0365 57.7383 82.2185 58.241C82.4005 58.735 82.6345 59.203 82.9205 59.645C83.2152 60.0783 83.5489 60.4683 83.9215 60.815C84.2942 61.153 84.6712 61.4173 85.0525 61.608L84.6235 62.141C84.3115 61.9763 84.0039 61.764 83.7005 61.504C83.3972 61.2353 83.1112 60.9363 82.8425 60.607C82.5825 60.2777 82.3485 59.918 82.1405 59.528C81.9325 59.138 81.7635 58.735 81.6335 58.319C81.5035 58.7697 81.3345 59.203 81.1265 59.619C80.9185 60.0263 80.6802 60.4077 80.4115 60.763C80.1515 61.1097 79.8699 61.4217 79.5665 61.699C79.2632 61.9763 78.9512 62.206 78.6305 62.388L78.2015 61.829C78.5829 61.6297 78.9555 61.3523 79.3195 60.997C79.6922 60.633 80.0215 60.2213 80.3075 59.762C80.6022 59.3027 80.8362 58.813 81.0095 58.293C81.1915 57.773 81.2825 57.253 81.2825 56.733V54.419H81.9455V56.733ZM105.262 58.839H103.234V64.897H102.545V53.353H103.234V58.254H105.262V58.839ZM98.2164 55.277H101.245V55.862H94.3814V55.277H97.5274V53.47H98.2164V55.277ZM97.8914 57.006C98.2987 57.006 98.667 57.071 98.9964 57.201C99.3344 57.331 99.6247 57.513 99.8674 57.747C100.11 57.9723 100.296 58.2453 100.426 58.566C100.565 58.878 100.634 59.2247 100.634 59.606C100.634 59.9873 100.565 60.3383 100.426 60.659C100.296 60.971 100.11 61.244 99.8674 61.478C99.6247 61.7033 99.3344 61.881 98.9964 62.011C98.667 62.1323 98.2987 62.193 97.8914 62.193C97.4927 62.193 97.1244 62.1323 96.7864 62.011C96.4484 61.881 96.158 61.7033 95.9154 61.478C95.6727 61.244 95.482 60.971 95.3434 60.659C95.2134 60.3383 95.1484 59.9873 95.1484 59.606C95.1484 59.2247 95.2134 58.878 95.3434 58.566C95.482 58.2453 95.6727 57.9723 95.9154 57.747C96.158 57.513 96.4484 57.331 96.7864 57.201C97.1244 57.071 97.4927 57.006 97.8914 57.006ZM97.8914 61.608C98.1947 61.608 98.472 61.556 98.7234 61.452C98.9834 61.348 99.2044 61.2093 99.3864 61.036C99.577 60.854 99.7244 60.6417 99.8284 60.399C99.9324 60.1563 99.9844 59.892 99.9844 59.606C99.9844 59.32 99.9324 59.0557 99.8284 58.813C99.7244 58.5703 99.577 58.358 99.3864 58.176C99.2044 57.994 98.9834 57.8553 98.7234 57.76C98.472 57.656 98.1947 57.604 97.8914 57.604C97.588 57.604 97.3064 57.656 97.0464 57.76C96.795 57.8553 96.574 57.994 96.3834 58.176C96.2014 58.358 96.0584 58.5703 95.9544 58.813C95.8504 59.0557 95.7984 59.32 95.7984 59.606C95.7984 59.892 95.8504 60.1563 95.9544 60.399C96.0584 60.6417 96.2014 60.854 96.3834 61.036C96.574 61.2093 96.795 61.348 97.0464 61.452C97.3064 61.556 97.588 61.608 97.8914 61.608ZM116.428 53.366V64.923H115.739V53.366H116.428ZM110.916 56.733C110.916 57.2617 111.012 57.7817 111.202 58.293C111.393 58.8043 111.64 59.281 111.943 59.723C112.255 60.165 112.602 60.5593 112.983 60.906C113.365 61.244 113.746 61.504 114.127 61.686L113.698 62.245C113.386 62.0803 113.074 61.868 112.762 61.608C112.45 61.3393 112.151 61.0403 111.865 60.711C111.588 60.373 111.337 60.0047 111.111 59.606C110.895 59.2073 110.721 58.7957 110.591 58.371C110.461 58.8217 110.284 59.255 110.058 59.671C109.842 60.0783 109.595 60.4597 109.317 60.815C109.049 61.1617 108.754 61.4737 108.433 61.751C108.121 62.0283 107.805 62.2537 107.484 62.427L107.055 61.868C107.437 61.6773 107.814 61.4043 108.186 61.049C108.568 60.685 108.91 60.2733 109.213 59.814C109.517 59.3547 109.764 58.8607 109.954 58.332C110.145 57.7947 110.24 57.2617 110.24 56.733V54.432H110.916V56.733ZM128.907 57.63H121.146V53.782H121.835V57.045H128.907V57.63ZM130.142 59.385V59.97H119.664V59.385H130.142ZM121.783 64.026H128.972V64.611H121.094V61.27H121.783V64.026ZM144.866 58.267H137.222V53.717H137.911V55.355H144.177V53.717H144.866V58.267ZM144.177 55.927H137.911V57.682H144.177V55.927ZM146.283 59.58V60.152H141.421V62.635H140.732V60.152H135.792V59.58H146.283ZM137.872 64.039H145.113V64.624H137.196V61.517H137.872V64.039ZM157.605 57.266H149.87V53.834H157.475V54.419H150.559V56.681H157.605V57.266ZM158.866 58.397V58.982H148.427V58.397H158.866ZM150.429 64.169H157.852V64.728H149.753V62.154H156.799V60.776H149.727V60.204H157.475V62.7H150.429V64.169ZM166.249 58.293C165.634 58.293 165.079 58.2453 164.585 58.15C164.091 58.046 163.671 57.8987 163.324 57.708C162.986 57.5087 162.722 57.2703 162.531 56.993C162.349 56.707 162.258 56.3863 162.258 56.031C162.258 55.6757 162.349 55.3593 162.531 55.082C162.722 54.796 162.986 54.5577 163.324 54.367C163.671 54.1763 164.091 54.0333 164.585 53.938C165.079 53.834 165.634 53.782 166.249 53.782C166.864 53.782 167.419 53.834 167.913 53.938C168.407 54.0333 168.823 54.1763 169.161 54.367C169.508 54.5577 169.772 54.796 169.954 55.082C170.145 55.3593 170.24 55.6757 170.24 56.031C170.24 56.3863 170.145 56.707 169.954 56.993C169.772 57.2703 169.508 57.5087 169.161 57.708C168.823 57.8987 168.407 58.046 167.913 58.15C167.419 58.2453 166.864 58.293 166.249 58.293ZM166.249 54.341C165.755 54.341 165.304 54.38 164.897 54.458C164.498 54.536 164.152 54.6487 163.857 54.796C163.571 54.9433 163.35 55.121 163.194 55.329C163.038 55.537 162.96 55.771 162.96 56.031C162.96 56.291 163.038 56.525 163.194 56.733C163.35 56.941 163.571 57.1187 163.857 57.266C164.152 57.4133 164.498 57.526 164.897 57.604C165.304 57.682 165.755 57.721 166.249 57.721C166.743 57.721 167.189 57.682 167.588 57.604C167.995 57.526 168.342 57.4133 168.628 57.266C168.923 57.1187 169.148 56.941 169.304 56.733C169.46 56.525 169.538 56.291 169.538 56.031C169.538 55.771 169.46 55.537 169.304 55.329C169.148 55.121 168.923 54.9433 168.628 54.796C168.342 54.6487 167.995 54.536 167.588 54.458C167.189 54.38 166.743 54.341 166.249 54.341ZM171.462 59.541V60.126H161.023V59.541H171.462ZM163.116 64.039H170.331V64.624H162.427V61.283H163.116V64.039ZM181.519 60.711V55.862L181.532 55.459L177.58 60.711H181.519ZM183.846 60.711V61.296H182.156V64H181.519V61.296H176.774V60.789L181.519 54.523H182.156V60.711H183.846ZM186.184 57.864C186.661 57.8033 187.142 57.6993 187.627 57.552C188.121 57.4047 188.568 57.2183 188.966 56.993C189.365 56.7677 189.69 56.499 189.941 56.187C190.201 55.875 190.331 55.5197 190.331 55.121H186.6V54.549H190.357V53.275H191.046V54.549H194.816V55.121H191.059C191.059 55.5197 191.185 55.875 191.436 56.187C191.696 56.499 192.026 56.7677 192.424 56.993C192.823 57.2183 193.265 57.4047 193.75 57.552C194.244 57.6993 194.73 57.8033 195.206 57.864L194.985 58.41C194.561 58.3493 194.127 58.2583 193.685 58.137C193.243 58.0157 192.827 57.864 192.437 57.682C192.056 57.4913 191.709 57.2703 191.397 57.019C191.094 56.759 190.86 56.4643 190.695 56.135C190.531 56.4643 190.292 56.759 189.98 57.019C189.677 57.2703 189.33 57.4913 188.94 57.682C188.559 57.864 188.147 58.0157 187.705 58.137C187.272 58.2583 186.839 58.3493 186.405 58.41L186.184 57.864ZM195.908 59.333V59.905H185.469V59.333H195.908ZM190.695 61.101C191.952 61.101 192.918 61.2613 193.594 61.582C194.279 61.894 194.621 62.362 194.621 62.986C194.621 63.61 194.279 64.078 193.594 64.39C192.918 64.7107 191.952 64.871 190.695 64.871C189.439 64.871 188.468 64.7107 187.783 64.39C187.107 64.078 186.769 63.61 186.769 62.986C186.769 62.362 187.107 61.894 187.783 61.582C188.468 61.2613 189.439 61.101 190.695 61.101ZM190.695 64.325C191.692 64.325 192.481 64.208 193.061 63.974C193.642 63.7313 193.932 63.402 193.932 62.986C193.932 62.5613 193.642 62.232 193.061 61.998C192.481 61.7553 191.692 61.634 190.695 61.634C189.699 61.634 188.91 61.7553 188.329 61.998C187.749 62.232 187.458 62.5613 187.458 62.986C187.458 63.402 187.749 63.7313 188.329 63.974C188.91 64.208 189.699 64.325 190.695 64.325ZM207.451 53.366V64.91H206.762V53.366H207.451ZM201.445 54.302C201.861 54.302 202.243 54.3973 202.589 54.588C202.945 54.77 203.248 55.0343 203.499 55.381C203.759 55.7277 203.959 56.148 204.097 56.642C204.236 57.1273 204.305 57.669 204.305 58.267C204.305 58.8737 204.236 59.424 204.097 59.918C203.959 60.4033 203.759 60.8193 203.499 61.166C203.248 61.504 202.945 61.7683 202.589 61.959C202.243 62.141 201.861 62.232 201.445 62.232C201.021 62.232 200.631 62.141 200.275 61.959C199.929 61.7683 199.625 61.504 199.365 61.166C199.114 60.8193 198.919 60.4033 198.78 59.918C198.642 59.424 198.572 58.8737 198.572 58.267C198.572 57.669 198.642 57.1273 198.78 56.642C198.919 56.148 199.114 55.7277 199.365 55.381C199.625 55.0343 199.929 54.77 200.275 54.588C200.631 54.3973 201.021 54.302 201.445 54.302ZM201.445 54.913C201.125 54.913 200.826 54.9953 200.548 55.16C200.28 55.3247 200.046 55.5543 199.846 55.849C199.656 56.1437 199.504 56.499 199.391 56.915C199.287 57.3223 199.235 57.773 199.235 58.267C199.235 58.761 199.287 59.216 199.391 59.632C199.504 60.0393 199.656 60.3947 199.846 60.698C200.046 60.9927 200.28 61.2223 200.548 61.387C200.826 61.5517 201.125 61.634 201.445 61.634C201.766 61.634 202.061 61.5517 202.329 61.387C202.598 61.2223 202.828 60.9927 203.018 60.698C203.218 60.3947 203.369 60.0393 203.473 59.632C203.586 59.216 203.642 58.761 203.642 58.267C203.642 57.773 203.586 57.3223 203.473 56.915C203.369 56.499 203.218 56.1437 203.018 55.849C202.828 55.5543 202.598 55.3247 202.329 55.16C202.061 54.9953 201.766 54.913 201.445 54.913ZM223.852 53.353V64.91H223.176V58.995H221.473V64.247H220.81V53.639H221.473V58.397H223.176V53.353H223.852ZM218.821 56.967C218.838 56.6723 218.847 56.3993 218.847 56.148C218.856 55.888 218.86 55.6453 218.86 55.42V55.225H214.7V54.64H219.497V55.42C219.497 55.94 219.48 56.5597 219.445 57.279C219.41 57.9897 219.289 58.8477 219.081 59.853L218.431 59.775C218.526 59.333 218.6 58.9257 218.652 58.553C218.713 58.1803 218.756 57.8293 218.782 57.5L214.622 57.864L214.492 57.266L218.821 56.967ZM217.001 61.426C217.547 61.4087 218.089 61.3827 218.626 61.348C219.163 61.3047 219.666 61.2483 220.134 61.179L220.186 61.712C219.709 61.79 219.207 61.855 218.678 61.907C218.149 61.9503 217.621 61.9893 217.092 62.024C216.563 62.05 216.052 62.0673 215.558 62.076C215.064 62.0847 214.618 62.089 214.219 62.089L214.102 61.478C214.423 61.478 214.774 61.478 215.155 61.478C215.536 61.478 215.935 61.4693 216.351 61.452V58.787H217.001V61.426ZM236.24 53.366V60.282H235.551V57.11H232.951V56.525H235.551V53.366H236.24ZM233.198 59.762C232.539 59.502 231.954 59.1293 231.443 58.644C230.932 58.1587 230.555 57.591 230.312 56.941C230.078 57.6777 229.688 58.3147 229.142 58.852C228.605 59.3807 227.994 59.7793 227.309 60.048L226.945 59.502C227.344 59.3547 227.725 59.151 228.089 58.891C228.453 58.631 228.774 58.332 229.051 57.994C229.328 57.6473 229.549 57.2747 229.714 56.876C229.879 56.4687 229.961 56.0483 229.961 55.615V54.835H227.205V54.25H233.341V54.835H230.637V55.602C230.637 56.0007 230.715 56.3863 230.871 56.759C231.027 57.1317 231.235 57.4783 231.495 57.799C231.764 58.111 232.076 58.3927 232.431 58.644C232.786 58.8867 233.159 59.0773 233.549 59.216L233.198 59.762ZM228.622 60.971H236.24V64.897H235.551V61.556H228.622V60.971ZM250.253 58.839H248.225V64.897H247.536V53.353H248.225V58.254H250.253V58.839ZM243.207 55.277H246.236V55.862H239.372V55.277H242.518V53.47H243.207V55.277ZM242.882 57.006C243.289 57.006 243.658 57.071 243.987 57.201C244.325 57.331 244.615 57.513 244.858 57.747C245.101 57.9723 245.287 58.2453 245.417 58.566C245.556 58.878 245.625 59.2247 245.625 59.606C245.625 59.9873 245.556 60.3383 245.417 60.659C245.287 60.971 245.101 61.244 244.858 61.478C244.615 61.7033 244.325 61.881 243.987 62.011C243.658 62.1323 243.289 62.193 242.882 62.193C242.483 62.193 242.115 62.1323 241.777 62.011C241.439 61.881 241.149 61.7033 240.906 61.478C240.663 61.244 240.473 60.971 240.334 60.659C240.204 60.3383 240.139 59.9873 240.139 59.606C240.139 59.2247 240.204 58.878 240.334 58.566C240.473 58.2453 240.663 57.9723 240.906 57.747C241.149 57.513 241.439 57.331 241.777 57.201C242.115 57.071 242.483 57.006 242.882 57.006ZM242.882 61.608C243.185 61.608 243.463 61.556 243.714 61.452C243.974 61.348 244.195 61.2093 244.377 61.036C244.568 60.854 244.715 60.6417 244.819 60.399C244.923 60.1563 244.975 59.892 244.975 59.606C244.975 59.32 244.923 59.0557 244.819 58.813C244.715 58.5703 244.568 58.358 244.377 58.176C244.195 57.994 243.974 57.8553 243.714 57.76C243.463 57.656 243.185 57.604 242.882 57.604C242.579 57.604 242.297 57.656 242.037 57.76C241.786 57.8553 241.565 57.994 241.374 58.176C241.192 58.358 241.049 58.5703 240.945 58.813C240.841 59.0557 240.789 59.32 240.789 59.606C240.789 59.892 240.841 60.1563 240.945 60.399C241.049 60.6417 241.192 60.854 241.374 61.036C241.565 61.2093 241.786 61.348 242.037 61.452C242.297 61.556 242.579 61.608 242.882 61.608ZM261.432 59.411H260.743V53.353H261.432V59.411ZM258.624 58.982C257.948 58.7307 257.337 58.3493 256.791 57.838C256.245 57.3267 255.846 56.7287 255.595 56.044C255.352 56.7807 254.958 57.4263 254.412 57.981C253.875 58.527 253.264 58.9387 252.579 59.216L252.215 58.657C252.622 58.501 253.008 58.2887 253.372 58.02C253.736 57.7513 254.057 57.4437 254.334 57.097C254.611 56.7417 254.832 56.356 254.997 55.94C255.162 55.5153 255.244 55.0733 255.244 54.614V53.73H255.92V54.614C255.92 55.056 256.002 55.4763 256.167 55.875C256.332 56.2737 256.553 56.6377 256.83 56.967C257.116 57.2963 257.441 57.5867 257.805 57.838C258.178 58.0893 258.568 58.2887 258.975 58.436L258.624 58.982ZM261.9 64.169V64.741H254.152V62.063H260.769V60.62H254.113V60.048H261.445V62.609H254.828V64.169H261.9ZM274.054 53.366V64.897H273.365V58.696H270.401V58.111H273.365V53.366H274.054ZM270.401 54.64C270.401 55.42 270.301 56.187 270.102 56.941C269.911 57.695 269.604 58.4143 269.179 59.099C268.754 59.7837 268.208 60.4207 267.541 61.01C266.882 61.5993 266.085 62.1237 265.149 62.583L264.746 62.037C265.561 61.647 266.267 61.205 266.865 60.711C267.472 60.2083 267.979 59.6667 268.386 59.086C268.793 58.5053 269.105 57.89 269.322 57.24C269.539 56.59 269.669 55.9183 269.712 55.225H265.214V54.64H270.401ZM287.027 53.353V64.91H286.364V53.353H287.027ZM284.102 53.639H284.765V64.286H284.102V58.579H282.321C282.304 59.1423 282.234 59.6493 282.113 60.1C281.992 60.5507 281.823 60.9363 281.606 61.257C281.398 61.569 281.147 61.8117 280.852 61.985C280.557 62.1497 280.232 62.232 279.877 62.232C279.513 62.232 279.179 62.141 278.876 61.959C278.581 61.777 278.326 61.517 278.109 61.179C277.901 60.8323 277.736 60.4207 277.615 59.944C277.502 59.4587 277.446 58.917 277.446 58.319C277.446 57.721 277.502 57.1837 277.615 56.707C277.736 56.2217 277.901 55.81 278.109 55.472C278.326 55.1253 278.581 54.861 278.876 54.679C279.179 54.497 279.513 54.406 279.877 54.406C280.232 54.406 280.553 54.4927 280.839 54.666C281.134 54.8307 281.385 55.069 281.593 55.381C281.801 55.693 281.966 56.07 282.087 56.512C282.217 56.954 282.295 57.448 282.321 57.994H284.102V53.639ZM279.877 61.608C280.146 61.608 280.388 61.53 280.605 61.374C280.83 61.2093 281.021 60.984 281.177 60.698C281.333 60.4033 281.454 60.0567 281.541 59.658C281.628 59.2507 281.671 58.8043 281.671 58.319C281.671 57.8337 281.628 57.3917 281.541 56.993C281.454 56.5943 281.333 56.2477 281.177 55.953C281.021 55.6583 280.83 55.433 280.605 55.277C280.388 55.1123 280.146 55.03 279.877 55.03C279.608 55.03 279.361 55.1123 279.136 55.277C278.919 55.433 278.733 55.6583 278.577 55.953C278.421 56.2477 278.3 56.5943 278.213 56.993C278.126 57.3917 278.083 57.8337 278.083 58.319C278.083 58.8043 278.126 59.2507 278.213 59.658C278.3 60.0567 278.421 60.4033 278.577 60.698C278.733 60.984 278.919 61.2093 279.136 61.374C279.361 61.53 279.608 61.608 279.877 61.608ZM300.351 62.765V63.35H289.873V62.765H292.603V59.45C292.083 59.1987 291.68 58.8737 291.394 58.475C291.108 58.0677 290.965 57.604 290.965 57.084C290.965 56.642 291.065 56.2433 291.264 55.888C291.472 55.5327 291.758 55.2293 292.122 54.978C292.486 54.7267 292.919 54.536 293.422 54.406C293.933 54.2673 294.488 54.198 295.086 54.198C295.693 54.198 296.247 54.2673 296.75 54.406C297.261 54.536 297.699 54.7267 298.063 54.978C298.427 55.2293 298.709 55.5327 298.908 55.888C299.116 56.2433 299.22 56.642 299.22 57.084C299.22 57.604 299.077 58.0633 298.791 58.462C298.505 58.8607 298.111 59.1857 297.608 59.437V62.765H300.351ZM291.615 57.084C291.615 57.422 291.702 57.734 291.875 58.02C292.048 58.306 292.291 58.553 292.603 58.761C292.915 58.9603 293.283 59.1163 293.708 59.229C294.133 59.3417 294.592 59.398 295.086 59.398C295.589 59.398 296.052 59.3417 296.477 59.229C296.902 59.1163 297.27 58.9603 297.582 58.761C297.894 58.553 298.137 58.306 298.31 58.02C298.483 57.734 298.57 57.422 298.57 57.084C298.57 56.7373 298.483 56.421 298.31 56.135C298.137 55.849 297.894 55.6063 297.582 55.407C297.27 55.199 296.902 55.0387 296.477 54.926C296.052 54.8133 295.589 54.757 295.086 54.757C294.592 54.757 294.133 54.8133 293.708 54.926C293.283 55.0387 292.915 55.199 292.603 55.407C292.291 55.6063 292.048 55.849 291.875 56.135C291.702 56.421 291.615 56.7373 291.615 57.084ZM293.292 62.765H296.919V59.71C296.65 59.788 296.36 59.8487 296.048 59.892C295.745 59.9353 295.424 59.957 295.086 59.957C294.757 59.957 294.44 59.9353 294.137 59.892C293.842 59.8487 293.561 59.788 293.292 59.71V62.765ZM303.145 54.354H303.925L303.821 61.816H303.262L303.145 54.354ZM303.158 63.337H303.912V64.169H303.158V63.337ZM306.465 65.495C307.037 64.5763 307.466 63.5883 307.752 62.531C308.038 61.4737 308.181 60.3687 308.181 59.216C308.181 58.0633 308.038 56.9583 307.752 55.901C307.466 54.8437 307.037 53.8557 306.465 52.937L306.933 52.69C307.531 53.652 307.995 54.6617 308.324 55.719C308.662 56.7763 308.831 57.942 308.831 59.216C308.831 60.49 308.662 61.6557 308.324 62.713C307.995 63.7617 307.531 64.767 306.933 65.729L306.465 65.495Z" fill="black"/>
<path d="M115.257 268.944C114.876 268.849 114.468 268.697 114.035 268.489C113.61 268.281 113.194 268.03 112.787 267.735C112.388 267.432 112.024 267.089 111.695 266.708C111.366 266.327 111.11 265.911 110.928 265.46C110.746 265.911 110.49 266.327 110.161 266.708C109.832 267.089 109.468 267.427 109.069 267.722C108.679 268.017 108.267 268.268 107.834 268.476C107.409 268.684 107.002 268.84 106.612 268.944L106.287 268.359C106.703 268.272 107.158 268.108 107.652 267.865C108.146 267.614 108.61 267.306 109.043 266.942C109.476 266.569 109.836 266.149 110.122 265.681C110.417 265.204 110.564 264.697 110.564 264.16V263.237H111.279V264.16C111.279 264.689 111.426 265.191 111.721 265.668C112.016 266.145 112.38 266.569 112.813 266.942C113.255 267.315 113.723 267.627 114.217 267.878C114.72 268.121 115.175 268.281 115.582 268.359L115.257 268.944ZM116.206 271.674V272.259H105.728V271.674H116.206ZM126.67 266.851C126.687 266.556 126.696 266.266 126.696 265.98C126.696 265.694 126.696 265.404 126.696 265.109V264.225H119.637V263.64H127.359V265.109C127.359 265.534 127.355 265.954 127.346 266.37C127.346 266.786 127.329 267.215 127.294 267.657C127.268 268.099 127.22 268.563 127.151 269.048C127.09 269.533 127.004 270.062 126.891 270.634L126.215 270.556C126.345 269.958 126.44 269.403 126.501 268.892C126.57 268.372 126.618 267.874 126.644 267.397L119.468 267.787L119.338 267.189L126.67 266.851ZM128.776 271.557V272.142H118.337V271.557H128.776ZM140.332 270.881H139.643V262.379H140.332V270.881ZM138.07 268.71C137.576 268.788 137.099 268.853 136.64 268.905C136.189 268.957 135.739 269 135.288 269.035C134.837 269.061 134.378 269.083 133.91 269.1C133.451 269.109 132.961 269.113 132.441 269.113H131.557V265.798H136.042V263.796H131.518V263.211H136.718V266.357H132.233V268.528H132.441C132.952 268.528 133.438 268.524 133.897 268.515C134.356 268.498 134.807 268.476 135.249 268.45C135.7 268.415 136.146 268.372 136.588 268.32C137.039 268.268 137.507 268.203 137.992 268.125L138.07 268.71ZM140.683 273.039V273.624H132.922V270.244H133.611V273.039H140.683ZM148.768 263.185C149.366 263.185 149.916 263.259 150.419 263.406C150.922 263.553 151.355 263.766 151.719 264.043C152.092 264.312 152.382 264.637 152.59 265.018C152.798 265.391 152.902 265.811 152.902 266.279C152.902 266.747 152.798 267.172 152.59 267.553C152.382 267.934 152.092 268.259 151.719 268.528C151.355 268.797 150.922 269.005 150.419 269.152C149.916 269.299 149.366 269.373 148.768 269.373C148.17 269.373 147.62 269.299 147.117 269.152C146.614 269.005 146.181 268.797 145.817 268.528C145.453 268.259 145.167 267.934 144.959 267.553C144.751 267.172 144.647 266.747 144.647 266.279C144.647 265.811 144.751 265.391 144.959 265.018C145.167 264.637 145.453 264.312 145.817 264.043C146.181 263.766 146.614 263.553 147.117 263.406C147.62 263.259 148.17 263.185 148.768 263.185ZM148.768 263.757C148.274 263.757 147.815 263.822 147.39 263.952C146.965 264.073 146.597 264.247 146.285 264.472C145.973 264.689 145.726 264.953 145.544 265.265C145.371 265.577 145.284 265.915 145.284 266.279C145.284 266.652 145.371 266.994 145.544 267.306C145.726 267.609 145.973 267.874 146.285 268.099C146.597 268.324 146.965 268.502 147.39 268.632C147.815 268.753 148.274 268.814 148.768 268.814C149.262 268.814 149.721 268.753 150.146 268.632C150.579 268.502 150.952 268.324 151.264 268.099C151.576 267.874 151.819 267.609 151.992 267.306C152.174 266.994 152.265 266.652 152.265 266.279C152.265 265.915 152.174 265.577 151.992 265.265C151.819 264.953 151.576 264.689 151.264 264.472C150.952 264.247 150.579 264.073 150.146 263.952C149.721 263.822 149.262 263.757 148.768 263.757ZM154.033 271.713V272.298H143.555V271.713H154.033ZM166.655 271.804V272.402H156.164V271.804H161.039V269.373H157.542V265.993H164.601V263.861H157.503V263.289H165.277V266.565H158.218V268.788H165.55V269.373H161.728V271.804H166.655ZM182.068 262.353V273.91H181.405V262.353H182.068ZM179.156 262.639H179.819V273.286H179.156V269.36H177.076C176.876 269.958 176.59 270.422 176.218 270.751C175.845 271.072 175.412 271.232 174.918 271.232C174.554 271.232 174.22 271.141 173.917 270.959C173.622 270.777 173.366 270.517 173.15 270.179C172.942 269.832 172.777 269.421 172.656 268.944C172.543 268.459 172.487 267.917 172.487 267.319C172.487 266.721 172.543 266.184 172.656 265.707C172.777 265.222 172.942 264.81 173.15 264.472C173.366 264.125 173.622 263.861 173.917 263.679C174.22 263.497 174.554 263.406 174.918 263.406C175.42 263.406 175.854 263.571 176.218 263.9C176.59 264.229 176.876 264.693 177.076 265.291H179.156V262.639ZM174.918 270.608C175.186 270.608 175.429 270.53 175.646 270.374C175.871 270.209 176.062 269.984 176.218 269.698C176.374 269.403 176.495 269.057 176.582 268.658C176.668 268.251 176.712 267.804 176.712 267.319C176.712 266.834 176.668 266.392 176.582 265.993C176.495 265.594 176.374 265.248 176.218 264.953C176.062 264.658 175.871 264.433 175.646 264.277C175.429 264.112 175.186 264.03 174.918 264.03C174.649 264.03 174.402 264.112 174.177 264.277C173.96 264.433 173.774 264.658 173.618 264.953C173.462 265.248 173.34 265.594 173.254 265.993C173.167 266.392 173.124 266.834 173.124 267.319C173.124 267.804 173.167 268.251 173.254 268.658C173.34 269.057 173.462 269.403 173.618 269.698C173.774 269.984 173.96 270.209 174.177 270.374C174.402 270.53 174.649 270.608 174.918 270.608ZM179.156 268.775V265.876H177.219C177.262 266.101 177.297 266.331 177.323 266.565C177.349 266.799 177.362 267.05 177.362 267.319C177.362 267.57 177.349 267.817 177.323 268.06C177.297 268.294 177.262 268.532 177.219 268.775H179.156ZM194.313 262.353V269.347H193.624V262.353H194.313ZM191.466 268.567C190.79 268.298 190.183 267.908 189.646 267.397C189.108 266.877 188.714 266.249 188.463 265.512C188.211 266.283 187.817 266.951 187.28 267.514C186.751 268.077 186.149 268.506 185.473 268.801L185.109 268.242C185.516 268.086 185.897 267.869 186.253 267.592C186.617 267.306 186.937 266.981 187.215 266.617C187.492 266.244 187.709 265.841 187.865 265.408C188.029 264.966 188.112 264.511 188.112 264.043V262.899H188.788V264.043C188.788 264.494 188.87 264.927 189.035 265.343C189.199 265.759 189.42 266.14 189.698 266.487C189.984 266.825 190.309 267.128 190.673 267.397C191.037 267.657 191.418 267.865 191.817 268.021L191.466 268.567ZM186.695 269.971H194.313V273.897H193.624V270.556H186.695V269.971ZM201.731 266.448C202.181 266.387 202.649 266.279 203.135 266.123C203.629 265.967 204.079 265.768 204.487 265.525C204.894 265.282 205.228 265.001 205.488 264.68C205.756 264.359 205.891 264.004 205.891 263.614V263.497H202.03V262.925H210.558V263.497H206.697V263.614C206.697 264.004 206.827 264.359 207.087 264.68C207.355 265.001 207.693 265.282 208.101 265.525C208.508 265.768 208.954 265.967 209.44 266.123C209.925 266.279 210.393 266.387 210.844 266.448L210.584 267.007C210.159 266.946 209.726 266.847 209.284 266.708C208.842 266.569 208.421 266.396 208.023 266.188C207.633 265.98 207.282 265.737 206.97 265.46C206.666 265.183 206.437 264.875 206.281 264.537C206.125 264.875 205.891 265.183 205.579 265.46C205.275 265.737 204.929 265.98 204.539 266.188C204.149 266.396 203.733 266.569 203.291 266.708C202.849 266.847 202.415 266.946 201.991 267.007L201.731 266.448ZM206.619 268.424V269.893C207.771 269.928 208.655 270.114 209.271 270.452C209.895 270.781 210.207 271.258 210.207 271.882C210.207 272.532 209.86 273.026 209.167 273.364C208.482 273.702 207.52 273.871 206.281 273.871C205.041 273.871 204.075 273.702 203.382 273.364C202.697 273.026 202.355 272.532 202.355 271.882C202.355 271.258 202.662 270.781 203.278 270.452C203.893 270.123 204.777 269.936 205.93 269.893V268.424H201.055V267.852H211.494V268.424H206.619ZM209.518 271.882C209.518 271.431 209.223 271.08 208.634 270.829C208.053 270.578 207.273 270.452 206.294 270.452C205.297 270.452 204.504 270.578 203.915 270.829C203.334 271.08 203.044 271.431 203.044 271.882C203.044 272.333 203.334 272.688 203.915 272.948C204.504 273.199 205.297 273.325 206.294 273.325C206.788 273.325 207.23 273.29 207.62 273.221C208.018 273.16 208.356 273.069 208.634 272.948C208.92 272.818 209.136 272.666 209.284 272.493C209.44 272.311 209.518 272.107 209.518 271.882ZM223.414 262.366V273.91H222.751V262.366H223.414ZM220.463 262.691H221.126V273.273H220.463V269.152H218.071V268.567H220.463V266.24H218.253C217.975 267.237 217.507 268.173 216.849 269.048C216.19 269.915 215.302 270.686 214.184 271.362L213.755 270.855C214.335 270.508 214.868 270.11 215.354 269.659C215.848 269.208 216.277 268.714 216.641 268.177C217.005 267.64 217.295 267.059 217.512 266.435C217.728 265.811 217.858 265.157 217.902 264.472H214.171V263.887H218.578C218.578 264.19 218.56 264.489 218.526 264.784C218.5 265.07 218.461 265.36 218.409 265.655H220.463V262.691ZM237.063 267.8H235.061V273.91H234.372V262.366H235.061V267.202H237.063V267.8ZM232.136 263.64C232.136 264.429 232.032 265.2 231.824 265.954C231.616 266.708 231.295 267.427 230.862 268.112C230.428 268.797 229.878 269.434 229.211 270.023C228.552 270.612 227.763 271.137 226.845 271.596L226.455 271.05C228.041 270.261 229.245 269.286 230.069 268.125C230.901 266.955 231.364 265.655 231.46 264.225H226.936V263.64H232.136ZM251.812 270.894H251.123V262.366H251.812V270.894ZM249.056 269.087C248.718 268.974 248.393 268.827 248.081 268.645C247.769 268.454 247.479 268.238 247.21 267.995C246.95 267.752 246.716 267.484 246.508 267.189C246.309 266.894 246.149 266.582 246.027 266.253C245.793 266.99 245.408 267.618 244.87 268.138C244.333 268.658 243.713 269.052 243.011 269.321L242.647 268.775C243.055 268.628 243.44 268.428 243.804 268.177C244.168 267.917 244.489 267.622 244.766 267.293C245.044 266.955 245.26 266.587 245.416 266.188C245.581 265.781 245.663 265.356 245.663 264.914V263.978H242.829V263.393H249.173V263.978H246.352V264.914C246.352 265.33 246.435 265.729 246.599 266.11C246.773 266.491 246.998 266.842 247.275 267.163C247.553 267.475 247.873 267.752 248.237 267.995C248.61 268.229 248.996 268.415 249.394 268.554L249.056 269.087ZM252.202 273.039V273.624H244.558V270.075H245.247V273.039H252.202ZM262.172 269.282H261.509V262.587H262.172V265.668H264.031V262.366H264.694V269.711H264.031V266.253H262.172V269.282ZM260.976 264.433H254.97V263.861H257.635V262.444H258.324V263.861H260.976V264.433ZM260.43 267.111C260.43 267.718 260.205 268.199 259.754 268.554C259.304 268.901 258.71 269.074 257.973 269.074C257.609 269.074 257.28 269.031 256.985 268.944C256.691 268.849 256.435 268.719 256.218 268.554C256.002 268.381 255.833 268.173 255.711 267.93C255.599 267.687 255.542 267.419 255.542 267.124C255.542 266.821 255.599 266.552 255.711 266.318C255.833 266.075 256.002 265.872 256.218 265.707C256.435 265.534 256.691 265.404 256.985 265.317C257.28 265.222 257.609 265.174 257.973 265.174C258.337 265.174 258.671 265.222 258.974 265.317C259.278 265.404 259.538 265.534 259.754 265.707C259.971 265.872 260.136 266.075 260.248 266.318C260.37 266.552 260.43 266.816 260.43 267.111ZM256.166 267.111C256.166 267.536 256.331 267.878 256.66 268.138C256.99 268.398 257.427 268.528 257.973 268.528C258.519 268.528 258.957 268.398 259.286 268.138C259.624 267.878 259.793 267.54 259.793 267.124C259.793 266.708 259.624 266.37 259.286 266.11C258.957 265.85 258.519 265.72 257.973 265.72C257.427 265.72 256.99 265.85 256.66 266.11C256.331 266.361 256.166 266.695 256.166 267.111ZM260.976 269.971C262.19 269.971 263.121 270.14 263.771 270.478C264.43 270.816 264.759 271.297 264.759 271.921C264.759 272.545 264.43 273.026 263.771 273.364C263.121 273.702 262.19 273.871 260.976 273.871C259.772 273.871 258.84 273.702 258.181 273.364C257.523 273.026 257.193 272.545 257.193 271.921C257.193 271.297 257.523 270.816 258.181 270.478C258.84 270.14 259.772 269.971 260.976 269.971ZM260.976 273.325C261.947 273.325 262.705 273.204 263.251 272.961C263.806 272.71 264.083 272.363 264.083 271.921C264.083 271.479 263.806 271.137 263.251 270.894C262.705 270.643 261.947 270.517 260.976 270.517C260.032 270.517 259.278 270.643 258.714 270.894C258.151 271.137 257.869 271.479 257.869 271.921C257.869 272.363 258.142 272.71 258.688 272.961C259.243 273.204 260.006 273.325 260.976 273.325ZM276.991 262.379V268.996H276.315V262.379H276.991ZM275.275 268.151C274.634 268.255 273.98 268.337 273.312 268.398C272.654 268.459 272.004 268.506 271.362 268.541C270.721 268.576 270.097 268.597 269.49 268.606C268.892 268.615 268.333 268.619 267.813 268.619L267.696 268.021C268.216 268.021 268.762 268.021 269.334 268.021C269.906 268.012 270.504 267.995 271.128 267.969V266.513H268.762V262.977H274.144V263.549H269.451V265.928H274.261V266.513H271.817V267.943C272.398 267.908 272.974 267.869 273.546 267.826C274.127 267.774 274.69 267.705 275.236 267.618L275.275 268.151ZM276.328 269.529H276.991V273.728H269.594V269.529H270.27V270.959H276.328V269.529ZM276.328 271.531H270.27V273.143H276.328V271.531ZM289.587 262.366V273.91H288.898V262.366H289.587ZM281.956 270.244C282.875 270.244 283.781 270.205 284.673 270.127C285.575 270.04 286.524 269.893 287.52 269.685L287.624 270.283C286.602 270.491 285.635 270.638 284.725 270.725C283.824 270.812 282.901 270.855 281.956 270.855H281.059V263.497H281.735V270.244H281.956ZM303.665 267.683H301.637V273.923H300.948V262.366H301.637V267.098H303.665V267.683ZM294.253 270.374C294.817 270.374 295.332 270.37 295.8 270.361C296.277 270.344 296.732 270.318 297.165 270.283C297.599 270.248 298.019 270.205 298.426 270.153C298.842 270.101 299.267 270.036 299.7 269.958L299.791 270.556C299.341 270.643 298.903 270.716 298.478 270.777C298.062 270.829 297.633 270.872 297.191 270.907C296.758 270.933 296.299 270.95 295.813 270.959C295.337 270.968 294.817 270.972 294.253 270.972H293.382V263.51H298.725V264.095H294.071V270.374H294.253ZM305.289 272.337H306.043V273.169H305.289V272.337Z" fill="#444444"/>
<path d="M115.127 174.868H114.438V166.379H115.127V174.868ZM112.241 172.905C111.565 172.628 110.963 172.216 110.434 171.67C109.905 171.115 109.52 170.47 109.277 169.733C109.043 170.522 108.662 171.211 108.133 171.8C107.613 172.389 107.015 172.836 106.339 173.139L105.949 172.58C106.356 172.407 106.738 172.173 107.093 171.878C107.457 171.583 107.773 171.245 108.042 170.864C108.319 170.483 108.536 170.067 108.692 169.616C108.848 169.165 108.926 168.697 108.926 168.212V167.016H109.602V168.212C109.602 168.68 109.684 169.131 109.849 169.564C110.014 169.989 110.23 170.383 110.499 170.747C110.776 171.111 111.097 171.432 111.461 171.709C111.825 171.986 112.206 172.203 112.605 172.359L112.241 172.905ZM115.517 177.039V177.624H107.873V174.101H108.562V177.039H115.517ZM127.424 171.761H119.728V166.834H120.417V168.589H126.735V166.834H127.424V171.761ZM126.735 169.161H120.417V171.176H126.735V169.161ZM128.815 173.906H123.888V177.91H123.199V173.906H118.324V173.321H128.815V173.906ZM140.696 166.366V177.897H140.02V171.696H138.031V177.273H137.368V166.652H138.031V171.111H140.02V166.366H140.696ZM132.129 174.309C132.597 174.309 133.022 174.305 133.403 174.296C133.793 174.287 134.157 174.27 134.495 174.244C134.833 174.218 135.158 174.183 135.47 174.14C135.782 174.088 136.103 174.023 136.432 173.945L136.523 174.543C136.185 174.621 135.856 174.686 135.535 174.738C135.214 174.781 134.881 174.816 134.534 174.842C134.196 174.868 133.832 174.885 133.442 174.894C133.052 174.903 132.619 174.907 132.142 174.907H131.427V167.796H135.73V168.394H132.103V174.309H132.129ZM152.954 166.366V177.91H152.265V166.366H152.954ZM149.574 167.64C149.574 168.446 149.466 169.23 149.249 169.993C149.032 170.756 148.699 171.479 148.248 172.164C147.806 172.84 147.243 173.473 146.558 174.062C145.882 174.651 145.08 175.176 144.153 175.635L143.776 175.063C145.388 174.274 146.619 173.299 147.468 172.138C148.317 170.977 148.79 169.672 148.885 168.225H144.27V167.64H149.574ZM165.55 172.411H164.861V166.353H165.55V172.411ZM162.742 171.982C162.066 171.731 161.455 171.349 160.909 170.838C160.363 170.327 159.964 169.729 159.713 169.044C159.47 169.781 159.076 170.426 158.53 170.981C157.993 171.527 157.382 171.939 156.697 172.216L156.333 171.657C156.74 171.501 157.126 171.289 157.49 171.02C157.854 170.751 158.175 170.444 158.452 170.097C158.729 169.742 158.95 169.356 159.115 168.94C159.28 168.515 159.362 168.073 159.362 167.614V166.73H160.038V167.614C160.038 168.056 160.12 168.476 160.285 168.875C160.45 169.274 160.671 169.638 160.948 169.967C161.234 170.296 161.559 170.587 161.923 170.838C162.296 171.089 162.686 171.289 163.093 171.436L162.742 171.982ZM166.018 177.169V177.741H158.27V175.063H164.887V173.62H158.231V173.048H165.563V175.609H158.946V177.169H166.018Z" fill="#444444"/>
<path d="M115.257 450.944C114.876 450.849 114.468 450.697 114.035 450.489C113.61 450.281 113.194 450.03 112.787 449.735C112.388 449.432 112.024 449.089 111.695 448.708C111.366 448.327 111.11 447.911 110.928 447.46C110.746 447.911 110.49 448.327 110.161 448.708C109.832 449.089 109.468 449.427 109.069 449.722C108.679 450.017 108.267 450.268 107.834 450.476C107.409 450.684 107.002 450.84 106.612 450.944L106.287 450.359C106.703 450.272 107.158 450.108 107.652 449.865C108.146 449.614 108.61 449.306 109.043 448.942C109.476 448.569 109.836 448.149 110.122 447.681C110.417 447.204 110.564 446.697 110.564 446.16V445.237H111.279V446.16C111.279 446.689 111.426 447.191 111.721 447.668C112.016 448.145 112.38 448.569 112.813 448.942C113.255 449.315 113.723 449.627 114.217 449.878C114.72 450.121 115.175 450.281 115.582 450.359L115.257 450.944ZM116.206 453.674V454.259H105.728V453.674H116.206ZM126.67 448.851C126.687 448.556 126.696 448.266 126.696 447.98C126.696 447.694 126.696 447.404 126.696 447.109V446.225H119.637V445.64H127.359V447.109C127.359 447.534 127.355 447.954 127.346 448.37C127.346 448.786 127.329 449.215 127.294 449.657C127.268 450.099 127.22 450.563 127.151 451.048C127.09 451.533 127.004 452.062 126.891 452.634L126.215 452.556C126.345 451.958 126.44 451.403 126.501 450.892C126.57 450.372 126.618 449.874 126.644 449.397L119.468 449.787L119.338 449.189L126.67 448.851ZM128.776 453.557V454.142H118.337V453.557H128.776ZM140.332 452.881H139.643V444.379H140.332V452.881ZM138.07 450.71C137.576 450.788 137.099 450.853 136.64 450.905C136.189 450.957 135.739 451 135.288 451.035C134.837 451.061 134.378 451.083 133.91 451.1C133.451 451.109 132.961 451.113 132.441 451.113H131.557V447.798H136.042V445.796H131.518V445.211H136.718V448.357H132.233V450.528H132.441C132.952 450.528 133.438 450.524 133.897 450.515C134.356 450.498 134.807 450.476 135.249 450.45C135.7 450.415 136.146 450.372 136.588 450.32C137.039 450.268 137.507 450.203 137.992 450.125L138.07 450.71ZM140.683 455.039V455.624H132.922V452.244H133.611V455.039H140.683ZM148.768 445.185C149.366 445.185 149.916 445.259 150.419 445.406C150.922 445.553 151.355 445.766 151.719 446.043C152.092 446.312 152.382 446.637 152.59 447.018C152.798 447.391 152.902 447.811 152.902 448.279C152.902 448.747 152.798 449.172 152.59 449.553C152.382 449.934 152.092 450.259 151.719 450.528C151.355 450.797 150.922 451.005 150.419 451.152C149.916 451.299 149.366 451.373 148.768 451.373C148.17 451.373 147.62 451.299 147.117 451.152C146.614 451.005 146.181 450.797 145.817 450.528C145.453 450.259 145.167 449.934 144.959 449.553C144.751 449.172 144.647 448.747 144.647 448.279C144.647 447.811 144.751 447.391 144.959 447.018C145.167 446.637 145.453 446.312 145.817 446.043C146.181 445.766 146.614 445.553 147.117 445.406C147.62 445.259 148.17 445.185 148.768 445.185ZM148.768 445.757C148.274 445.757 147.815 445.822 147.39 445.952C146.965 446.073 146.597 446.247 146.285 446.472C145.973 446.689 145.726 446.953 145.544 447.265C145.371 447.577 145.284 447.915 145.284 448.279C145.284 448.652 145.371 448.994 145.544 449.306C145.726 449.609 145.973 449.874 146.285 450.099C146.597 450.324 146.965 450.502 147.39 450.632C147.815 450.753 148.274 450.814 148.768 450.814C149.262 450.814 149.721 450.753 150.146 450.632C150.579 450.502 150.952 450.324 151.264 450.099C151.576 449.874 151.819 449.609 151.992 449.306C152.174 448.994 152.265 448.652 152.265 448.279C152.265 447.915 152.174 447.577 151.992 447.265C151.819 446.953 151.576 446.689 151.264 446.472C150.952 446.247 150.579 446.073 150.146 445.952C149.721 445.822 149.262 445.757 148.768 445.757ZM154.033 453.713V454.298H143.555V453.713H154.033ZM166.655 453.804V454.402H156.164V453.804H161.039V451.373H157.542V447.993H164.601V445.861H157.503V445.289H165.277V448.565H158.218V450.788H165.55V451.373H161.728V453.804H166.655ZM182.068 444.353V455.91H181.405V444.353H182.068ZM179.156 444.639H179.819V455.286H179.156V451.36H177.076C176.876 451.958 176.59 452.422 176.218 452.751C175.845 453.072 175.412 453.232 174.918 453.232C174.554 453.232 174.22 453.141 173.917 452.959C173.622 452.777 173.366 452.517 173.15 452.179C172.942 451.832 172.777 451.421 172.656 450.944C172.543 450.459 172.487 449.917 172.487 449.319C172.487 448.721 172.543 448.184 172.656 447.707C172.777 447.222 172.942 446.81 173.15 446.472C173.366 446.125 173.622 445.861 173.917 445.679C174.22 445.497 174.554 445.406 174.918 445.406C175.42 445.406 175.854 445.571 176.218 445.9C176.59 446.229 176.876 446.693 177.076 447.291H179.156V444.639ZM174.918 452.608C175.186 452.608 175.429 452.53 175.646 452.374C175.871 452.209 176.062 451.984 176.218 451.698C176.374 451.403 176.495 451.057 176.582 450.658C176.668 450.251 176.712 449.804 176.712 449.319C176.712 448.834 176.668 448.392 176.582 447.993C176.495 447.594 176.374 447.248 176.218 446.953C176.062 446.658 175.871 446.433 175.646 446.277C175.429 446.112 175.186 446.03 174.918 446.03C174.649 446.03 174.402 446.112 174.177 446.277C173.96 446.433 173.774 446.658 173.618 446.953C173.462 447.248 173.34 447.594 173.254 447.993C173.167 448.392 173.124 448.834 173.124 449.319C173.124 449.804 173.167 450.251 173.254 450.658C173.34 451.057 173.462 451.403 173.618 451.698C173.774 451.984 173.96 452.209 174.177 452.374C174.402 452.53 174.649 452.608 174.918 452.608ZM179.156 450.775V447.876H177.219C177.262 448.101 177.297 448.331 177.323 448.565C177.349 448.799 177.362 449.05 177.362 449.319C177.362 449.57 177.349 449.817 177.323 450.06C177.297 450.294 177.262 450.532 177.219 450.775H179.156ZM194.313 444.353V451.347H193.624V444.353H194.313ZM191.466 450.567C190.79 450.298 190.183 449.908 189.646 449.397C189.108 448.877 188.714 448.249 188.463 447.512C188.211 448.283 187.817 448.951 187.28 449.514C186.751 450.077 186.149 450.506 185.473 450.801L185.109 450.242C185.516 450.086 185.897 449.869 186.253 449.592C186.617 449.306 186.937 448.981 187.215 448.617C187.492 448.244 187.709 447.841 187.865 447.408C188.029 446.966 188.112 446.511 188.112 446.043V444.899H188.788V446.043C188.788 446.494 188.87 446.927 189.035 447.343C189.199 447.759 189.42 448.14 189.698 448.487C189.984 448.825 190.309 449.128 190.673 449.397C191.037 449.657 191.418 449.865 191.817 450.021L191.466 450.567ZM186.695 451.971H194.313V455.897H193.624V452.556H186.695V451.971ZM201.731 448.448C202.181 448.387 202.649 448.279 203.135 448.123C203.629 447.967 204.079 447.768 204.487 447.525C204.894 447.282 205.228 447.001 205.488 446.68C205.756 446.359 205.891 446.004 205.891 445.614V445.497H202.03V444.925H210.558V445.497H206.697V445.614C206.697 446.004 206.827 446.359 207.087 446.68C207.355 447.001 207.693 447.282 208.101 447.525C208.508 447.768 208.954 447.967 209.44 448.123C209.925 448.279 210.393 448.387 210.844 448.448L210.584 449.007C210.159 448.946 209.726 448.847 209.284 448.708C208.842 448.569 208.421 448.396 208.023 448.188C207.633 447.98 207.282 447.737 206.97 447.46C206.666 447.183 206.437 446.875 206.281 446.537C206.125 446.875 205.891 447.183 205.579 447.46C205.275 447.737 204.929 447.98 204.539 448.188C204.149 448.396 203.733 448.569 203.291 448.708C202.849 448.847 202.415 448.946 201.991 449.007L201.731 448.448ZM206.619 450.424V451.893C207.771 451.928 208.655 452.114 209.271 452.452C209.895 452.781 210.207 453.258 210.207 453.882C210.207 454.532 209.86 455.026 209.167 455.364C208.482 455.702 207.52 455.871 206.281 455.871C205.041 455.871 204.075 455.702 203.382 455.364C202.697 455.026 202.355 454.532 202.355 453.882C202.355 453.258 202.662 452.781 203.278 452.452C203.893 452.123 204.777 451.936 205.93 451.893V450.424H201.055V449.852H211.494V450.424H206.619ZM209.518 453.882C209.518 453.431 209.223 453.08 208.634 452.829C208.053 452.578 207.273 452.452 206.294 452.452C205.297 452.452 204.504 452.578 203.915 452.829C203.334 453.08 203.044 453.431 203.044 453.882C203.044 454.333 203.334 454.688 203.915 454.948C204.504 455.199 205.297 455.325 206.294 455.325C206.788 455.325 207.23 455.29 207.62 455.221C208.018 455.16 208.356 455.069 208.634 454.948C208.92 454.818 209.136 454.666 209.284 454.493C209.44 454.311 209.518 454.107 209.518 453.882ZM223.414 444.366V455.91H222.751V444.366H223.414ZM220.463 444.691H221.126V455.273H220.463V451.152H218.071V450.567H220.463V448.24H218.253C217.975 449.237 217.507 450.173 216.849 451.048C216.19 451.915 215.302 452.686 214.184 453.362L213.755 452.855C214.335 452.508 214.868 452.11 215.354 451.659C215.848 451.208 216.277 450.714 216.641 450.177C217.005 449.64 217.295 449.059 217.512 448.435C217.728 447.811 217.858 447.157 217.902 446.472H214.171V445.887H218.578C218.578 446.19 218.56 446.489 218.526 446.784C218.5 447.07 218.461 447.36 218.409 447.655H220.463V444.691ZM237.063 449.8H235.061V455.91H234.372V444.366H235.061V449.202H237.063V449.8ZM232.136 445.64C232.136 446.429 232.032 447.2 231.824 447.954C231.616 448.708 231.295 449.427 230.862 450.112C230.428 450.797 229.878 451.434 229.211 452.023C228.552 452.612 227.763 453.137 226.845 453.596L226.455 453.05C228.041 452.261 229.245 451.286 230.069 450.125C230.901 448.955 231.364 447.655 231.46 446.225H226.936V445.64H232.136ZM251.812 452.894H251.123V444.366H251.812V452.894ZM249.056 451.087C248.718 450.974 248.393 450.827 248.081 450.645C247.769 450.454 247.479 450.238 247.21 449.995C246.95 449.752 246.716 449.484 246.508 449.189C246.309 448.894 246.149 448.582 246.027 448.253C245.793 448.99 245.408 449.618 244.87 450.138C244.333 450.658 243.713 451.052 243.011 451.321L242.647 450.775C243.055 450.628 243.44 450.428 243.804 450.177C244.168 449.917 244.489 449.622 244.766 449.293C245.044 448.955 245.26 448.587 245.416 448.188C245.581 447.781 245.663 447.356 245.663 446.914V445.978H242.829V445.393H249.173V445.978H246.352V446.914C246.352 447.33 246.435 447.729 246.599 448.11C246.773 448.491 246.998 448.842 247.275 449.163C247.553 449.475 247.873 449.752 248.237 449.995C248.61 450.229 248.996 450.415 249.394 450.554L249.056 451.087ZM252.202 455.039V455.624H244.558V452.075H245.247V455.039H252.202ZM262.172 451.282H261.509V444.587H262.172V447.668H264.031V444.366H264.694V451.711H264.031V448.253H262.172V451.282ZM260.976 446.433H254.97V445.861H257.635V444.444H258.324V445.861H260.976V446.433ZM260.43 449.111C260.43 449.718 260.205 450.199 259.754 450.554C259.304 450.901 258.71 451.074 257.973 451.074C257.609 451.074 257.28 451.031 256.985 450.944C256.691 450.849 256.435 450.719 256.218 450.554C256.002 450.381 255.833 450.173 255.711 449.93C255.599 449.687 255.542 449.419 255.542 449.124C255.542 448.821 255.599 448.552 255.711 448.318C255.833 448.075 256.002 447.872 256.218 447.707C256.435 447.534 256.691 447.404 256.985 447.317C257.28 447.222 257.609 447.174 257.973 447.174C258.337 447.174 258.671 447.222 258.974 447.317C259.278 447.404 259.538 447.534 259.754 447.707C259.971 447.872 260.136 448.075 260.248 448.318C260.37 448.552 260.43 448.816 260.43 449.111ZM256.166 449.111C256.166 449.536 256.331 449.878 256.66 450.138C256.99 450.398 257.427 450.528 257.973 450.528C258.519 450.528 258.957 450.398 259.286 450.138C259.624 449.878 259.793 449.54 259.793 449.124C259.793 448.708 259.624 448.37 259.286 448.11C258.957 447.85 258.519 447.72 257.973 447.72C257.427 447.72 256.99 447.85 256.66 448.11C256.331 448.361 256.166 448.695 256.166 449.111ZM260.976 451.971C262.19 451.971 263.121 452.14 263.771 452.478C264.43 452.816 264.759 453.297 264.759 453.921C264.759 454.545 264.43 455.026 263.771 455.364C263.121 455.702 262.19 455.871 260.976 455.871C259.772 455.871 258.84 455.702 258.181 455.364C257.523 455.026 257.193 454.545 257.193 453.921C257.193 453.297 257.523 452.816 258.181 452.478C258.84 452.14 259.772 451.971 260.976 451.971ZM260.976 455.325C261.947 455.325 262.705 455.204 263.251 454.961C263.806 454.71 264.083 454.363 264.083 453.921C264.083 453.479 263.806 453.137 263.251 452.894C262.705 452.643 261.947 452.517 260.976 452.517C260.032 452.517 259.278 452.643 258.714 452.894C258.151 453.137 257.869 453.479 257.869 453.921C257.869 454.363 258.142 454.71 258.688 454.961C259.243 455.204 260.006 455.325 260.976 455.325ZM276.991 444.379V450.996H276.315V444.379H276.991ZM275.275 450.151C274.634 450.255 273.98 450.337 273.312 450.398C272.654 450.459 272.004 450.506 271.362 450.541C270.721 450.576 270.097 450.597 269.49 450.606C268.892 450.615 268.333 450.619 267.813 450.619L267.696 450.021C268.216 450.021 268.762 450.021 269.334 450.021C269.906 450.012 270.504 449.995 271.128 449.969V448.513H268.762V444.977H274.144V445.549H269.451V447.928H274.261V448.513H271.817V449.943C272.398 449.908 272.974 449.869 273.546 449.826C274.127 449.774 274.69 449.705 275.236 449.618L275.275 450.151ZM276.328 451.529H276.991V455.728H269.594V451.529H270.27V452.959H276.328V451.529ZM276.328 453.531H270.27V455.143H276.328V453.531ZM289.587 444.366V455.91H288.898V444.366H289.587ZM281.956 452.244C282.875 452.244 283.781 452.205 284.673 452.127C285.575 452.04 286.524 451.893 287.52 451.685L287.624 452.283C286.602 452.491 285.635 452.638 284.725 452.725C283.824 452.812 282.901 452.855 281.956 452.855H281.059V445.497H281.735V452.244H281.956ZM303.665 449.683H301.637V455.923H300.948V444.366H301.637V449.098H303.665V449.683ZM294.253 452.374C294.817 452.374 295.332 452.37 295.8 452.361C296.277 452.344 296.732 452.318 297.165 452.283C297.599 452.248 298.019 452.205 298.426 452.153C298.842 452.101 299.267 452.036 299.7 451.958L299.791 452.556C299.341 452.643 298.903 452.716 298.478 452.777C298.062 452.829 297.633 452.872 297.191 452.907C296.758 452.933 296.299 452.95 295.813 452.959C295.337 452.968 294.817 452.972 294.253 452.972H293.382V445.51H298.725V446.095H294.071V452.374H294.253ZM305.289 454.337H306.043V455.169H305.289V454.337Z" fill="#444444"/>
<defs>
<filter id="filter0_d_71_94" x="1" y="105.5" width="346" height="5" filterUnits="userSpaceOnUse" color-interpolation-filters="sRGB">
<feFlood flood-opacity="0" result="BackgroundImageFix"/>
<feColorMatrix in="SourceAlpha" type="matrix" values="0 0 0 0 0 0 0 0 0 0 0 0 0 0 0 0 0 0 127 0" result="hardAlpha"/>
<feOffset dy="2"/>
<feGaussianBlur stdDeviation="1"/>
<feComposite in2="hardAlpha" operator="out"/>
<feColorMatrix type="matrix" values="0 0 0 0 0 0 0 0 0 0 0 0 0 0 0 0 0 0 0.2 0"/>
<feBlend mode="normal" in2="BackgroundImageFix" result="effect1_dropShadow_71_94"/>
<feBlend mode="normal" in="SourceGraphic" in2="effect1_dropShadow_71_94" result="shape"/>
</filter>
<filter id="filter1_d_71_94" x="1" y="198.5" width="346" height="5" filterUnits="userSpaceOnUse" color-interpolation-filters="sRGB">
<feFlood flood-opacity="0" result="BackgroundImageFix"/>
<feColorMatrix in="SourceAlpha" type="matrix" values="0 0 0 0 0 0 0 0 0 0 0 0 0 0 0 0 0 0 127 0" result="hardAlpha"/>
<feOffset dy="2"/>
<feGaussianBlur stdDeviation="1"/>
<feComposite in2="hardAlpha" operator="out"/>
<feColorMatrix type="matrix" values="0 0 0 0 0 0 0 0 0 0 0 0 0 0 0 0 0 0 0.2 0"/>
<feBlend mode="normal" in2="BackgroundImageFix" result="effect1_dropShadow_71_94"/>
<feBlend mode="normal" in="SourceGraphic" in2="effect1_dropShadow_71_94" result="shape"/>
</filter>
<filter id="filter2_d_71_94" x="0" y="291.5" width="346" height="5" filterUnits="userSpaceOnUse" color-interpolation-filters="sRGB">
<feFlood flood-opacity="0" result="BackgroundImageFix"/>
<feColorMatrix in="SourceAlpha" type="matrix" values="0 0 0 0 0 0 0 0 0 0 0 0 0 0 0 0 0 0 127 0" result="hardAlpha"/>
<feOffset dy="2"/>
<feGaussianBlur stdDeviation="1"/>
<feComposite in2="hardAlpha" operator="out"/>
<feColorMatrix type="matrix" values="0 0 0 0 0 0 0 0 0 0 0 0 0 0 0 0 0 0 0.2 0"/>
<feBlend mode="normal" in2="BackgroundImageFix" result="effect1_dropShadow_71_94"/>
<feBlend mode="normal" in="SourceGraphic" in2="effect1_dropShadow_71_94" result="shape"/>
</filter>
<filter id="filter3_d_71_94" x="0" y="383.5" width="346" height="5" filterUnits="userSpaceOnUse" color-interpolation-filters="sRGB">
<feFlood flood-opacity="0" result="BackgroundImageFix"/>
<feColorMatrix in="SourceAlpha" type="matrix" values="0 0 0 0 0 0 0 0 0 0 0 0 0 0 0 0 0 0 127 0" result="hardAlpha"/>
<feOffset dy="2"/>
<feGaussianBlur stdDeviation="1"/>
<feComposite in2="hardAlpha" operator="out"/>
<feColorMatrix type="matrix" values="0 0 0 0 0 0 0 0 0 0 0 0 0 0 0 0 0 0 0.2 0"/>
<feBlend mode="normal" in2="BackgroundImageFix" result="effect1_dropShadow_71_94"/>
<feBlend mode="normal" in="SourceGraphic" in2="effect1_dropShadow_71_94" result="shape"/>
</filter>
<filter id="filter4_d_71_94" x="0" y="476.5" width="346" height="5" filterUnits="userSpaceOnUse" color-interpolation-filters="sRGB">
<feFlood flood-opacity="0" result="BackgroundImageFix"/>
<feColorMatrix in="SourceAlpha" type="matrix" values="0 0 0 0 0 0 0 0 0 0 0 0 0 0 0 0 0 0 127 0" result="hardAlpha"/>
<feOffset dy="2"/>
<feGaussianBlur stdDeviation="1"/>
<feComposite in2="hardAlpha" operator="out"/>
<feColorMatrix type="matrix" values="0 0 0 0 0 0 0 0 0 0 0 0 0 0 0 0 0 0 0.2 0"/>
<feBlend mode="normal" in2="BackgroundImageFix" result="effect1_dropShadow_71_94"/>
<feBlend mode="normal" in="SourceGraphic" in2="effect1_dropShadow_71_94" result="shape"/>
</filter>
</defs>
</svg>
